<svg width="93.3591552734375px" height="93.2px" xmlns="http://www.w3.org/2000/svg" viewBox="203.32042236328124 28.4 93.3591552734375 93.2" style="background: rgba(0, 0, 0, 0);" preserveAspectRatio="xMidYMid"><defs><filter id="editing-extrusion" x="-100%" y="-100%" width="300%" height="300%"><feFlood result="color1" flood-color="#444"></feFlood><feConvolveMatrix order="8,8" divisor="1" kernelMatrix="1 0 0 0 0 0 0 0 0 1 0 0 0 0 0 0 0 0 1 0 0 0 0 0 0 0 0 1 0 0 0 0 0 0 0 0 1 0 0 0 0 0 0 0 0 1 0 0 0 0 0 0 0 0 1 0 0 0 0 0 0 0 0 1" in="SourceAlpha" result="extrude"></feConvolveMatrix><feComposite in="color1" in2="extrude" result="comp-extrude" operator="in"></feComposite><feOffset dx="4" dy="4" in="comp-extrude" result="offset-extrude"></feOffset><feMerge><feMergeNode in="offset-extrude"></feMergeNode><feMergeNode in="SourceGraphic"></feMergeNode></feMerge></filter></defs><g filter="url(#editing-extrusion)"><g transform="translate(223.13750898838043, 88.89999866485596)"><path d="M2.25 0.21L2.25 0.21Q1.72 0.21 1.41 0.06L1.41 0.06L1.41 0.06Q1.11-0.08 1.11-0.29L1.11-0.29L1.11-0.29Q1.11-0.78 2.01-0.98L2.01-0.98L2.01-0.98Q3.69-1.31 4.51-1.97L4.51-1.97L4.51-1.97Q5.33-2.62 5.33-3.94L5.33-3.94L5.33-22.96L5.33-22.96Q5.33-23.94 5.13-24.42L5.13-24.42L5.13-24.42Q4.92-24.89 4.45-25.09L4.45-25.09L4.45-25.09Q3.98-25.30 2.83-25.50L2.83-25.50L2.83-25.50Q1.48-25.75 1.48-26.32L1.48-26.32L1.48-26.32Q1.48-26.77 2.67-26.77L2.67-26.77L2.67-26.77Q3.90-26.77 5.21-26.69L5.21-26.69L7.26-26.65L9.72-26.69L9.72-26.69Q11.28-26.77 12.42-26.77L12.42-26.77L12.42-26.77Q13.61-26.77 13.61-26.32L13.61-26.32L13.61-26.32Q13.61-25.75 12.26-25.50L12.26-25.50L12.26-25.50Q10.33-25.13 9.47-24.72L9.47-24.72L9.47-24.72Q8.61-24.31 8.61-23.25L8.61-23.25L8.61-3.94L8.61-3.94Q8.61-2.58 9.22-2.01L9.22-2.01L9.22-2.01Q9.84-1.44 11.77-1.44L11.77-1.44L16.85-1.44L16.85-1.44Q17.88-1.44 18.74-1.76L18.74-1.76L18.74-1.76Q19.60-2.09 20.05-2.50L20.05-2.50L20.05-2.50Q20.87-3.20 21.26-3.75L21.26-3.75L21.26-3.75Q21.65-4.31 22.18-5.41L22.18-5.41L22.18-5.41Q22.35-5.82 22.59-6.23L22.59-6.23L22.59-6.23Q22.84-6.64 23.08-6.64L23.08-6.64L23.08-6.64Q23.33-6.64 23.45-6.42L23.45-6.42L23.45-6.42Q23.57-6.19 23.57-5.90L23.57-5.90L23.53-5.70L23.53-5.70Q23.00-3.73 22.78-2.69L22.78-2.69L22.78-2.69Q22.55-1.64 22.43-0.49L22.43-0.49L22.43-0.49Q22.35 0.21 21.85 0.21L21.85 0.21L21.85 0.21Q17.47 0.21 13.78 0.08L13.78 0.08L13.78 0.08Q9.59 0 7.79 0L7.79 0L7.79 0Q6.52 0 4.67 0.08L4.67 0.08L4.67 0.08Q2.83 0.16 2.25 0.21L2.25 0.21ZM50.06 0.86L50.06 0.86Q48.18 0.86 46.80 0.37L46.80 0.37L46.80 0.37Q45.43-0.12 44.40-1.35L44.40-1.35L44.40-1.35Q42.52-3.69 41.29-5.35L41.29-5.35L41.29-5.35Q40.06-7.01 38.17-10.09L38.17-10.09L38.17-10.09Q37.56-11.11 36.41-11.69L36.41-11.69L36.41-11.69Q35.06-12.34 33.17-12.55L33.17-12.55L33.09-12.55L33.09-12.55Q32.55-12.55 32.55-11.73L32.55-11.73L32.55-4.51L32.55-4.51Q32.55-1.48 35.30-0.98L35.30-0.98L35.30-0.98Q36.00-0.86 36.33-0.70L36.33-0.70L36.33-0.70Q36.65-0.53 36.65-0.25L36.65-0.25L36.65-0.25Q36.65 0.21 35.47 0.21L35.47 0.21L35.47 0.21Q34.15 0.21 33.09 0.04L33.09 0.04L33.09 0.04Q32.35-0.08 31.45-0.08L31.45-0.08L31.45-0.08Q30.71-0.08 29.95-0.02L29.95-0.02L29.95-0.02Q29.19 0.04 28.86 0.04L28.86 0.04L28.86 0.04Q27.22 0.21 26.12 0.21L26.12 0.21L26.12 0.21Q24.93 0.21 24.93-0.25L24.93-0.25L24.93-0.25Q24.93-0.53 25.26-0.70L25.26-0.70L25.26-0.70Q25.58-0.86 26.28-0.98L26.28-0.98L26.28-0.98Q27.88-1.27 28.58-1.95L28.58-1.95L28.58-1.95Q29.27-2.62 29.27-4.10L29.27-4.10L29.27-21.57L29.27-21.57Q29.27-23.29 29.13-24.01L29.13-24.01L29.13-24.01Q28.99-24.72 28.47-25.05L28.47-25.05L28.47-25.05Q27.96-25.38 26.77-25.50L26.77-25.50L26.77-25.50Q26.12-25.54 25.77-25.79L25.77-25.79L25.77-25.79Q25.42-26.04 25.42-26.32L25.42-26.32L25.42-26.32Q25.42-26.77 26.61-26.77L26.61-26.77L26.61-26.77Q28.37-26.77 28.91-26.73L28.91-26.73L30.63-26.73L30.63-26.73Q31.24-26.73 32.47-26.81L32.47-26.81L32.47-26.81Q34.69-26.94 35.34-26.94L35.34-26.94L35.34-26.94Q39.85-26.94 42.21-25.24L42.21-25.24L42.21-25.24Q44.57-23.53 44.57-20.21L44.57-20.21L44.57-20.21Q44.57-15.79 39.73-13.33L39.73-13.33L39.73-13.33Q39.61-13.28 39.61-13.12L39.61-13.12L39.61-13.12Q39.61-13.00 39.73-12.79L39.73-12.79L39.73-12.79Q42.31-8.90 43.89-6.81L43.89-6.81L43.89-6.81Q45.47-4.71 48.05-2.38L48.05-2.38L48.05-2.38Q49.04-1.52 50.06-1.27L50.06-1.27L50.06-1.27Q51.09-1.03 52.77-1.03L52.77-1.03L52.77-1.03Q53.38-1.03 53.38-0.57L53.38-0.57L53.38-0.57Q53.38 0.21 52.30 0.53L52.30 0.53L52.30 0.53Q51.21 0.86 50.06 0.86L50.06 0.86ZM34.73-13.49L34.73-13.49Q36.53-13.49 37.95-14.33L37.95-14.33L37.95-14.33Q39.36-15.17 40.12-16.56L40.12-16.56L40.12-16.56Q40.88-17.96 40.88-19.56L40.88-19.56L40.88-19.56Q40.88-22.47 39.65-24.09L39.65-24.09L39.65-24.09Q38.42-25.71 34.85-25.71L34.85-25.71L34.85-25.71Q33.58-25.71 33.15-24.91L33.15-24.91L33.15-24.91Q32.72-24.11 32.64-21.89L32.64-21.89L32.64-21.89Q32.55-19.11 32.55-14.92L32.55-14.92L32.55-14.92Q32.55-13.98 33.05-13.74L33.05-13.74L33.05-13.74Q33.54-13.49 34.73-13.49L34.73-13.49Z" fill="#ccc"></path></g></g><style>text {
  font-size: 64px;
  font-family: Arial Black;
  dominant-baseline: central;
  text-anchor: middle;
}</style></svg>