<svg width="108.2730224609375px" height="129.2px" xmlns="http://www.w3.org/2000/svg" viewBox="195.86348876953124 10.400000000000006 108.2730224609375 129.2" style="background: rgba(0, 0, 0, 0);" preserveAspectRatio="xMidYMid"><defs><filter id="editing-extrusion" x="-100%" y="-100%" width="300%" height="300%"><feFlood result="color1" flood-color="#444444"></feFlood><feConvolveMatrix order="8,8" divisor="1" kernelMatrix="1 0 0 0 0 0 0 0 0 1 0 0 0 0 0 0 0 0 1 0 0 0 0 0 0 0 0 1 0 0 0 0 0 0 0 0 1 0 0 0 0 0 0 0 0 1 0 0 0 0 0 0 0 0 1 0 0 0 0 0 0 0 0 1" in="SourceAlpha" result="extrude"></feConvolveMatrix><feComposite in="color1" in2="extrude" result="comp-extrude" operator="in"></feComposite><feOffset dx="4" dy="4" in="comp-extrude" result="offset-extrude"></feOffset><feMerge><feMergeNode in="offset-extrude"></feMergeNode><feMergeNode in="SourceGraphic"></feMergeNode></feMerge></filter></defs><g filter="url(#editing-extrusion)"><g transform="translate(215.3113079071045, 94.52499961853027)"><path d="M4.01 0.59L4.37-2.12L4.37-2.12Q6.67-2.48 7.52-3.51L7.52-3.51L7.52-3.51Q8.38-4.54 8.38-7.08L8.38-7.08L8.44-31.86L8.44-31.86Q8.44-33.75 7.99-34.40L7.99-34.40L7.99-34.40Q7.55-35.05 6.25-35.05L6.25-35.05L6.25-35.05Q5.66-35.05 5.07-34.99L5.07-34.99L5.07-34.99Q4.48-34.93 4.25-34.93L4.25-34.93L4.13-35.16L4.54-37.76L4.54-37.76Q5.25-37.70 7.20-37.64L7.20-37.64L7.20-37.64Q9.15-37.58 11.15-37.58L11.15-37.58L11.15-37.58Q12.74-37.58 14.78-37.79L14.78-37.79L14.78-37.79Q16.82-38.00 17.46-38.11L17.46-38.11L17.23-35.46L17.23-35.46Q15.28-35.22 14.54-34.69L14.54-34.69L14.54-34.69Q13.81-34.16 13.66-33.45L13.66-33.45L13.66-33.45Q13.51-32.75 13.33-29.97L13.33-29.97L13.33-29.97Q12.98-24.96 12.80-18.53L12.80-18.53L12.80-18.53Q12.63-12.10 12.63-7.20L12.63-7.20L12.63-7.20Q12.63-5.07 12.98-4.16L12.98-4.16L12.98-4.16Q13.33-3.25 14.31-2.95L14.31-2.95L14.31-2.95Q15.28-2.66 17.64-2.66L17.64-2.66L17.64-2.66Q21.24-2.66 22.92-3.25L22.92-3.25L22.92-3.25Q24.60-3.84 25.46-5.55L25.46-5.55L25.46-5.55Q26.31-7.26 27.02-11.03L27.02-11.03L29.62-11.33L29.80-11.03L29.80-11.03Q29.62-10.09 29.06-6.79L29.06-6.79L29.06-6.79Q28.50-3.48 28.08 0.18L28.08 0.18L27.79 0.53L27.79 0.53Q26.08 0.41 20.74 0.21L20.74 0.21L20.74 0.21Q15.40 0 11.92 0L11.92 0L11.92 0Q9.15 0 6.87 0.24L6.87 0.24L6.87 0.24Q4.60 0.47 4.01 0.59L4.01 0.59ZM60.12 0.94L60.12 0.94Q58.65 0.94 56.96-0.56L56.96-0.56L56.96-0.56Q55.28-2.06 53.87-4.66L53.87-4.66L47.55-16.11L42.66-16.11L42.48-7.32L42.48-7.32Q42.48-5.07 42.77-4.10L42.77-4.10L42.77-4.10Q43.07-3.13 43.90-2.80L43.90-2.80L43.90-2.80Q44.72-2.48 46.73-2.48L46.73-2.48L46.85-2.24L46.31 0.24L46.31 0.24Q45.61 0.18 43.48 0.12L43.48 0.12L43.48 0.12Q41.36 0.06 39.06 0.06L39.06 0.06L39.06 0.06Q36.99 0.06 35.40 0.12L35.40 0.12L35.40 0.12Q33.81 0.18 33.28 0.24L33.28 0.24L33.81-2.42L33.81-2.42Q35.70-2.66 36.64-3.07L36.64-3.07L36.64-3.07Q37.58-3.48 37.94-4.40L37.94-4.40L37.94-4.40Q38.29-5.31 38.29-7.08L38.29-7.08L38.35-31.86L38.35-31.86Q38.35-33.75 37.91-34.40L37.91-34.40L37.91-34.40Q37.47-35.05 36.17-35.05L36.17-35.05L36.17-35.05Q35.58-35.05 34.99-34.99L34.99-34.99L34.99-34.99Q34.40-34.93 34.16-34.93L34.16-34.93L34.04-35.16L34.46-37.76L34.46-37.76Q35.16-37.70 37.11-37.64L37.11-37.64L37.11-37.64Q39.06-37.58 41.01-37.58L41.01-37.58L41.01-37.58Q43.01-37.58 45.22-37.67L45.22-37.67L45.22-37.67Q47.44-37.76 48.26-37.82L48.26-37.82L48.26-37.82Q53.75-37.82 56.94-35.34L56.94-35.34L56.94-35.34Q60.12-32.86 60.12-28.56L60.12-28.56L60.12-28.56Q60.12-25.02 57.85-22.07L57.85-22.07L57.85-22.07Q55.58-19.12 51.45-17.23L51.45-17.23L57.94-6.96L57.94-6.96Q59.65-4.13 61.27-3.04L61.27-3.04L61.27-3.04Q62.89-1.95 65.25-1.95L65.25-1.95L65.49-1.71L65.14 0.30L60.12 0.94ZM48.85-18.82L48.85-18.82Q48.85-18.64 50.62-19.59L50.62-19.59L50.62-19.59Q52.39-20.53 53.81-22.48L53.81-22.48L53.81-22.48Q55.22-24.43 55.22-27.49L55.22-27.49L55.22-27.49Q55.22-35.28 44.43-35.28L44.43-35.28L44.43-35.28Q43.84-35.28 43.63-35.02L43.63-35.02L43.63-35.02Q43.42-34.75 43.37-33.93L43.37-33.93L43.37-33.93Q42.83-24.90 42.77-19.41L42.77-19.41L48.85-18.82Z" fill="#ccc"></path></g></g><style>text {
  font-size: 64px;
  font-family: Arial Black;
  dominant-baseline: central;
  text-anchor: middle;
}</style></svg>