<?xml version="1.0" standalone="no"?>
<!DOCTYPE svg PUBLIC "-//W3C//DTD SVG 20010904//EN"
 "http://www.w3.org/TR/2001/REC-SVG-20010904/DTD/svg10.dtd">
<svg version="1.0" xmlns="http://www.w3.org/2000/svg"
 width="32.000000pt" height="32.000000pt" viewBox="0 0 32.000000 32.000000"
 preserveAspectRatio="xMidYMid meet">

<g transform="translate(0.000000,32.000000) scale(0.100000,-0.100000)"
fill="#000000" stroke="none">
<path d="M118 308 c-46 -12 -93 -64 -107 -116 -20 -72 25 -162 80 -162 37 0
38 21 4 62 -56 67 -13 168 72 168 48 0 81 -22 99 -66 29 -70 -7 -146 -81 -172
-29 -10 -29 -10 -5 -11 65 -2 130 73 130 150 0 102 -94 174 -192 147z"/>
</g>
</svg>
