<?xml version="1.0" standalone="yes"?>
<svg xmlns="http://www.w3.org/2000/svg" width="108" height="129">
<path style="fill:#020202; stroke:none;" d="M0 0L0 129L108 129L108 0L0 0z"/>
<path style="fill:#f7f7f7; stroke:none;" d="M15 39L15 53L21 52L20 74L15 74L15 88L28 82.4336L43.4113 81.9722L50 68C51.0668 71.9114 53.9413 76.2711 50 79C51.4498 84.1037 61.5304 84.2461 63 79C60.2578 77.398 56.2824 66.6217 62.044 67.6312C71.7115 69.325 64.8797 87.5506 78.9105 82.7716C80.6535 82.1779 81.9453 81.1798 83.2269 79.8765C84.6954 78.3832 85.8236 76.7144 87 75C80.6612 76.6036 69.4238 76.8906 70.8418 66C71.3274 62.2707 75.2863 59.6595 76.3318 56C77.8881 50.5524 74.327 46.5029 79 42L79 41L45 39L49 65C38.7262 65.3364 42.8214 76.4018 34.9715 78.2485C28.9131 79.6736 29.3193 71.5127 29.7153 68C30.3074 62.7469 28.6461 56.0011 30.6034 51.054C32.8071 45.4842 38.4845 44.8324 39 38L15 39z"/>
<path style="fill:#282828; stroke:none;" d="M39 42L35 48L41 48L37.4823 60.0147L37 77L38 77C41.3426 68.2852 47.686 57.2578 46 48L39 42z"/>
<path style="fill:#606060; stroke:none;" d="M77 42L78 43L77 42M38 43L39 44L38 43z"/>
<path style="fill:#9d9d9d; stroke:none;" d="M76 43L76 46L77 46L76 43z"/>
<path style="fill:#282828; stroke:none;" d="M77 43C77.6445 55.5574 89.9435 62.0883 76 72C78.3949 76.3289 81.5522 75.5465 86 75L86 74L84 73L89 56L85.2029 48.5448L77 43z"/>
<path style="fill:#606060; stroke:none;" d="M37 44L38 45L37 44z"/>
<path style="fill:#9d9d9d; stroke:none;" d="M36 45L37 46L36 45M35 46L36 47L35 46z"/>
<path style="fill:#606060; stroke:none;" d="M76 46C76.6188 49.6571 78.3497 53.3199 76.9753 57C75.7144 60.3763 71.6707 63.2038 71.8272 67C72.0701 72.8945 77.5705 78.2234 83 76L83 75L76 72C88.5151 66.1104 82.7016 54.2535 76 46z"/>
<path style="fill:#9d9d9d; stroke:none;" d="M37 79L37 78C27.7514 76.0714 28.7933 53.9872 34 48C29.1618 47.8854 30.0018 54.478 30 58C29.9958 66.14 25.4653 78.6223 37 79z"/>
<path style="fill:#606060; stroke:none;" d="M38 78L41 48C38.584 47.9181 34.8231 47.0159 32.858 48.8318C26.8441 54.3892 29.1119 77.5076 38 78z"/>
<path style="fill:#9d9d9d; stroke:none;" d="M45 47L46 48L45 47M69 58L68 58L61 61L62 48L70 55C71.2349 50.3386 63.3156 44.2968 60.6034 49.4483C56.9022 56.4783 63.5764 68.7457 69 58M75.3333 47.6667L75.6667 48.3333L75.3333 47.6667z"/>
<path style="fill:#606060; stroke:none;" d="M62 48L61 61C65.5961 60.8495 68.1876 59.9995 68 55C73.2909 54.0609 64.2438 48.5315 62 48z"/>
<path style="fill:#9d9d9d; stroke:none;" d="M76.3333 49.6667L76.6667 50.3333L76.3333 49.6667M46 50L47 51L46 50M77 51L70 68C73.8428 63.2792 79.6302 57.4635 77 51M18 52L19 74L20 74L21 52L18 52z"/>
<path style="fill:#020202; stroke:none;" d="M47 53L43 65L49 65L49 53L47 53z"/>
<path style="fill:#282828; stroke:none;" d="M68.3333 55.6667L68.6667 56.3333L68.3333 55.6667z"/>
<path style="fill:#9d9d9d; stroke:none;" d="M69 56L70 57L69 56z"/>
<path style="fill:#282828; stroke:none;" d="M67 57L68 58L67 57z"/>
<path style="fill:#9d9d9d; stroke:none;" d="M63 79C61.0066 83.743 51.8131 83.9317 50 79L53 75L52 75C51.1304 76.7651 48.5472 79.6404 49.341 81.7215C50.6456 85.1415 61.0375 85.0311 62.9144 82.2577C64.6907 79.6329 60.3628 71.9463 61 68L63 68L67 76C70.9945 58.9139 48.4471 73.8827 63 79z"/>
<path style="fill:#606060; stroke:none;" d="M41 67L42 68L41 67z"/>
<path style="fill:#9d9d9d; stroke:none;" d="M49 68C46.2855 71.7593 46.4736 79.4845 42.686 81.9722C34.6183 87.2709 26.3897 78.2135 19 88L44.4861 82.9722L49 68z"/>
<path style="fill:#606060; stroke:none;" d="M61 68C60.1221 71.8331 64.0659 79.969 62.2523 82.2577C59.208 86.0995 45.8659 84.1449 52 78L52 76L50 69L49 69L45.142 81.6821L22 85L22 86L69 87L63 68L61 68z"/>
<path style="fill:#9d9d9d; stroke:none;" d="M71 68L75 76L76 76L71 68z"/>
<path style="fill:#606060; stroke:none;" d="M40 69L41 70L40 69z"/>
<path style="fill:#9d9d9d; stroke:none;" d="M50 70L51 71L50 70z"/>
<path style="fill:#282828; stroke:none;" d="M49 71L52 76L51 71L49 71z"/>
<path style="fill:#606060; stroke:none;" d="M39.3333 72.6667L39.6667 73.3333L39.3333 72.6667z"/>
<path style="fill:#9d9d9d; stroke:none;" d="M51 72L52 73L51 72z"/>
<path style="fill:#282828; stroke:none;" d="M87 72L88 73L87 72z"/>
<path style="fill:#606060; stroke:none;" d="M51 73L52 74L51 73z"/>
<path style="fill:#9d9d9d; stroke:none;" d="M39 74L40 75L39 74M83 75L84 76L83 75M38 76L39 77L38 76M76 76L77 77L76 76M82 76L83 77L82 76M86 76L82 81L86 76z"/>
<path style="fill:#282828; stroke:none;" d="M87 76L86 87L73 86L75 92L91 92C91 85.9427 92.0336 80.1927 87 76z"/>
<path style="fill:#9d9d9d; stroke:none;" d="M77 77L78 78L77 77M80.6667 77.3333L81.3333 77.6667L80.6667 77.3333z"/>
<path style="fill:#606060; stroke:none;" d="M86 77L85 80L86 77z"/>
<path style="fill:#282828; stroke:none;" d="M67 78L68 86L72 86L67 78z"/>
<path style="fill:#9d9d9d; stroke:none;" d="M68 78L69 79L68 78M78.6667 78.3333L79.3333 78.6667L78.6667 78.3333z"/>
<path style="fill:#606060; stroke:none;" d="M68 79L69 80L68 79M84 80L85 81L84 80z"/>
<path style="fill:#9d9d9d; stroke:none;" d="M69 81L70 82L69 81z"/>
<path style="fill:#606060; stroke:none;" d="M82 81C78.8555 84.2228 75.3734 84.4851 71 84L71 85L86 87L84 81L82 81z"/>
<path style="fill:#9d9d9d; stroke:none;" d="M81 82L82 83L81 82z"/>
<path style="fill:#606060; stroke:none;" d="M70 83L71 84L70 83z"/>
<path style="fill:#9d9d9d; stroke:none;" d="M75 83L75 84L81 84L75 83M72 84L72 85L75 85L72 84z"/>
<path style="fill:#282828; stroke:none;" d="M19 92L71 92L70 86C58.6008 88.7139 44.7468 87.074 33 86.9992C26.814 86.9599 20.2873 83.8654 19 92z"/>
</svg>
