<?xml version="1.0" standalone="no"?>
<!DOCTYPE svg PUBLIC "-//W3C//DTD SVG 20010904//EN"
 "http://www.w3.org/TR/2001/REC-SVG-20010904/DTD/svg10.dtd">
<svg version="1.0" xmlns="http://www.w3.org/2000/svg"
 width="173.000000pt" height="175.000000pt" viewBox="0 0 173.000000 175.000000"
 preserveAspectRatio="xMidYMid meet">

<g transform="translate(0.000000,175.000000) scale(0.100000,-0.100000)"
fill="#000000" stroke="none">
<path d="M120 1741 c-50 -5 -55 -8 -58 -32 -2 -19 5 -33 25 -50 28 -24 63
-107 63 -150 0 -12 7 -30 16 -40 9 -10 19 -33 23 -51 5 -25 13 -34 31 -36 22
-4 60 -36 60 -52 0 -4 -11 -12 -24 -18 -20 -9 -29 -7 -49 9 -14 10 -32 19 -41
19 -9 0 -21 11 -26 25 -10 27 -66 55 -111 55 -27 0 -29 -3 -29 -40 0 -43 13
-50 52 -29 11 6 31 8 45 4 20 -5 23 -8 13 -20 -7 -8 -23 -15 -36 -15 -31 0
-76 -46 -72 -73 2 -14 14 -25 33 -31 40 -14 39 -11 25 -46 -11 -27 -11 -32 6
-45 11 -8 33 -15 50 -15 23 0 34 -6 43 -26 9 -22 16 -25 40 -19 17 3 32 2 36
-4 3 -6 17 -11 30 -11 13 0 26 -4 30 -10 3 -5 26 -9 51 -8 52 1 62 -5 44 -27
-10 -12 -31 -16 -90 -14 -42 1 -86 -3 -97 -10 -12 -6 -33 -11 -47 -11 -16 0
-27 -7 -31 -21 -5 -16 -12 -19 -31 -15 -25 7 -29 0 -15 -23 9 -14 51 -7 51 10
0 5 11 9 24 9 18 0 25 -6 28 -22 2 -16 13 -26 36 -33 22 -6 32 -15 32 -30 0
-41 16 -51 143 -91 26 -8 45 -19 42 -24 -4 -6 3 -10 14 -10 27 0 27 -25 0 -43
-20 -14 -19 -15 19 -22 22 -3 43 -12 45 -20 3 -7 19 -20 36 -28 l31 -15 0 36
c0 45 12 65 35 60 19 -3 21 -6 56 -87 29 -66 110 -141 186 -173 29 -12 53 -26
53 -31 0 -12 80 2 106 18 l20 13 -16 -87 c-9 -47 -23 -103 -29 -124 -14 -41
-8 -73 10 -61 7 4 9 3 6 -2 -3 -6 -2 -16 3 -24 11 -17 51 66 73 153 13 49 13
59 0 84 -17 34 -9 73 15 73 12 0 25 -17 40 -49 20 -47 21 -52 6 -103 -9 -29
-23 -62 -32 -73 -17 -20 -17 -20 6 -1 36 31 71 104 82 172 6 34 14 73 19 86
l9 23 9 -25 c5 -14 8 -53 7 -87 -3 -60 -1 -63 29 -85 18 -12 33 -26 35 -29 2
-4 27 -23 55 -41 29 -18 62 -43 73 -55 12 -13 27 -23 34 -23 18 0 91 -60 85
-70 -3 -5 -1 -11 5 -15 15 -9 12 -22 -7 -29 -10 -3 -25 -9 -33 -12 -8 -4 -4 3
10 14 14 12 21 21 16 22 -5 0 -20 -12 -34 -27 -14 -16 -27 -26 -28 -23 -1 3
-5 2 -9 -1 -3 -4 53 -8 124 -8 l131 -2 0 876 0 875 -777 -2 c-428 -1 -803 -4
-833 -7z m130 -175 c-13 -13 -35 7 -25 24 5 8 11 8 21 -1 10 -8 12 -15 4 -23z
m695 -66 c13 -6 -4 -7 -45 -3 -77 6 -230 -27 -262 -57 -19 -17 -19 -18 -1 -29
10 -6 13 -11 6 -11 -6 0 -15 5 -18 10 -8 13 -32 0 -76 -40 -18 -18 -41 -34
-51 -35 -17 -4 -16 -1 4 24 13 16 39 37 58 47 19 11 44 29 56 41 39 42 270 79
329 53z m112 -28 c12 -7 25 -21 28 -32 3 -11 13 -20 21 -20 8 0 12 -4 9 -10
-10 -16 -23 -12 -30 10 -4 11 -10 18 -15 15 -5 -3 -14 4 -20 15 -6 11 -19 20
-28 20 -10 0 -27 6 -38 14 -17 14 -16 14 16 7 20 -4 45 -13 57 -19z m-204 1
c-7 -2 -19 -2 -25 0 -7 3 -2 5 12 5 14 0 19 -2 13 -5z m-60 -10 c-7 -2 -19 -2
-25 0 -7 3 -2 5 12 5 14 0 19 -2 13 -5z m-49 -18 c3 -8 1 -15 -4 -15 -6 0 -10
7 -10 15 0 8 2 15 4 15 2 0 6 -7 10 -15z m251 -5 c47 0 181 -119 199 -177 4
-13 12 -23 17 -23 5 0 8 -3 7 -7 -1 -5 11 -33 25 -63 22 -46 32 -56 63 -65 32
-9 41 -18 57 -57 12 -30 16 -54 11 -65 -6 -14 -9 -11 -12 15 -3 27 -7 32 -20
27 -9 -4 -30 -11 -47 -14 -27 -6 -30 -10 -27 -42 2 -18 5 -88 6 -154 2 -96 -1
-133 -16 -183 -11 -35 -17 -70 -14 -77 10 -26 -38 -55 -97 -59 -31 -3 -61 -7
-66 -10 -5 -4 -12 -2 -16 4 -3 5 -19 10 -35 10 -16 0 -35 6 -42 13 -23 23 -55
37 -87 37 -17 0 -31 4 -31 9 0 19 -32 41 -59 41 -20 0 -39 13 -69 47 -23 25
-42 53 -42 62 -3 126 -6 153 -18 160 -19 12 -22 149 -3 160 9 6 10 11 2 15
-14 9 -14 71 1 99 6 12 20 30 32 40 17 15 18 20 6 27 -13 8 -13 10 -1 10 12 0
12 3 3 12 -9 9 -9 15 0 26 9 10 9 15 -2 22 -8 5 -18 6 -23 3 -5 -3 -4 5 3 17
6 12 9 24 6 28 -10 9 -37 11 -31 2 3 -5 -3 -8 -12 -8 -10 1 -36 -2 -58 -5 -38
-6 -38 -6 -8 3 21 7 30 15 27 24 -5 14 23 25 83 32 18 3 43 9 55 14 18 8 15 9
-17 4 l-40 -5 34 16 c26 12 53 14 114 10 66 -5 78 -4 69 7 -8 11 -7 14 8 14
10 0 16 -4 14 -8 -6 -10 -1 -10 20 -2 8 3 14 11 12 17 -1 7 -1 9 1 5 3 -5 10
-8 18 -8z m-282 -7 c3 -5 -10 -8 -28 -8 -18 0 -31 3 -28 8 2 4 15 7 28 7 13 0
26 -3 28 -7z m-38 -43 c3 -5 1 -10 -4 -10 -6 0 -11 5 -11 10 0 6 2 10 4 10 3
0 8 -4 11 -10z m-309 -26 c-4 -9 -1 -23 5 -30 8 -10 8 -14 1 -14 -12 0 -32 31
-32 49 0 6 7 11 16 11 11 0 14 -5 10 -16z m244 12 c0 -2 -7 -7 -16 -10 -8 -3
-12 -2 -9 4 6 10 25 14 25 6z m554 -22 c10 -14 16 -29 14 -34 -2 -5 -13 6 -26
25 -12 19 -18 35 -13 35 5 0 16 -12 25 -26z m-648 -64 c-25 -23 -43 -47 -39
-53 3 -6 1 -7 -6 -3 -13 8 21 64 45 73 7 3 16 14 20 25 4 13 9 17 16 10 7 -7
-6 -24 -36 -52z m-326 20 c0 -5 -9 -10 -21 -10 -11 0 -17 5 -14 10 3 6 13 10
21 10 8 0 14 -4 14 -10z m261 -93 c-8 -8 -11 -3 -11 19 1 25 2 27 11 11 8 -14
8 -22 0 -30z m-281 -17 c0 -5 -4 -10 -10 -10 -5 0 -10 5 -10 10 0 6 5 10 10
10 6 0 10 -4 10 -10z m390 -120 c0 -5 -4 -10 -10 -10 -5 0 -10 5 -10 10 0 6 5
10 10 10 6 0 10 -4 10 -10z m5 -95 c11 -2 23 -4 28 -4 4 -1 7 -12 7 -26 0 -15
6 -25 14 -25 14 0 21 -27 32 -120 3 -25 10 -49 15 -55 5 -5 9 -13 9 -19 0 -5
-10 2 -21 15 -15 16 -23 20 -26 12 -3 -7 -18 -13 -35 -13 -36 0 -91 37 -84 56
3 8 0 13 -6 11 -6 -1 -13 4 -16 12 -3 8 0 11 7 7 8 -5 8 0 1 19 -14 38 -12 85
4 91 8 3 23 -2 34 -12 21 -17 21 -18 1 -42 -10 -14 -19 -30 -19 -36 0 -6 4 -5
9 3 5 8 18 15 28 16 15 1 19 -4 15 -21 -3 -15 3 -26 18 -34 28 -15 37 -6 15
16 -12 12 -15 27 -12 51 3 18 1 35 -4 38 -5 4 -9 0 -9 -7 -1 -7 -7 -1 -16 14
-18 34 -48 51 -75 43 -18 -6 -20 -13 -17 -48 3 -23 8 -51 12 -62 5 -11 -1 -6
-13 10 -25 36 -27 87 -4 110 12 13 25 15 52 10 20 -4 45 -8 56 -10z m749 -18
c-9 -24 -23 -11 -17 14 3 12 9 17 15 11 5 -5 6 -16 2 -25z m-1044 -9 c0 -16
-31 -48 -47 -48 -19 0 -16 13 7 38 23 24 40 29 40 10z m1090 -6 c0 -13 -40
-52 -53 -52 -6 0 -1 7 11 16 12 8 22 22 22 30 0 8 5 14 10 14 6 0 10 -4 10 -8z"/>
<path d="M514 1358 l-19 -23 23 19 c21 18 27 26 19 26 -2 0 -12 -10 -23 -22z"/>
<path d="M968 1125 c-10 -17 -9 -18 4 -8 8 7 18 10 21 6 4 -3 7 -2 7 3 0 11
63 12 71 1 8 -11 49 -17 49 -8 0 20 -31 31 -84 29 -46 -2 -60 -6 -68 -23z"/>
<path d="M1208 1109 c-10 -10 -18 -23 -18 -29 0 -5 -4 -10 -10 -10 -15 0 -12
-36 5 -50 8 -7 15 -18 15 -26 0 -7 4 -15 9 -18 4 -3 5 12 1 34 -6 34 -4 44 16
68 35 40 17 70 -18 31z"/>
<path d="M920 1094 c29 -13 35 -44 9 -44 -6 0 -7 5 -4 10 10 16 -11 12 -25 -5
-10 -12 -6 -16 22 -23 26 -7 36 -5 45 7 7 9 13 12 13 7 0 -5 7 -3 15 4 13 11
18 11 28 0 10 -10 9 -12 -5 -7 -10 4 -18 2 -18 -3 0 -11 3 -12 43 -15 15 -1
27 2 27 6 0 17 29 8 44 -13 11 -16 16 -18 16 -7 0 22 -21 46 -49 54 -18 5 -22
4 -16 -6 6 -9 3 -10 -11 -4 -10 4 -32 10 -49 13 -16 3 -32 8 -35 13 -3 4 -19
10 -35 13 -17 3 -23 3 -15 0z"/>
<path d="M1117 1079 c4 -13 8 -18 11 -10 2 7 -1 18 -6 23 -8 8 -9 4 -5 -13z"/>
<path d="M860 1080 c0 -5 9 -10 20 -10 11 0 20 5 20 10 0 6 -9 10 -20 10 -11
0 -20 -4 -20 -10z"/>
<path d="M1030 1080 c0 -5 5 -10 10 -10 6 0 10 5 10 10 0 6 -4 10 -10 10 -5 0
-10 -4 -10 -10z"/>
<path d="M1081 858 c-1 -18 6 -31 20 -38 28 -16 33 -8 10 16 -10 11 -21 26
-24 34 -3 9 -6 3 -6 -12z"/>
<path d="M1130 850 c0 -15 7 -20 24 -20 14 0 28 -5 31 -10 4 -7 13 -7 25 0 11
6 25 9 32 8 7 -2 14 7 16 20 4 28 -9 28 -27 0 l-14 -22 -17 22 c-24 29 -70 30
-70 2z"/>
<path d="M1103 717 c-39 -13 -41 -18 -8 -33 18 -9 24 -9 22 0 -2 11 38 14 103
5 25 -3 35 0 38 11 2 11 -8 15 -40 16 -24 1 -52 4 -63 6 -11 3 -35 1 -52 -5z"/>
<path d="M1140 660 c10 -6 11 -10 3 -10 -27 0 -11 -19 21 -25 39 -8 72 0 79
18 3 9 -5 13 -27 13 -17 0 -44 4 -61 7 -22 6 -26 5 -15 -3z"/>
<path d="M0 831 c0 -10 8 -21 18 -25 9 -3 23 -9 30 -12 8 -4 12 4 12 25 0 28
-3 31 -30 31 -23 0 -30 -5 -30 -19z"/>
<path d="M385 729 c-4 -6 -5 -13 -2 -16 7 -7 27 6 27 18 0 12 -17 12 -25 -2z"/>
<path d="M156 515 c-9 -9 -17 -11 -21 -6 -11 19 -35 -1 -34 -28 0 -27 17 -75
18 -53 1 6 10 12 22 12 11 0 17 5 14 10 -3 6 3 10 13 10 11 0 23 7 26 16 3 8
10 13 15 10 5 -3 13 0 19 7 22 27 -45 48 -72 22z"/>
<path d="M0 466 c0 -34 5 -56 13 -59 10 -4 10 -6 0 -6 -7 -1 -13 -7 -13 -15 0
-8 6 -17 13 -19 10 -4 10 -6 0 -6 -15 -1 -18 -101 -4 -101 5 0 11 3 13 8 2 4
22 15 46 24 32 13 45 14 55 5 16 -16 77 -19 93 -6 28 23 95 -28 135 -104 11
-21 25 -40 32 -43 16 -6 20 -50 6 -76 -6 -11 -8 -31 -5 -44 l6 -24 210 0 209
0 -19 44 -19 44 42 -27 c68 -45 124 -63 147 -49 37 24 31 36 -18 35 -26 0 -56
5 -67 12 -18 11 -15 12 18 7 20 -3 35 -1 32 3 -3 5 12 12 33 16 l37 8 -60 13
c-85 20 -133 43 -142 69 -16 45 -83 108 -168 157 -130 75 -192 81 -380 42 -30
-7 -60 -10 -103 -13 -13 0 -34 -12 -47 -25 -21 -21 -25 -22 -31 -7 -16 35 -13
63 7 68 10 3 19 11 19 19 0 8 -6 11 -17 7 -15 -5 -16 -3 -5 8 6 7 12 27 12 45
0 24 -5 33 -22 38 -53 14 -58 10 -58 -48z m453 -120 c-4 -6 -8 -17 -9 -24 -4
-25 -13 -25 -19 1 -8 31 0 48 20 41 8 -4 12 -11 8 -18z m135 -18 c72 -36 112
-72 112 -102 0 -12 7 -31 15 -42 21 -27 18 -35 -7 -25 -13 5 -25 8 -28 8 -17
-1 -50 16 -50 26 0 7 -4 6 -10 -3 -9 -13 -10 -13 -10 0 0 13 -1 13 -10 0 -15
-22 -12 -30 13 -40 12 -5 15 -9 7 -9 -25 -1 -62 34 -63 61 -2 18 -6 24 -17 20
-13 -5 -13 -4 0 13 14 17 13 18 -2 12 -10 -3 -17 -3 -17 1 4 26 -3 41 -16 36
-8 -4 -15 -1 -15 4 0 6 -7 18 -16 26 -10 10 -13 24 -9 37 8 26 32 21 123 -23z
m39 -204 c-3 -3 -12 -4 -19 -1 -8 3 -5 6 6 6 11 1 17 -2 13 -5z m38 -14 c4 -6
-12 -9 -42 -9 l-48 2 40 7 c22 4 41 8 42 9 1 0 5 -3 8 -9z m55 -35 c7 -8 1
-12 -21 -12 -18 0 -25 3 -17 8 7 5 -8 9 -37 12 -49 3 -49 4 8 4 32 0 62 -6 67
-12z m-117 -12 c-7 -2 -21 -2 -30 0 -10 3 -4 5 12 5 17 0 24 -2 18 -5z m185
-48 c-3 -3 -9 2 -12 12 -6 14 -5 15 5 6 7 -7 10 -15 7 -18z"/>
<path d="M485 329 c6 -31 16 -37 45 -29 25 8 25 8 -7 15 -18 4 -30 11 -28 16
3 4 1 10 -4 14 -6 3 -8 -4 -6 -16z"/>
<path d="M360 506 c0 -2 11 -6 25 -8 13 -3 22 -1 19 3 -5 9 -44 13 -44 5z"/>
<path d="M1222 269 c-7 -20 -22 -45 -32 -54 -11 -10 -20 -24 -20 -31 0 -8 -12
-21 -27 -31 -16 -10 -34 -23 -40 -29 -7 -7 -18 -14 -24 -16 -9 -3 -9 -14 1
-43 20 -62 27 -65 139 -65 l101 0 0 30 c0 17 -4 30 -9 30 -5 0 -23 28 -39 63
-22 44 -32 79 -34 122 l-3 60 -13 -36z"/>
<path d="M93 83 c8 -12 -30 -30 -40 -19 -3 3 -12 -2 -19 -12 -8 -10 -13 -12
-14 -4 0 27 -20 10 -20 -18 l0 -30 95 0 c86 0 95 2 95 19 0 10 -7 24 -15 31
-8 7 -15 19 -15 26 0 8 -4 14 -10 14 -5 0 -10 -7 -10 -15 0 -13 -4 -13 -27 2
-15 10 -24 13 -20 6z"/>
</g>
</svg>
