<?xml version="1.0" standalone="yes"?>
<svg xmlns="http://www.w3.org/2000/svg" width="115" height="113">
<path style="fill:#040404; stroke:none;" d="M0 0L0 113L115 113L115 0L0 0z"/>
<path style="fill:#171719; stroke:none;" d="M55 6L57 8L62 8L61 5L64 5L64 3L55 6z"/>
<path style="fill:#272829; stroke:none;" d="M61 5L61 6L64 6L64 5L61 5z"/>
<path style="fill:#f3fff9; stroke:none;" d="M62 5L63 6L62 5z"/>
<path style="fill:#171719; stroke:none;" d="M52 6L53 7L52 6z"/>
<path style="fill:#272829; stroke:none;" d="M55 6L57 8L57 6L55 6z"/>
<path style="fill:#040404; stroke:none;" d="M57 6L58 7L57 6z"/>
<path style="fill:#171719; stroke:none;" d="M55 7L56 8L55 7z"/>
<path style="fill:#272829; stroke:none;" d="M59 7L60 8L59 7z"/>
<path style="fill:#171719; stroke:none;" d="M44 15L47 17L44 20L47 19L48 22C44.2483 23.0054 40.1536 24.0394 39 28C46.7953 24.8651 63.4235 14.0679 71 21L77 25L81 23L81 27C83.8208 26.8993 84.0747 28.3853 84 31L87 30L87 32L91 31L92 36L89 38L92 38L93 34L96 34L94 36L95 50L98 71L95 72L98 73L98 74L94 81L87 84L86 88L89 89L89 91L86 92L88 97L89 97L88 93C91.5773 97.592 87.002 100.671 83 103L84 108L85 108L85 103L86 103L87 106L88 106L88 103L92 103L94 99L93 101L94 101L102 90L96 91L95 93L94 93L93 96L93 93C88.6795 93 93.1662 89.7434 95 89L103 64L105 65L107 58L108 58L111 62L111 61L111 60L109 56L110 56L111 58L111 51L110 51L110 55L109 55L109 47L106 48L104 43L103 43L104 46L102 42L96 38L94 32L95 29L92 30L92 23L95 27L96 27L94 23L100 24C96.1409 17.6856 88.0541 14.6171 81 13L91 22C76.7532 14.9128 59.3484 2.75595 44 15z"/>
<path style="fill:#040404; stroke:none;" d="M66 14L67 15L66 14M68.6667 14.3333L69.3333 14.6667L68.6667 14.3333z"/>
<path style="fill:#171719; stroke:none;" d="M26 19L30 15L26 19z"/>
<path style="fill:#040404; stroke:none;" d="M47 15L48 16L47 15M52 15L53 16L52 15z"/>
<path style="fill:#171719; stroke:none;" d="M25 26L32 23L17 43L19 37L14 41L12 38L12 37L15 34L9 35L3 56L5 55L2 69L8 68L11 71L13 84L9 83C11.0475 88.2233 15.0177 90.75 20 93C19.8967 99.9309 28.2543 104.489 34 107L27 98L31 98L34 94L31 89L28 90L18 66C20.7135 66 20.3834 64.616 20 62L22 63L22 62C22.3573 57.9126 23.5716 53.8892 20 51L20 50L25 39L26 39L25 44L28 37L38 27L33 21L36 22L41 16L25 26z"/>
<path style="fill:#040404; stroke:none;" d="M73.6667 16.3333L74.3333 16.6667L73.6667 16.3333M55 17L55 19L57 19L55 17M59 17L60 18L59 17M77 17L78 18L77 17z"/>
<path style="fill:#171719; stroke:none;" d="M20 18L19 22L23 23L24 22L20 18z"/>
<path style="fill:#272829; stroke:none;" d="M25 18L25 21L27 20L27 19L25 18M39 18L40 19L39 18z"/>
<path style="fill:#040404; stroke:none;" d="M79 18L79 19L84 22L79 18z"/>
<path style="fill:#171719; stroke:none;" d="M24.3333 19.6667L24.6667 20.3333L24.3333 19.6667z"/>
<path style="fill:#040404; stroke:none;" d="M53 19L54 20L53 19z"/>
<path style="fill:#272829; stroke:none;" d="M36 20L37 21L36 20z"/>
<path style="fill:#040404; stroke:none;" d="M48.6667 20.3333L49.3333 20.6667L48.6667 20.3333M21 21L22 22L21 21z"/>
<path style="fill:#272829; stroke:none;" d="M33 21L35 23L35 21L33 21z"/>
<path style="fill:#040404; stroke:none;" d="M77 21L78 22L77 21z"/>
<path style="fill:#272829; stroke:none;" d="M21 22L22 23L21 22M32 22L33 23L32 22z"/>
<path style="fill:#040404; stroke:none;" d="M91 22L92 23L91 22z"/>
<path style="fill:#272829; stroke:none;" d="M17 43L32 23C24.0109 26.5928 18.9672 34.6989 17 43z"/>
<path style="fill:#040404; stroke:none;" d="M92 23L92 25L94 25L92 23M84 24L84 26L86 26L84 24z"/>
<path style="fill:#272829; stroke:none;" d="M93 25L94 26L93 25z"/>
<path style="fill:#171719; stroke:none;" d="M100 25L101 26L100 25z"/>
<path style="fill:#040404; stroke:none;" d="M89 26L91 29L89 26M35 27L34 29L35 27z"/>
<path style="fill:#272829; stroke:none;" d="M40 27L41 28L40 27z"/>
<path style="fill:#040404; stroke:none;" d="M86 27L89 30L86 27z"/>
<path style="fill:#171719; stroke:none;" d="M24 28L25 29L24 28M103 28L104 29L103 28M23 29L19 32L19 33L23 29z"/>
<path style="fill:#272829; stroke:none;" d="M33 29L34 30L33 29M20.6667 30.3333L21.3333 30.6667L20.6667 30.3333z"/>
<path style="fill:#040404; stroke:none;" d="M32 30L33 31L32 30M26 31L27 32L26 31M31 31L32 32L31 31z"/>
<path style="fill:#272829; stroke:none;" d="M26 32L27 33L26 32z"/>
<path style="fill:#040404; stroke:none;" d="M30 32L31 33L30 32z"/>
<path style="fill:#171719; stroke:none;" d="M10 33L11 34L10 33z"/>
<path style="fill:#272829; stroke:none;" d="M25 33L26 34L25 33z"/>
<path style="fill:#040404; stroke:none;" d="M29 33L27 35L27 36L29 33z"/>
<path style="fill:#171719; stroke:none;" d="M89 33L90 34L89 33M11 34L12 35L11 34z"/>
<path style="fill:#272829; stroke:none;" d="M28 34L29 35L28 34M12 35L13 36L12 35z"/>
<path style="fill:#171719; stroke:none;" d="M19 35L20 36L19 35z"/>
<path style="fill:#040404; stroke:none;" d="M23 35L24 36L23 35M10 37L11 38L10 37z"/>
<path style="fill:#272829; stroke:none;" d="M28.6667 37.3333L29.3333 37.6667L28.6667 37.3333z"/>
<path style="fill:#040404; stroke:none;" d="M97 38L98 39L97 38M10 40L11 41L10 40M98 41L99 42L98 41M11 42L9 46L11 42z"/>
<path style="fill:#272829; stroke:none;" d="M27 42L28 43L27 42z"/>
<path style="fill:#171719; stroke:none;" d="M107.333 43.6667L107.667 44.3333L107.333 43.6667z"/>
<path style="fill:#040404; stroke:none;" d="M12.3333 46.6667L12.6667 47.3333L12.3333 46.6667z"/>
<path style="fill:#171719; stroke:none;" d="M110 46L110 50L111 50L110 46z"/>
<path style="fill:#040404; stroke:none;" d="M102 47L103 48L102 47M10 48L10 50L12 50L10 48z"/>
<path style="fill:#272829; stroke:none;" d="M15 49L16 50L15 49z"/>
<path style="fill:#171719; stroke:none;" d="M90 50L92 52L90 50z"/>
<path style="fill:#272829; stroke:none;" d="M4 51L5 52L4 51z"/>
<path style="fill:#040404; stroke:none;" d="M9 51L10 52L9 51z"/>
<path style="fill:#272829; stroke:none;" d="M14.3333 51.6667L14.6667 52.3333L14.3333 51.6667M90 51L90 53L92 53L90 51M6 53L7 54L6 53M4 55L3 60L4 55z"/>
<path style="fill:#171719; stroke:none;" d="M90.6667 55.3333L91.3333 55.6667L90.6667 55.3333z"/>
<path style="fill:#272829; stroke:none;" d="M90 56L90 57L93 58L90 56z"/>
<path style="fill:#171719; stroke:none;" d="M91 57L92 58L91 57M3 58L4 59L3 58z"/>
<path style="fill:#272829; stroke:none;" d="M8 58L9 59L8 58z"/>
<path style="fill:#040404; stroke:none;" d="M21 58L22 59L21 58M12 59L13 60L12 59M12 64L13 65L12 64M3 65L4 66L3 65M13 66L14 67L13 66z"/>
<path style="fill:#171719; stroke:none;" d="M21 66L23 68L23 66L21 66z"/>
<path style="fill:#040404; stroke:none;" d="M13 68L14 69L13 68z"/>
<path style="fill:#171719; stroke:none;" d="M3 72L7 71L3 72M24 70C24.6889 74.1547 24.9439 79.0888 30 79L26 76L26 75C27.8353 72.8258 25.9549 71.6065 24 70z"/>
<path style="fill:#040404; stroke:none;" d="M11 73L12 74L11 73z"/>
<path style="fill:#171719; stroke:none;" d="M4 74L5 77L6 77L6 74L4 74M21 74L21 76L23 74L21 74M100 74L101 75L100 74z"/>
<path style="fill:#040404; stroke:none;" d="M14 76L15 77L14 76z"/>
<path style="fill:#171719; stroke:none;" d="M88 76L89 77L88 76M98 76L100 79L98 76z"/>
<path style="fill:#040404; stroke:none;" d="M12 77L14 79L12 77z"/>
<path style="fill:#171719; stroke:none;" d="M85 77L86 78L85 77M108 78L109 79L108 78M31 81L32 82L31 81M82 84L83 85L82 84z"/>
<path style="fill:#272829; stroke:none;" d="M10 86L11 87L10 86z"/>
<path style="fill:#171719; stroke:none;" d="M80 86L81 87L80 86z"/>
<path style="fill:#040404; stroke:none;" d="M89 86L89 88L91 88L91 86L89 86z"/>
<path style="fill:#171719; stroke:none;" d="M77.3333 89.6667L77.6667 90.3333L77.3333 89.6667M81.6667 89.3333L82.3333 89.6667L81.6667 89.3333z"/>
<path style="fill:#272829; stroke:none;" d="M14 90L20 94L14 90z"/>
<path style="fill:#171719; stroke:none;" d="M48 90L49 91L48 90M84 90L85 91L84 90M79.6667 91.3333L80.3333 91.6667L79.6667 91.3333z"/>
<path style="fill:#272829; stroke:none;" d="M72 93L73 94L72 93z"/>
<path style="fill:#171719; stroke:none;" d="M75.6667 93.3333L76.3333 93.6667L75.6667 93.3333M51 94L52 95L51 94M69 95L71 97L71 95L69 95z"/>
<path style="fill:#272829; stroke:none;" d="M21 96L22 97L21 96z"/>
<path style="fill:#171719; stroke:none;" d="M73 96L73 98L75 96L73 96M81.3333 96.6667L81.6667 97.3333L81.3333 96.6667M86 97L87 98L86 97z"/>
<path style="fill:#040404; stroke:none;" d="M94 98L95 99L94 98z"/>
<path style="fill:#272829; stroke:none;" d="M71 99L73 101L71 99z"/>
<path style="fill:#171719; stroke:none;" d="M72 99L73 100L72 99M82.3333 99.6667L82.6667 100.333L82.3333 99.6667M71 100L72 101L71 100z"/>
<path style="fill:#272829; stroke:none;" d="M70 103L71 104L70 103z"/>
<path style="fill:#171719; stroke:none;" d="M70 105L73 105L72 103L70 105z"/>
<path style="fill:#272829; stroke:none;" d="M80 104L81 105L80 104z"/>
<path style="fill:#171719; stroke:none;" d="M80 105L80 106L83 106L80 105z"/>
<path style="fill:#7f7f8f; stroke:none;" d="M32 106L33 107L32 106z"/>
<path style="fill:#171719; stroke:none;" d="M47 106L44 107L44 108L48 107L47 106M41 108L42 109L41 108M80 108L81 109L80 108z"/>
</svg>
