<?xml version="1.0" standalone="yes"?>
<svg xmlns="http://www.w3.org/2000/svg" width="150" height="150">
<path style="fill:#fefefe; stroke:none;" d="M0 0L0 150L150 150L150 0L0 0z"/>
<path style="fill:#9f9f9f; stroke:none;" d="M65.6667 3.33333L66.3333 3.66667L65.6667 3.33333z"/>
<path style="fill:#5f5f5f; stroke:none;" d="M67 3L67 4L73 4L67 3z"/>
<path style="fill:#9f9f9f; stroke:none;" d="M68 5L68 6L72 6L72 7L68 7L68 8L94 9L94 8L80 7L80 6L82 6C77.085 3.08809 73.3081 3.32144 68 5M59.6667 4.33333L60.3333 4.66667L59.6667 4.33333z"/>
<path style="fill:#5f5f5f; stroke:none;" d="M61.3333 4.66667L61.6667 5.33333L61.3333 4.66667z"/>
<path style="fill:#2f2f2f; stroke:none;" d="M62 4L63 5L62 4z"/>
<path style="fill:#030303; stroke:none;" d="M63.6667 4.33333L64.3333 4.66667L63.6667 4.33333z"/>
<path style="fill:#2f2f2f; stroke:none;" d="M65 4L65 5L68 5L65 4z"/>
<path style="fill:#9f9f9f; stroke:none;" d="M55 5L56 6L55 5z"/>
<path style="fill:#5f5f5f; stroke:none;" d="M56 5L57 6L56 5z"/>
<path style="fill:#2f2f2f; stroke:none;" d="M57 5L56 7L57 5z"/>
<path style="fill:#030303; stroke:none;" d="M58.6667 5.33333L59.3333 5.66667L58.6667 5.33333z"/>
<path style="fill:#2f2f2f; stroke:none;" d="M60 5L61 6L60 5z"/>
<path style="fill:#9f9f9f; stroke:none;" d="M61 7L64 5L61 7z"/>
<path style="fill:#fefefe; stroke:none;" d="M64 5L64 6L68 6L64 5z"/>
<path style="fill:#5f5f5f; stroke:none;" d="M74 5L74 6L77 6L74 5z"/>
<path style="fill:#9f9f9f; stroke:none;" d="M52 6L53 7L52 6z"/>
<path style="fill:#2f2f2f; stroke:none;" d="M53 6L54 7L53 6z"/>
<path style="fill:#030303; stroke:none;" d="M54.6667 6.33333L55.3333 6.66667L54.6667 6.33333z"/>
<path style="fill:#9f9f9f; stroke:none;" d="M57 6L57 8L59 6L57 6z"/>
<path style="fill:#fefefe; stroke:none;" d="M59.6667 6.33333L60.3333 6.66667L59.6667 6.33333z"/>
<path style="fill:#5f5f5f; stroke:none;" d="M63.3333 6.66667L63.6667 7.33333L63.3333 6.66667z"/>
<path style="fill:#2f2f2f; stroke:none;" d="M64.6667 6.33333L65.3333 6.66667L64.6667 6.33333z"/>
<path style="fill:#030303; stroke:none;" d="M66.6667 6.33333L67.3333 6.66667L66.6667 6.33333z"/>
<path style="fill:#2f2f2f; stroke:none;" d="M68.6667 6.33333L69.3333 6.66667L68.6667 6.33333z"/>
<path style="fill:#5f5f5f; stroke:none;" d="M70.6667 6.33333L71.3333 6.66667L70.6667 6.33333M80 6L80 7L86 7L80 6z"/>
<path style="fill:#9f9f9f; stroke:none;" d="M49 7L50 8L49 7z"/>
<path style="fill:#2f2f2f; stroke:none;" d="M50 7L51 8L50 7z"/>
<path style="fill:#030303; stroke:none;" d="M51.6667 7.33333L52.3333 7.66667L51.6667 7.33333z"/>
<path style="fill:#5f5f5f; stroke:none;" d="M53 7L54 8L53 7z"/>
<path style="fill:#9f9f9f; stroke:none;" d="M54.3333 7.66667L54.6667 8.33333L54.3333 7.66667z"/>
<path style="fill:#fefefe; stroke:none;" d="M55.6667 7.33333L56.3333 7.66667L55.6667 7.33333z"/>
<path style="fill:#5f5f5f; stroke:none;" d="M58 7L59 8L58 7z"/>
<path style="fill:#2f2f2f; stroke:none;" d="M59 7L58 9L59 7z"/>
<path style="fill:#030303; stroke:none;" d="M60.6667 7.33333L61.3333 7.66667L60.6667 7.33333z"/>
<path style="fill:#2f2f2f; stroke:none;" d="M62 7L63 8L62 7z"/>
<path style="fill:#9f9f9f; stroke:none;" d="M62 8L62 9L68 10L68 9L65 9L65 8L67 8L62 8z"/>
<path style="fill:#fefefe; stroke:none;" d="M67 7L68 8L67 7M84 7L85 8L84 7z"/>
<path style="fill:#9f9f9f; stroke:none;" d="M46 8L47 9L46 8z"/>
<path style="fill:#5f5f5f; stroke:none;" d="M47 8L48 9L47 8z"/>
<path style="fill:#030303; stroke:none;" d="M48.6667 8.33333L49.3333 8.66667L48.6667 8.33333z"/>
<path style="fill:#5f5f5f; stroke:none;" d="M50 8L53 14L54 14L50 8z"/>
<path style="fill:#9f9f9f; stroke:none;" d="M51 8L52 9L51 8z"/>
<path style="fill:#fefefe; stroke:none;" d="M52.6667 8.33333L53.3333 8.66667L52.6667 8.33333z"/>
<path style="fill:#2f2f2f; stroke:none;" d="M55 8L56 9L55 8z"/>
<path style="fill:#030303; stroke:none;" d="M56.6667 8.33333L57.3333 8.66667L56.6667 8.33333z"/>
<path style="fill:#9f9f9f; stroke:none;" d="M58 9L63 11L63 10L61 8L58 9z"/>
<path style="fill:#fefefe; stroke:none;" d="M61 8L62 9L61 8z"/>
<path style="fill:#5f5f5f; stroke:none;" d="M65 8L65 9L71 10L65 8z"/>
<path style="fill:#fefefe; stroke:none;" d="M88.6667 8.33333L89.3333 8.66667L88.6667 8.33333z"/>
<path style="fill:#9f9f9f; stroke:none;" d="M44 9L45 10L44 9z"/>
<path style="fill:#2f2f2f; stroke:none;" d="M45.3333 9.66667L45.6667 10.3333L45.3333 9.66667z"/>
<path style="fill:#030303; stroke:none;" d="M46 9L47 10L46 9z"/>
<path style="fill:#2f2f2f; stroke:none;" d="M47 9L48 10L47 9z"/>
<path style="fill:#9f9f9f; stroke:none;" d="M48.3333 9.66667L48.6667 10.3333L48.3333 9.66667z"/>
<path style="fill:#fefefe; stroke:none;" d="M49 9L50 10L49 9z"/>
<path style="fill:#9f9f9f; stroke:none;" d="M50 9L51 10L50 9z"/>
<path style="fill:#2f2f2f; stroke:none;" d="M52 9L53 10L52 9z"/>
<path style="fill:#030303; stroke:none;" d="M53.6667 9.33333L54.3333 9.66667L53.6667 9.33333z"/>
<path style="fill:#5f5f5f; stroke:none;" d="M55 9L56 13L57 13L55 9z"/>
<path style="fill:#9f9f9f; stroke:none;" d="M56 9L57 10L56 9z"/>
<path style="fill:#fefefe; stroke:none;" d="M57 9L58 10L57 9z"/>
<path style="fill:#5f5f5f; stroke:none;" d="M60 9L60 10L64 11L60 9z"/>
<path style="fill:#2f2f2f; stroke:none;" d="M71 9L71 10L75 11L71 9z"/>
<path style="fill:#030303; stroke:none;" d="M74 9L74 10L80 10L74 9z"/>
<path style="fill:#2f2f2f; stroke:none;" d="M80 9L80 10L85 11L85 10L80 9z"/>
<path style="fill:#5f5f5f; stroke:none;" d="M83 9L83 10L86 10L83 9z"/>
<path style="fill:#9f9f9f; stroke:none;" d="M42 10L43 11L42 10z"/>
<path style="fill:#2f2f2f; stroke:none;" d="M43 10L44 11L43 10z"/>
<path style="fill:#030303; stroke:none;" d="M44 10L45 11L44 10z"/>
<path style="fill:#9f9f9f; stroke:none;" d="M46 10L40 13L40 14L47 11L46 10z"/>
<path style="fill:#fefefe; stroke:none;" d="M47 10L48 11L47 10z"/>
<path style="fill:#2f2f2f; stroke:none;" d="M49.3333 10.6667L49.6667 11.3333L49.3333 10.6667z"/>
<path style="fill:#030303; stroke:none;" d="M50.6667 10.3333L51.3333 10.6667L50.6667 10.3333z"/>
<path style="fill:#9f9f9f; stroke:none;" d="M53 10L54 11L53 10z"/>
<path style="fill:#fefefe; stroke:none;" d="M54 10L55 11L54 10z"/>
<path style="fill:#9f9f9f; stroke:none;" d="M55 10L56 11L55 10z"/>
<path style="fill:#2f2f2f; stroke:none;" d="M57 10L58 11L57 10z"/>
<path style="fill:#5f5f5f; stroke:none;" d="M58 10L60 12L60 10L58 10z"/>
<path style="fill:#2f2f2f; stroke:none;" d="M64 10L66 12L64 10z"/>
<path style="fill:#030303; stroke:none;" d="M65 10L65 11L72 11L65 10z"/>
<path style="fill:#5f5f5f; stroke:none;" d="M75 10L75 11L82 11L75 10z"/>
<path style="fill:#030303; stroke:none;" d="M85 10L85 11L89 11L85 10z"/>
<path style="fill:#2f2f2f; stroke:none;" d="M89 10L92 12L92 11L89 10z"/>
<path style="fill:#5f5f5f; stroke:none;" d="M90 10L91 11L90 10z"/>
<path style="fill:#9f9f9f; stroke:none;" d="M91.6667 10.3333L92.3333 10.6667L91.6667 10.3333M40 11L41 12L40 11z"/>
<path style="fill:#2f2f2f; stroke:none;" d="M41 11L42 12L41 11z"/>
<path style="fill:#030303; stroke:none;" d="M42 11L43 12L42 11z"/>
<path style="fill:#5f5f5f; stroke:none;" d="M43 11L44 12L43 11M46 11L48 16L49 16L46 11z"/>
<path style="fill:#030303; stroke:none;" d="M47.6667 11.3333L48.3333 11.6667L47.6667 11.3333z"/>
<path style="fill:#9f9f9f; stroke:none;" d="M50 11L51 12L50 11z"/>
<path style="fill:#fefefe; stroke:none;" d="M51 11L52 12L51 11z"/>
<path style="fill:#9f9f9f; stroke:none;" d="M52 11L53 12L52 11z"/>
<path style="fill:#2f2f2f; stroke:none;" d="M54.6667 11.3333L55.3333 11.6667L54.6667 11.3333z"/>
<path style="fill:#9f9f9f; stroke:none;" d="M57.6667 11.3333L58.3333 11.6667L57.6667 11.3333z"/>
<path style="fill:#2f2f2f; stroke:none;" d="M60 11L62 13L60 11z"/>
<path style="fill:#030303; stroke:none;" d="M61 11L61 12L65 12L61 11z"/>
<path style="fill:#5f5f5f; stroke:none;" d="M66.6667 11.3333L67.3333 11.6667L66.6667 11.3333z"/>
<path style="fill:#9f9f9f; stroke:none;" d="M68.6667 11.3333L69.3333 11.6667L68.6667 11.3333M87.6667 11.3333L88.3333 11.6667L87.6667 11.3333z"/>
<path style="fill:#5f5f5f; stroke:none;" d="M89 11L90 12L89 11z"/>
<path style="fill:#030303; stroke:none;" d="M92 11L93 12L92 11z"/>
<path style="fill:#5f5f5f; stroke:none;" d="M93 11L95 13L93 11M39 12L40 13L39 12z"/>
<path style="fill:#030303; stroke:none;" d="M40 12L41 13L40 12z"/>
<path style="fill:#5f5f5f; stroke:none;" d="M41 12L42 13L41 12M44 12L46 14L44 12z"/>
<path style="fill:#030303; stroke:none;" d="M45.6667 12.3333L46.3333 12.6667L45.6667 12.3333z"/>
<path style="fill:#9f9f9f; stroke:none;" d="M48 12L49 13L48 12z"/>
<path style="fill:#fefefe; stroke:none;" d="M49 12L50 13L49 12z"/>
<path style="fill:#5f5f5f; stroke:none;" d="M50 12L50 15L51 15L50 12z"/>
<path style="fill:#2f2f2f; stroke:none;" d="M51.6667 12.3333L52.3333 12.6667L51.6667 12.3333z"/>
<path style="fill:#9f9f9f; stroke:none;" d="M54.6667 12.3333L55.3333 12.6667L54.6667 12.3333z"/>
<path style="fill:#030303; stroke:none;" d="M35 121C10.6445 103.844 4.98133 69.7487 17.9699 44C22.5238 34.9722 30.3082 29.0802 36 21C1.06301 44.9048 1.07391 99.8338 34 125.32C50.619 138.184 69.0698 138.573 89 137L89 138C62.456 143.148 37.3155 135.022 20.5247 113C-3.45244 81.5524 7.67437 30.1085 45 14L45 13C-6.07829 28.0303 -6.15089 112.521 39 134L39 135C21.0549 126.463 6.61774 104.806 5 85L4 85C5.70958 124.212 47.5821 150.441 84 145.711C115.874 141.571 143.569 115.606 146.829 83C148.95 61.7952 143.456 40.061 128.999 24.0401C121.784 16.0445 107.392 9.82118 97.1481 16.4174C92.5016 19.4096 93.9971 25.7451 95.9051 30C100.525 40.3024 110.359 46.8041 115.215 57C132.831 93.9867 94.0791 131.668 57 120.56C28.6235 112.059 14.267 80.2635 23.865 53C27.8631 41.6432 35.7253 35.0235 43 26C3.97696 48.5567 12.983 113.234 56 125L56 126C-2.35297 112.14 7.25669 25.7358 61 13C49.9047 9.06572 32.658 25.4447 26.4645 33C3.806 60.6406 11.3352 97.3326 35 121z"/>
<path style="fill:#5f5f5f; stroke:none;" d="M62 12L63 13L62 12z"/>
<path style="fill:#9f9f9f; stroke:none;" d="M63 12L64 13L63 12M92.6667 12.3333L93.3333 12.6667L92.6667 12.3333M95 12L96 13L95 12M37 13L38 16L39 16L37 13z"/>
<path style="fill:#030303; stroke:none;" d="M38 13L39 14L38 13z"/>
<path style="fill:#2f2f2f; stroke:none;" d="M39 13L40 14L39 13z"/>
<path style="fill:#5f5f5f; stroke:none;" d="M42 13L43 14L42 13z"/>
<path style="fill:#fefefe; stroke:none;" d="M46 13L47 14L46 13z"/>
<path style="fill:#9f9f9f; stroke:none;" d="M47 13L48 14L47 13z"/>
<path style="fill:#030303; stroke:none;" d="M49 13L50 14L49 13z"/>
<path style="fill:#9f9f9f; stroke:none;" d="M51.6667 13.3333L52.3333 13.6667L51.6667 13.3333z"/>
<path style="fill:#5f5f5f; stroke:none;" d="M58 13L59 14L58 13z"/>
<path style="fill:#9f9f9f; stroke:none;" d="M59 13L60 14L59 13M102 13L102 14L105 14L102 13z"/>
<path style="fill:#5f5f5f; stroke:none;" d="M105 13L105 14L110 14L105 13z"/>
<path style="fill:#9f9f9f; stroke:none;" d="M110.667 13.3333L111.333 13.6667L110.667 13.3333M35 14L36 15L35 14z"/>
<path style="fill:#2f2f2f; stroke:none;" d="M36 14L37 15L36 14z"/>
<path style="fill:#030303; stroke:none;" d="M37 14L38 15L37 14z"/>
<path style="fill:#fefefe; stroke:none;" d="M39 14L40 15L39 14z"/>
<path style="fill:#5f5f5f; stroke:none;" d="M40 14L41 15L40 14M43 14L44 15L43 14z"/>
<path style="fill:#fefefe; stroke:none;" d="M44 14L45 15L44 14z"/>
<path style="fill:#9f9f9f; stroke:none;" d="M45 14L46 15L45 14z"/>
<path style="fill:#2f2f2f; stroke:none;" d="M46 14L47 15L46 14z"/>
<path style="fill:#030303; stroke:none;" d="M47 14L48 15L47 14z"/>
<path style="fill:#9f9f9f; stroke:none;" d="M49 14L50 15L49 14z"/>
<path style="fill:#2f2f2f; stroke:none;" d="M51 14L52 15L51 14M55 14L56 15L55 14z"/>
<path style="fill:#9f9f9f; stroke:none;" d="M56 14L57 15L56 14M99 14L100 15L99 14z"/>
<path style="fill:#5f5f5f; stroke:none;" d="M100 14L101 15L100 14z"/>
<path style="fill:#2f2f2f; stroke:none;" d="M101 14L102 15L101 14M113 14L114 15L113 14z"/>
<path style="fill:#9f9f9f; stroke:none;" d="M114 14L115 15L114 14z"/>
<path style="fill:#5f5f5f; stroke:none;" d="M34 15L35 16L34 15z"/>
<path style="fill:#030303; stroke:none;" d="M35 15L19 30L36 16L35 15z"/>
<path style="fill:#5f5f5f; stroke:none;" d="M36 15L37 16L36 15z"/>
<path style="fill:#fefefe; stroke:none;" d="M37 15L36 17L37 15z"/>
<path style="fill:#2f2f2f; stroke:none;" d="M41 15L42 16L41 15z"/>
<path style="fill:#9f9f9f; stroke:none;" d="M42.6667 15.3333L43.3333 15.6667L42.6667 15.3333z"/>
<path style="fill:#2f2f2f; stroke:none;" d="M44 15L45 16L44 15z"/>
<path style="fill:#030303; stroke:none;" d="M45 15L46 16L45 15z"/>
<path style="fill:#5f5f5f; stroke:none;" d="M46.3333 15.6667L46.6667 16.3333L46.3333 15.6667z"/>
<path style="fill:#9f9f9f; stroke:none;" d="M47 15L48 16L47 15z"/>
<path style="fill:#5f5f5f; stroke:none;" d="M53 15L54 16L53 15z"/>
<path style="fill:#9f9f9f; stroke:none;" d="M54 15L55 16L54 15z"/>
<path style="fill:#5f5f5f; stroke:none;" d="M97 15L98 16L97 15z"/>
<path style="fill:#2f2f2f; stroke:none;" d="M98 15L99 16L98 15z"/>
<path style="fill:#5f5f5f; stroke:none;" d="M116 15L117 16L116 15z"/>
<path style="fill:#9f9f9f; stroke:none;" d="M117 15L118 16L117 15M32 16L33 17L32 16M35.3333 16.6667L35.6667 17.3333L35.3333 16.6667z"/>
<path style="fill:#2f2f2f; stroke:none;" d="M37 16L38 17L37 16M39 16L40 17L39 16z"/>
<path style="fill:#9f9f9f; stroke:none;" d="M40 16L40 20L38 18L37 18L35 24L46 17L46 16L40 16z"/>
<path style="fill:#fefefe; stroke:none;" d="M41 16L42 17L41 16z"/>
<path style="fill:#5f5f5f; stroke:none;" d="M42 16L43 17L42 16z"/>
<path style="fill:#030303; stroke:none;" d="M43 16L44 17L43 16z"/>
<path style="fill:#5f5f5f; stroke:none;" d="M44 16L45 17L44 16z"/>
<path style="fill:#2f2f2f; stroke:none;" d="M50 16L51 17L50 16z"/>
<path style="fill:#5f5f5f; stroke:none;" d="M51 16L52 17L51 16z"/>
<path style="fill:#9f9f9f; stroke:none;" d="M95 16L96 17L95 16z"/>
<path style="fill:#2f2f2f; stroke:none;" d="M96 16L97 17L96 16z"/>
<path style="fill:#5f5f5f; stroke:none;" d="M119 16L120 17L119 16z"/>
<path style="fill:#9f9f9f; stroke:none;" d="M120 16L121 17L120 16z"/>
<path style="fill:#5f5f5f; stroke:none;" d="M31 17L32 18L31 17M33 17L34 18L33 17z"/>
<path style="fill:#fefefe; stroke:none;" d="M34 17L33 19L34 17z"/>
<path style="fill:#5f5f5f; stroke:none;" d="M38 17L39 18L38 17z"/>
<path style="fill:#fefefe; stroke:none;" d="M39 17L38 19L39 17z"/>
<path style="fill:#030303; stroke:none;" d="M41 17L42 18L41 17z"/>
<path style="fill:#2f2f2f; stroke:none;" d="M42 17L43 18L42 17M48 17L49 18L48 17z"/>
<path style="fill:#9f9f9f; stroke:none;" d="M49 17L50 18L49 17M94 17L95 18L94 17z"/>
<path style="fill:#2f2f2f; stroke:none;" d="M121 17L122 18L121 17z"/>
<path style="fill:#9f9f9f; stroke:none;" d="M122 17L123 18L122 17z"/>
<path style="fill:#2f2f2f; stroke:none;" d="M30 18L31 19L30 18z"/>
<path style="fill:#9f9f9f; stroke:none;" d="M32 18L31 20L33 20L32 18z"/>
<path style="fill:#2f2f2f; stroke:none;" d="M34 18L35 19L34 18M36 18L37 19L36 18M39.3333 18.6667L39.6667 19.3333L39.3333 18.6667z"/>
<path style="fill:#030303; stroke:none;" d="M40 18L41 19L40 18z"/>
<path style="fill:#2f2f2f; stroke:none;" d="M43 18L44 19L43 18z"/>
<path style="fill:#5f5f5f; stroke:none;" d="M47 18L48 19L47 18M123 18L124 19L123 18z"/>
<path style="fill:#9f9f9f; stroke:none;" d="M28 19L29 20L28 19z"/>
<path style="fill:#5f5f5f; stroke:none;" d="M35 19L36 20L35 19z"/>
<path style="fill:#fefefe; stroke:none;" d="M36 19L35 21L36 19z"/>
<path style="fill:#030303; stroke:none;" d="M38 19L39 20L38 19z"/>
<path style="fill:#5f5f5f; stroke:none;" d="M41 19L42 20L41 19M45 19L46 20L45 19z"/>
<path style="fill:#9f9f9f; stroke:none;" d="M93 19L94 20L93 19z"/>
<path style="fill:#2f2f2f; stroke:none;" d="M124 19L125 20L124 19z"/>
<path style="fill:#9f9f9f; stroke:none;" d="M125 19L126 20L125 19M27 20L28 21L27 20z"/>
<path style="fill:#2f2f2f; stroke:none;" d="M29 20L29 23L30 23L29 20z"/>
<path style="fill:#fefefe; stroke:none;" d="M30 20L31 21L30 20z"/>
<path style="fill:#5f5f5f; stroke:none;" d="M31 20L32 21L31 20z"/>
<path style="fill:#9f9f9f; stroke:none;" d="M34 20L33 23L34 20z"/>
<path style="fill:#2f2f2f; stroke:none;" d="M36.3333 20.6667L36.6667 21.3333L36.3333 20.6667z"/>
<path style="fill:#030303; stroke:none;" d="M37 20L38 21L37 20z"/>
<path style="fill:#2f2f2f; stroke:none;" d="M40 20L41 21L40 20M43 20L44 21L43 20z"/>
<path style="fill:#9f9f9f; stroke:none;" d="M44 20L45 21L44 20z"/>
<path style="fill:#5f5f5f; stroke:none;" d="M93 20L93 23L94 23L93 20z"/>
<path style="fill:#9f9f9f; stroke:none;" d="M126 20L127 21L126 20M26 21L27 22L26 21z"/>
<path style="fill:#5f5f5f; stroke:none;" d="M28 21L27 23L28 21z"/>
<path style="fill:#9f9f9f; stroke:none;" d="M29 21L30 22L29 21z"/>
<path style="fill:#2f2f2f; stroke:none;" d="M32 21L31 23L32 21z"/>
<path style="fill:#5f5f5f; stroke:none;" d="M38 21L39 22L38 21M42 21L43 22L42 21z"/>
<path style="fill:#9f9f9f; stroke:none;" d="M50 21L50 23L52 21L50 21z"/>
<path style="fill:#2f2f2f; stroke:none;" d="M126 21L127 22L126 21z"/>
<path style="fill:#5f5f5f; stroke:none;" d="M25 22L26 23L25 22z"/>
<path style="fill:#9f9f9f; stroke:none;" d="M28 22L29 23L28 22z"/>
<path style="fill:#fefefe; stroke:none;" d="M32 22L23 32L32 22z"/>
<path style="fill:#5f5f5f; stroke:none;" d="M35 22L36 23L35 22z"/>
<path style="fill:#2f2f2f; stroke:none;" d="M37 22L38 23L37 22z"/>
<path style="fill:#9f9f9f; stroke:none;" d="M41 22L42 23L41 22z"/>
<path style="fill:#5f5f5f; stroke:none;" d="M48.6667 22.3333L49.3333 22.6667L48.6667 22.3333z"/>
<path style="fill:#2f2f2f; stroke:none;" d="M127 22L128 23L127 22z"/>
<path style="fill:#5f5f5f; stroke:none;" d="M24 23L25 24L24 23z"/>
<path style="fill:#9f9f9f; stroke:none;" d="M9 50L10 50L28 23C18.8805 27.4435 11.7337 40.5105 9 50z"/>
<path style="fill:#5f5f5f; stroke:none;" d="M30 23L31 24L30 23M32 23L33 24L32 23M34 23L27 32L34 23z"/>
<path style="fill:#2f2f2f; stroke:none;" d="M39 23L40 24L39 23z"/>
<path style="fill:#5f5f5f; stroke:none;" d="M46.3333 23.6667L46.6667 24.3333L46.3333 23.6667z"/>
<path style="fill:#2f2f2f; stroke:none;" d="M47 23L48 24L47 23z"/>
<path style="fill:#9f9f9f; stroke:none;" d="M48 23L49 24L48 23M93.3333 23.6667L93.6667 24.3333L93.3333 23.6667z"/>
<path style="fill:#2f2f2f; stroke:none;" d="M128 23L129 24L128 23z"/>
<path style="fill:#5f5f5f; stroke:none;" d="M23 24L24 25L23 24M29 24L30 25L29 24z"/>
<path style="fill:#2f2f2f; stroke:none;" d="M31 24L32 25L31 24z"/>
<path style="fill:#9f9f9f; stroke:none;" d="M33 24L34 25L33 24z"/>
<path style="fill:#5f5f5f; stroke:none;" d="M38 24L39 25L38 24z"/>
<path style="fill:#9f9f9f; stroke:none;" d="M44 24L46 26L44 24z"/>
<path style="fill:#030303; stroke:none;" d="M45 24L46 25L45 24z"/>
<path style="fill:#2f2f2f; stroke:none;" d="M129 24L130 25L129 24z"/>
<path style="fill:#5f5f5f; stroke:none;" d="M22 25L23 26L22 25M28 25L29 26L28 25z"/>
<path style="fill:#2f2f2f; stroke:none;" d="M30 25L31 26L30 25z"/>
<path style="fill:#9f9f9f; stroke:none;" d="M32 25L33 26L32 25M37 25L38 26L37 25z"/>
<path style="fill:#2f2f2f; stroke:none;" d="M43.6667 25.3333L44.3333 25.6667L43.6667 25.3333z"/>
<path style="fill:#5f5f5f; stroke:none;" d="M130 25L131 26L130 25z"/>
<path style="fill:#9f9f9f; stroke:none;" d="M21 26L22 27L21 26z"/>
<path style="fill:#5f5f5f; stroke:none;" d="M27 26L28 27L27 26z"/>
<path style="fill:#9f9f9f; stroke:none;" d="M31 26L32 27L31 26M36 26L37 27L36 26M41 26L42 27L41 26z"/>
<path style="fill:#5f5f5f; stroke:none;" d="M43 26L44 27L43 26M94 26L95 27L94 26z"/>
<path style="fill:#9f9f9f; stroke:none;" d="M131 26L132 27L131 26M20 27L21 28L20 27z"/>
<path style="fill:#5f5f5f; stroke:none;" d="M22 27L23 28L22 27M26 27L27 28L26 27z"/>
<path style="fill:#9f9f9f; stroke:none;" d="M30 27L31 28L30 27M35 27L36 28L35 27z"/>
<path style="fill:#2f2f2f; stroke:none;" d="M40 27L41 28L40 27z"/>
<path style="fill:#9f9f9f; stroke:none;" d="M42 27L43 28L42 27M94 27L95 28L94 27M132 27L133 28L132 27M19 28L20 29L19 28z"/>
<path style="fill:#5f5f5f; stroke:none;" d="M21 28L22 29L21 28M25 28L26 29L25 28z"/>
<path style="fill:#9f9f9f; stroke:none;" d="M29 28L30 29L29 28z"/>
<path style="fill:#2f2f2f; stroke:none;" d="M33 28L34 29L33 28z"/>
<path style="fill:#9f9f9f; stroke:none;" d="M34 28L35 29L34 28M38 28L39 29L38 28M41 28L42 29L41 28z"/>
<path style="fill:#2f2f2f; stroke:none;" d="M132 28L133 29L132 28M20 29L21 30L20 29z"/>
<path style="fill:#5f5f5f; stroke:none;" d="M24 29L25 30L24 29z"/>
<path style="fill:#2f2f2f; stroke:none;" d="M26 29L27 30L26 29z"/>
<path style="fill:#9f9f9f; stroke:none;" d="M28 29L29 30L28 29M33 29L34 30L33 29M37 29L38 30L37 29z"/>
<path style="fill:#2f2f2f; stroke:none;" d="M39 29L40 30L39 29z"/>
<path style="fill:#9f9f9f; stroke:none;" d="M40 29L41 30L40 29z"/>
<path style="fill:#5f5f5f; stroke:none;" d="M95 29L96 30L95 29M133 29L134 30L133 29z"/>
<path style="fill:#2f2f2f; stroke:none;" d="M18.6667 30.3333L19.3333 30.6667L18.6667 30.3333M21 30L22 31L21 30M23 30L24 31L23 30M25 30L26 31L25 30z"/>
<path style="fill:#9f9f9f; stroke:none;" d="M27 30L28 31L27 30M32 30L33 31L32 30z"/>
<path style="fill:#5f5f5f; stroke:none;" d="M36 30L37 31L36 30z"/>
<path style="fill:#2f2f2f; stroke:none;" d="M38 30L39 31L38 30z"/>
<path style="fill:#9f9f9f; stroke:none;" d="M134 30L135 31L134 30z"/>
<path style="fill:#5f5f5f; stroke:none;" d="M17 31L18 32L17 31z"/>
<path style="fill:#030303; stroke:none;" d="M18 31L19 32L18 31z"/>
<path style="fill:#5f5f5f; stroke:none;" d="M20 31L21 32L20 31z"/>
<path style="fill:#2f2f2f; stroke:none;" d="M22 31L23 32L22 31z"/>
<path style="fill:#5f5f5f; stroke:none;" d="M24 31L25 32L24 31z"/>
<path style="fill:#9f9f9f; stroke:none;" d="M26 31L20 41L21 41L26 31M31 31L32 32L31 31z"/>
<path style="fill:#5f5f5f; stroke:none;" d="M35 31L36 32L35 31z"/>
<path style="fill:#2f2f2f; stroke:none;" d="M37 31L38 32L37 31z"/>
<path style="fill:#5f5f5f; stroke:none;" d="M96 31L97 32L96 31z"/>
<path style="fill:#9f9f9f; stroke:none;" d="M16 32L15 34L16 32z"/>
<path style="fill:#030303; stroke:none;" d="M17 32L7 52L8 52L17 32z"/>
<path style="fill:#9f9f9f; stroke:none;" d="M21 34L24 32L21 34z"/>
<path style="fill:#5f5f5f; stroke:none;" d="M25 32L26 33L25 32z"/>
<path style="fill:#9f9f9f; stroke:none;" d="M30 32L31 33L30 32z"/>
<path style="fill:#5f5f5f; stroke:none;" d="M34 32L35 33L34 32z"/>
<path style="fill:#2f2f2f; stroke:none;" d="M36 32L37 33L36 32M135 32L136 33L135 32z"/>
<path style="fill:#5f5f5f; stroke:none;" d="M17 33L18 34L17 33z"/>
<path style="fill:#2f2f2f; stroke:none;" d="M24 33L25 34L24 33z"/>
<path style="fill:#9f9f9f; stroke:none;" d="M29 33L30 34L29 33z"/>
<path style="fill:#5f5f5f; stroke:none;" d="M33 33L34 34L33 33z"/>
<path style="fill:#2f2f2f; stroke:none;" d="M35 33L36 34L35 33z"/>
<path style="fill:#9f9f9f; stroke:none;" d="M97 33L98 34L97 33M136 33L137 34L136 33z"/>
<path style="fill:#2f2f2f; stroke:none;" d="M15 34L16 35L15 34M18 34L19 35L18 34z"/>
<path style="fill:#5f5f5f; stroke:none;" d="M20 34L22 36L20 34z"/>
<path style="fill:#fefefe; stroke:none;" d="M21 34L22 35L21 34z"/>
<path style="fill:#2f2f2f; stroke:none;" d="M25 34L26 35L25 34z"/>
<path style="fill:#5f5f5f; stroke:none;" d="M28 34L29 35L28 34M32 34L33 35L32 34z"/>
<path style="fill:#2f2f2f; stroke:none;" d="M34 34L35 35L34 34M98 34L99 35L98 34z"/>
<path style="fill:#5f5f5f; stroke:none;" d="M14 35L15 36L14 35M17 35L18 36L17 35z"/>
<path style="fill:#fefefe; stroke:none;" d="M20 35L21 36L20 35z"/>
<path style="fill:#5f5f5f; stroke:none;" d="M24 35L25 36L24 35z"/>
<path style="fill:#2f2f2f; stroke:none;" d="M27 35L28 36L27 35z"/>
<path style="fill:#5f5f5f; stroke:none;" d="M31 35L32 36L31 35z"/>
<path style="fill:#9f9f9f; stroke:none;" d="M34 35L35 36L34 35M98 35L99 36L98 35z"/>
<path style="fill:#5f5f5f; stroke:none;" d="M137 35L138 36L137 35z"/>
<path style="fill:#9f9f9f; stroke:none;" d="M13 36L14 37L13 36z"/>
<path style="fill:#5f5f5f; stroke:none;" d="M15 36L16 37L15 36z"/>
<path style="fill:#9f9f9f; stroke:none;" d="M19 36L19 38L21 36L19 36z"/>
<path style="fill:#5f5f5f; stroke:none;" d="M22 36L23 37L22 36z"/>
<path style="fill:#9f9f9f; stroke:none;" d="M27 36L28 37L27 36M30 36L31 37L30 36M33 36L34 37L33 36M99 36L100 37L99 36M138 36L139 37L138 36z"/>
<path style="fill:#2f2f2f; stroke:none;" d="M13 37L14 38L13 37M16 37L17 38L16 37z"/>
<path style="fill:#5f5f5f; stroke:none;" d="M18 37L19 38L18 37z"/>
<path style="fill:#2f2f2f; stroke:none;" d="M21 37L22 38L21 37z"/>
<path style="fill:#9f9f9f; stroke:none;" d="M26 37L27 38L26 37M29 37L30 38L29 37z"/>
<path style="fill:#5f5f5f; stroke:none;" d="M32 37L33 38L32 37M100 37L101 38L100 37M138 37L139 38L138 37z"/>
<path style="fill:#9f9f9f; stroke:none;" d="M12 38L13 39L12 38z"/>
<path style="fill:#5f5f5f; stroke:none;" d="M15 38L16 39L15 38z"/>
<path style="fill:#fefefe; stroke:none;" d="M18 38L19 39L18 38z"/>
<path style="fill:#2f2f2f; stroke:none;" d="M19 38L20 39L19 38z"/>
<path style="fill:#5f5f5f; stroke:none;" d="M22 38L23 39L22 38z"/>
<path style="fill:#2f2f2f; stroke:none;" d="M25 38L26 39L25 38M29 38L30 39L29 38M31 38L32 39L31 38M101 38L102 39L101 38z"/>
<path style="fill:#9f9f9f; stroke:none;" d="M139 38L140 39L139 38z"/>
<path style="fill:#2f2f2f; stroke:none;" d="M13 39L14 40L13 39z"/>
<path style="fill:#9f9f9f; stroke:none;" d="M17.6667 39.3333L18.3333 39.6667L17.6667 39.3333z"/>
<path style="fill:#5f5f5f; stroke:none;" d="M20 39L21 40L20 39z"/>
<path style="fill:#9f9f9f; stroke:none;" d="M25 39L26 40L25 39z"/>
<path style="fill:#5f5f5f; stroke:none;" d="M28 39L29 40L28 39z"/>
<path style="fill:#2f2f2f; stroke:none;" d="M30 39L31 40L30 39M139 39L140 40L139 39z"/>
<path style="fill:#5f5f5f; stroke:none;" d="M11 40L12 41L11 40z"/>
<path style="fill:#2f2f2f; stroke:none;" d="M14 40L15 41L14 40M16 40L17 41L16 40z"/>
<path style="fill:#fefefe; stroke:none;" d="M17 40L18 41L17 40z"/>
<path style="fill:#5f5f5f; stroke:none;" d="M24 40L25 41L24 40z"/>
<path style="fill:#9f9f9f; stroke:none;" d="M27 40L28 41L27 40M30 40L31 41L30 40M102 40L103 41L102 40M140 40L141 41L140 40z"/>
<path style="fill:#5f5f5f; stroke:none;" d="M12 41L13 42L12 41z"/>
<path style="fill:#9f9f9f; stroke:none;" d="M16 41C9.54927 56.5146 4.70371 73.2515 10 90L11 90C9.00948 79.7359 8.28835 70.2963 10.6512 60C11.9508 54.3372 16.9287 46.5496 16 41z"/>
<path style="fill:#5f5f5f; stroke:none;" d="M17 41L18 42L17 41M19.6667 41.3333L20.3333 41.6667L19.6667 41.3333z"/>
<path style="fill:#2f2f2f; stroke:none;" d="M23 41L24 42L23 41z"/>
<path style="fill:#9f9f9f; stroke:none;" d="M26 41L27 42L26 41z"/>
<path style="fill:#5f5f5f; stroke:none;" d="M29 41L30 42L29 41z"/>
<path style="fill:#9f9f9f; stroke:none;" d="M103 41L104 42L103 41z"/>
<path style="fill:#2f2f2f; stroke:none;" d="M140 41L141 42L140 41z"/>
<path style="fill:#5f5f5f; stroke:none;" d="M10 42L11 43L10 42z"/>
<path style="fill:#2f2f2f; stroke:none;" d="M13 42L14 43L13 42z"/>
<path style="fill:#5f5f5f; stroke:none;" d="M15 42L16 43L15 42z"/>
<path style="fill:#2f2f2f; stroke:none;" d="M18 42L19 43L18 42z"/>
<path style="fill:#9f9f9f; stroke:none;" d="M19 42L20 43L19 42M23 42L24 43L23 42z"/>
<path style="fill:#2f2f2f; stroke:none;" d="M26 42L27 43L26 42M28 42L29 43L28 42z"/>
<path style="fill:#9f9f9f; stroke:none;" d="M104 42L105 43L104 42M141 42L142 43L141 42z"/>
<path style="fill:#5f5f5f; stroke:none;" d="M11 43L12 44L11 43M16 43L17 44L16 43M18.6667 43.3333L19.3333 43.6667L18.6667 43.3333z"/>
<path style="fill:#2f2f2f; stroke:none;" d="M22 43L23 44L22 43z"/>
<path style="fill:#9f9f9f; stroke:none;" d="M25 43L26 44L25 43M28 43L29 44L28 43M105 43L106 44L105 43z"/>
<path style="fill:#5f5f5f; stroke:none;" d="M141 43L142 44L141 43M9 44L10 45L9 44z"/>
<path style="fill:#2f2f2f; stroke:none;" d="M12 44L13 45L12 44z"/>
<path style="fill:#5f5f5f; stroke:none;" d="M14 44L15 45L14 44z"/>
<path style="fill:#2f2f2f; stroke:none;" d="M17 44L18 45L17 44z"/>
<path style="fill:#9f9f9f; stroke:none;" d="M18 44L19 45L18 44M22 44L23 45L22 44z"/>
<path style="fill:#2f2f2f; stroke:none;" d="M25 44L26 45L25 44M27 44L28 45L27 44z"/>
<path style="fill:#9f9f9f; stroke:none;" d="M106 44L107 45L106 44z"/>
<path style="fill:#5f5f5f; stroke:none;" d="M10 45L11 46L10 45M15 45L16 46L15 45M17.6667 45.3333L18.3333 45.6667L17.6667 45.3333z"/>
<path style="fill:#2f2f2f; stroke:none;" d="M21 45L22 46L21 45z"/>
<path style="fill:#5f5f5f; stroke:none;" d="M24 45L25 46L24 45z"/>
<path style="fill:#9f9f9f; stroke:none;" d="M27 45L28 46L27 45M107 45L108 46L107 45z"/>
<path style="fill:#5f5f5f; stroke:none;" d="M142 45L143 46L142 45M8 46L9 47L8 46z"/>
<path style="fill:#2f2f2f; stroke:none;" d="M11 46L12 47L11 46z"/>
<path style="fill:#5f5f5f; stroke:none;" d="M13 46L14 47L13 46z"/>
<path style="fill:#9f9f9f; stroke:none;" d="M17 46L18 47L17 46M21 46L22 47L21 46z"/>
<path style="fill:#2f2f2f; stroke:none;" d="M26 46L27 47L26 46z"/>
<path style="fill:#9f9f9f; stroke:none;" d="M108 46L109 47L108 46z"/>
<path style="fill:#2f2f2f; stroke:none;" d="M142 46L143 47L142 46M9 47L10 48L9 47z"/>
<path style="fill:#5f5f5f; stroke:none;" d="M14 47L15 48L14 47M16.6667 47.3333L17.3333 47.6667L16.6667 47.3333z"/>
<path style="fill:#2f2f2f; stroke:none;" d="M20 47L21 48L20 47z"/>
<path style="fill:#5f5f5f; stroke:none;" d="M23 47L24 48L23 47z"/>
<path style="fill:#9f9f9f; stroke:none;" d="M26 47L27 48L26 47z"/>
<path style="fill:#5f5f5f; stroke:none;" d="M109 47L110 48L109 47z"/>
<path style="fill:#9f9f9f; stroke:none;" d="M143 47L144 48L143 47M7 48L8 49L7 48z"/>
<path style="fill:#5f5f5f; stroke:none;" d="M10 48L11 49L10 48z"/>
<path style="fill:#2f2f2f; stroke:none;" d="M12 48L13 49L12 48z"/>
<path style="fill:#9f9f9f; stroke:none;" d="M16 48L15 52L16 52L16 48z"/>
<path style="fill:#2f2f2f; stroke:none;" d="M17 48L18 49L17 48z"/>
<path style="fill:#9f9f9f; stroke:none;" d="M20 48L21 49L20 48z"/>
<path style="fill:#2f2f2f; stroke:none;" d="M25 48L26 49L25 48M110 48L111 49L110 48z"/>
<path style="fill:#5f5f5f; stroke:none;" d="M143 48L144 49L143 48z"/>
<path style="fill:#2f2f2f; stroke:none;" d="M7 49L8 50L7 49z"/>
<path style="fill:#5f5f5f; stroke:none;" d="M15 49L16 50L15 49M22 49L23 50L22 49z"/>
<path style="fill:#9f9f9f; stroke:none;" d="M25 49L26 50L25 49M110 49L111 50L110 49z"/>
<path style="fill:#2f2f2f; stroke:none;" d="M143 49L144 50L143 49z"/>
<path style="fill:#5f5f5f; stroke:none;" d="M8.66667 50.3333L9.33333 50.6667L8.66667 50.3333z"/>
<path style="fill:#2f2f2f; stroke:none;" d="M13 50L14 51L13 50M16 50L17 51L16 50z"/>
<path style="fill:#5f5f5f; stroke:none;" d="M19 50L20 51L19 50z"/>
<path style="fill:#2f2f2f; stroke:none;" d="M22 50L23 51L22 50z"/>
<path style="fill:#9f9f9f; stroke:none;" d="M111 50L112 51L111 50M144 50L145 51L144 50M6 51L7 52L6 51M8.33333 51.6667L8.66667 52.3333L8.33333 51.6667z"/>
<path style="fill:#2f2f2f; stroke:none;" d="M9 51L10 52L9 51z"/>
<path style="fill:#5f5f5f; stroke:none;" d="M11 51L12 52L11 51z"/>
<path style="fill:#2f2f2f; stroke:none;" d="M14 51L15 52L14 51z"/>
<path style="fill:#9f9f9f; stroke:none;" d="M19 51L20 52L19 51M21 51L22 52L21 51z"/>
<path style="fill:#5f5f5f; stroke:none;" d="M24 51L25 52L24 51z"/>
<path style="fill:#2f2f2f; stroke:none;" d="M112 51L113 52L112 51z"/>
<path style="fill:#5f5f5f; stroke:none;" d="M144 51L145 52L144 51z"/>
<path style="fill:#2f2f2f; stroke:none;" d="M6.66667 52.3333L7.33333 52.6667L6.66667 52.3333z"/>
<path style="fill:#5f5f5f; stroke:none;" d="M12 52L13 53L12 52M14.6667 52.3333L15.3333 52.6667L14.6667 52.3333z"/>
<path style="fill:#2f2f2f; stroke:none;" d="M18 52L19 53L18 52M21 52L22 53L21 52z"/>
<path style="fill:#9f9f9f; stroke:none;" d="M24 52L25 53L24 52M112 52L113 53L112 52z"/>
<path style="fill:#2f2f2f; stroke:none;" d="M144 52L145 53L144 52z"/>
<path style="fill:#030303; stroke:none;" d="M6 53L6 56L7 56L6 53z"/>
<path style="fill:#5f5f5f; stroke:none;" d="M7.66667 53.3333L8.33333 53.6667L7.66667 53.3333z"/>
<path style="fill:#2f2f2f; stroke:none;" d="M12 53L13 54L12 53z"/>
<path style="fill:#9f9f9f; stroke:none;" d="M14.3333 53.6667L14.6667 54.3333L14.3333 53.6667z"/>
<path style="fill:#2f2f2f; stroke:none;" d="M15 53L16 54L15 53z"/>
<path style="fill:#5f5f5f; stroke:none;" d="M18 53L19 54L18 53z"/>
<path style="fill:#2f2f2f; stroke:none;" d="M23 53L24 54L23 53z"/>
<path style="fill:#5f5f5f; stroke:none;" d="M113 53L114 54L113 53z"/>
<path style="fill:#9f9f9f; stroke:none;" d="M145.333 53.6667L145.667 54.3333L145.333 53.6667M5 54L6 55L5 54M7.33333 54.6667L7.66667 55.3333L7.33333 54.6667z"/>
<path style="fill:#2f2f2f; stroke:none;" d="M8 54L9 55L8 54z"/>
<path style="fill:#5f5f5f; stroke:none;" d="M10 54L11 55L10 54z"/>
<path style="fill:#9f9f9f; stroke:none;" d="M18 54L19 55L18 54M20 54L21 55L20 54z"/>
<path style="fill:#5f5f5f; stroke:none;" d="M23 54L24 55L23 54M5 55L8 58L5 55M13 55L13 57L15 55L13 55z"/>
<path style="fill:#2f2f2f; stroke:none;" d="M17 55L18 56L17 55M20 55L21 56L20 55z"/>
<path style="fill:#9f9f9f; stroke:none;" d="M23 55L24 56L23 55z"/>
<path style="fill:#5f5f5f; stroke:none;" d="M114 55L115 56L114 55M145 55L146 56L145 55z"/>
<path style="fill:#2f2f2f; stroke:none;" d="M5 56L6 57L5 56z"/>
<path style="fill:#5f5f5f; stroke:none;" d="M11 56L12 57L11 56z"/>
<path style="fill:#2f2f2f; stroke:none;" d="M14 56L15 57L14 56z"/>
<path style="fill:#5f5f5f; stroke:none;" d="M17 56L18 57L17 56z"/>
<path style="fill:#030303; stroke:none;" d="M5 57L5 60L6 60L5 57z"/>
<path style="fill:#2f2f2f; stroke:none;" d="M9 57L10 58L9 57z"/>
<path style="fill:#9f9f9f; stroke:none;" d="M13.3333 57.6667L13.6667 58.3333L13.3333 57.6667M17.3333 57.6667L17.6667 58.3333L17.3333 57.6667M19 57L20 58L19 57z"/>
<path style="fill:#2f2f2f; stroke:none;" d="M22 57L23 58L22 57z"/>
<path style="fill:#5f5f5f; stroke:none;" d="M115 57L116 58L115 57z"/>
<path style="fill:#9f9f9f; stroke:none;" d="M146.333 57.6667L146.667 58.3333L146.333 57.6667M4 58L5 59L4 58M6.33333 58.6667L6.66667 59.3333L6.33333 58.6667z"/>
<path style="fill:#2f2f2f; stroke:none;" d="M7 58L8 59L7 58z"/>
<path style="fill:#5f5f5f; stroke:none;" d="M9 58L10 59L9 58z"/>
<path style="fill:#2f2f2f; stroke:none;" d="M12 58L13 59L12 58z"/>
<path style="fill:#5f5f5f; stroke:none;" d="M19 58L20 59L19 58M22 58L23 59L22 58z"/>
<path style="fill:#9f9f9f; stroke:none;" d="M115 58L116 59L115 58z"/>
<path style="fill:#5f5f5f; stroke:none;" d="M4 59L5 60L4 59M12 59L12 61L14 61L14 59L12 59z"/>
<path style="fill:#2f2f2f; stroke:none;" d="M19 59L20 60L19 59z"/>
<path style="fill:#9f9f9f; stroke:none;" d="M22 59L23 60L22 59z"/>
<path style="fill:#2f2f2f; stroke:none;" d="M116 59L117 60L116 59z"/>
<path style="fill:#5f5f5f; stroke:none;" d="M146 59L147 60L146 59z"/>
<path style="fill:#2f2f2f; stroke:none;" d="M4.66667 60.3333L5.33333 60.6667L4.66667 60.3333z"/>
<path style="fill:#5f5f5f; stroke:none;" d="M6 60L5 62L7 62L6 60M10 60L11 61L10 60z"/>
<path style="fill:#2f2f2f; stroke:none;" d="M16 60L17 61L16 60z"/>
<path style="fill:#9f9f9f; stroke:none;" d="M18.3333 60.6667L18.6667 61.3333L18.3333 60.6667M116 60L117 61L116 60z"/>
<path style="fill:#2f2f2f; stroke:none;" d="M146.333 60.6667L146.667 61.3333L146.333 60.6667z"/>
<path style="fill:#030303; stroke:none;" d="M4 61L4 65L5 65L4 61z"/>
<path style="fill:#2f2f2f; stroke:none;" d="M10 61L11 62L10 61z"/>
<path style="fill:#9f9f9f; stroke:none;" d="M12 61L12 65L13 65L12 61z"/>
<path style="fill:#2f2f2f; stroke:none;" d="M13 61L14 62L13 61z"/>
<path style="fill:#5f5f5f; stroke:none;" d="M16 61L17 62L16 61z"/>
<path style="fill:#2f2f2f; stroke:none;" d="M21 61L22 62L21 61z"/>
<path style="fill:#9f9f9f; stroke:none;" d="M3.33333 62.6667L3.66667 63.3333L3.33333 62.6667M5 62L5 65L6 65L5 62z"/>
<path style="fill:#2f2f2f; stroke:none;" d="M6 62L7 63L6 62M8 62L9 63L8 62z"/>
<path style="fill:#9f9f9f; stroke:none;" d="M16 62L16 65L17 65L16 62z"/>
<path style="fill:#5f5f5f; stroke:none;" d="M18.3333 62.6667L18.6667 63.3333L18.3333 62.6667M21.3333 62.6667L21.6667 63.3333L21.3333 62.6667z"/>
<path style="fill:#2f2f2f; stroke:none;" d="M117 62L118 63L117 62z"/>
<path style="fill:#5f5f5f; stroke:none;" d="M8.33333 63.6667L8.66667 64.3333L8.33333 63.6667M117 63L118 64L117 63z"/>
<path style="fill:#9f9f9f; stroke:none;" d="M147 63L147 66L148 66L147 63z"/>
<path style="fill:#5f5f5f; stroke:none;" d="M3 64L4 65L3 64z"/>
<path style="fill:#2f2f2f; stroke:none;" d="M11.3333 64.6667L11.6667 65.3333L11.3333 64.6667M18 64L19 65L18 64z"/>
<path style="fill:#9f9f9f; stroke:none;" d="M21 64L21 67L22 67L21 64M117 64L118 65L117 64z"/>
<path style="fill:#2f2f2f; stroke:none;" d="M3 65L5 67L5 65L3 65z"/>
<path style="fill:#5f5f5f; stroke:none;" d="M5 65L4 70L5 70L5 65M9 65L9 68L10 68L9 65M12 65L11 71L12 71L12 65z"/>
<path style="fill:#030303; stroke:none;" d="M3 66L3 83L4 83L3 66z"/>
<path style="fill:#2f2f2f; stroke:none;" d="M118 66L119 67L118 66z"/>
<path style="fill:#5f5f5f; stroke:none;" d="M147 66L147 69L148 69L147 66z"/>
<path style="fill:#2f2f2f; stroke:none;" d="M15 67L15 71L16 71L15 67z"/>
<path style="fill:#9f9f9f; stroke:none;" d="M17 67L17 72L18 72L17 67z"/>
<path style="fill:#5f5f5f; stroke:none;" d="M118 67L119 68L118 67z"/>
<path style="fill:#9f9f9f; stroke:none;" d="M2 68L2 80L3 80L2 68z"/>
<path style="fill:#2f2f2f; stroke:none;" d="M5 68L5 75L6 75L5 68M9.33333 68.6667L9.66667 69.3333L9.33333 68.6667z"/>
<path style="fill:#9f9f9f; stroke:none;" d="M118.333 68.6667L118.667 69.3333L118.333 68.6667z"/>
<path style="fill:#2f2f2f; stroke:none;" d="M12 69L12 78L13 78L12 69M147 69L147 77L148 77L147 69z"/>
<path style="fill:#9f9f9f; stroke:none;" d="M4 70L4 76L5 76L4 70z"/>
<path style="fill:#2f2f2f; stroke:none;" d="M7 70L7 78L8 78L7 70M20 70L20 73L21 73L20 70z"/>
<path style="fill:#9f9f9f; stroke:none;" d="M11 71L11 74L12 74L11 71z"/>
<path style="fill:#5f5f5f; stroke:none;" d="M15.3333 71.6667L15.6667 72.3333L15.3333 71.6667M17 72L18 73L17 72z"/>
<path style="fill:#2f2f2f; stroke:none;" d="M119 72L119 76L120 76L119 72M15 73L15 76L16 76L15 73z"/>
<path style="fill:#9f9f9f; stroke:none;" d="M17 73L16 81L17 81L17 73z"/>
<path style="fill:#5f5f5f; stroke:none;" d="M11 74L12 81L13 81L11 74M4 76C4.16932 96.4542 14.0935 118.091 31 130L11.3125 103L4 76z"/>
<path style="fill:#2f2f2f; stroke:none;" d="M5 76L5 82L6 82L5 76z"/>
<path style="fill:#9f9f9f; stroke:none;" d="M21.3333 76.6667L21.6667 77.3333L21.3333 76.6667z"/>
<path style="fill:#5f5f5f; stroke:none;" d="M119.333 76.6667L119.667 77.3333L119.333 76.6667M147 77L147 80L148 80L147 77z"/>
<path style="fill:#2f2f2f; stroke:none;" d="M9 78L9 81L10 81L9 78z"/>
<path style="fill:#5f5f5f; stroke:none;" d="M21.3333 78.6667L21.6667 79.3333L21.3333 78.6667z"/>
<path style="fill:#2f2f2f; stroke:none;" d="M119 78L119 81L120 81L119 78M11 79L11 82L12 82L11 79z"/>
<path style="fill:#fefefe; stroke:none;" d="M17 79L17 84L18 84L17 79z"/>
<path style="fill:#2f2f2f; stroke:none;" d="M21 80L22 81L21 80z"/>
<path style="fill:#9f9f9f; stroke:none;" d="M147 80L147 83L148 83L147 80z"/>
<path style="fill:#5f5f5f; stroke:none;" d="M9.33333 81.6667L9.66667 82.3333L9.33333 81.6667z"/>
<path style="fill:#9f9f9f; stroke:none;" d="M12.3333 81.6667L12.6667 82.3333L12.3333 81.6667z"/>
<path style="fill:#5f5f5f; stroke:none;" d="M16 81L17 82L16 81z"/>
<path style="fill:#2f2f2f; stroke:none;" d="M18 81L19 82L18 81M16 82L17 83L16 82z"/>
<path style="fill:#5f5f5f; stroke:none;" d="M18 82L19 83L18 82z"/>
<path style="fill:#9f9f9f; stroke:none;" d="M22.3333 82.6667L22.6667 83.3333L22.3333 82.6667M118 82L119 83L118 82z"/>
<path style="fill:#2f2f2f; stroke:none;" d="M3 83L3 85L5 85L5 83L3 83z"/>
<path style="fill:#5f5f5f; stroke:none;" d="M8.33333 83.6667L8.66667 84.3333L8.33333 83.6667M12 83L14 91L15 91L12 83z"/>
<path style="fill:#2f2f2f; stroke:none;" d="M13.3333 83.6667L13.6667 84.3333L13.3333 83.6667z"/>
<path style="fill:#9f9f9f; stroke:none;" d="M18 83L17 86L18 83z"/>
<path style="fill:#5f5f5f; stroke:none;" d="M118.333 83.6667L118.667 84.3333L118.333 83.6667M22 84L23 85L22 84M3 85L4 86L3 85z"/>
<path style="fill:#2f2f2f; stroke:none;" d="M8 85L9 86L8 85z"/>
<path style="fill:#fefefe; stroke:none;" d="M18 85L18 88L19 88L18 85z"/>
<path style="fill:#2f2f2f; stroke:none;" d="M22 85L23 86L22 85M118 85L119 86L118 85M146 85L147 86L146 85z"/>
<path style="fill:#9f9f9f; stroke:none;" d="M3 86L3 89L4 89L3 86z"/>
<path style="fill:#2f2f2f; stroke:none;" d="M10 86L11 87L10 86M12 86L13 87L12 86z"/>
<path style="fill:#5f5f5f; stroke:none;" d="M17 86L18 87L17 86z"/>
<path style="fill:#2f2f2f; stroke:none;" d="M19 86L20 87L19 86z"/>
<path style="fill:#9f9f9f; stroke:none;" d="M23 86L24 87L23 86z"/>
<path style="fill:#5f5f5f; stroke:none;" d="M146.333 86.6667L146.667 87.3333L146.333 86.6667z"/>
<path style="fill:#2f2f2f; stroke:none;" d="M6.33333 87.6667L6.66667 88.3333L6.33333 87.6667z"/>
<path style="fill:#5f5f5f; stroke:none;" d="M10 87L11 88L10 87M19 87L20 88L19 87M23 87L24 88L23 87z"/>
<path style="fill:#9f9f9f; stroke:none;" d="M117.333 87.6667L117.667 88.3333L117.333 87.6667z"/>
<path style="fill:#2f2f2f; stroke:none;" d="M14 88L15 89L14 88z"/>
<path style="fill:#9f9f9f; stroke:none;" d="M18.6667 88.3333L19.3333 88.6667L18.6667 88.3333z"/>
<path style="fill:#2f2f2f; stroke:none;" d="M23 88L24 89L23 88z"/>
<path style="fill:#9f9f9f; stroke:none;" d="M146 88L147 89L146 88z"/>
<path style="fill:#2f2f2f; stroke:none;" d="M5 89L6 90L5 89z"/>
<path style="fill:#5f5f5f; stroke:none;" d="M9 89L10 90L9 89M18 89L19 90L18 89z"/>
<path style="fill:#fefefe; stroke:none;" d="M19.3333 89.6667L19.6667 90.3333L19.3333 89.6667z"/>
<path style="fill:#2f2f2f; stroke:none;" d="M20 89L21 90L20 89z"/>
<path style="fill:#9f9f9f; stroke:none;" d="M24 89L25 90L24 89z"/>
<path style="fill:#2f2f2f; stroke:none;" d="M117 89L118 90L117 89M4 90L5 91L4 90z"/>
<path style="fill:#fefefe; stroke:none;" d="M10 90L11 91L10 90z"/>
<path style="fill:#2f2f2f; stroke:none;" d="M13 90L14 91L13 90M18 90L19 91L18 90z"/>
<path style="fill:#5f5f5f; stroke:none;" d="M20 90L21 91L20 90M24 90L25 91L24 90z"/>
<path style="fill:#2f2f2f; stroke:none;" d="M145 90L146 91L145 90z"/>
<path style="fill:#5f5f5f; stroke:none;" d="M4 91L5 92L4 91z"/>
<path style="fill:#9f9f9f; stroke:none;" d="M10 91C15.3502 113.577 35.5884 134.543 59 138L59 137C43.1221 133.325 29.1528 123.526 20.0895 110C16.139 104.104 14.4113 96.3119 10 91z"/>
<path style="fill:#2f2f2f; stroke:none;" d="M11 91L12 92L11 91z"/>
<path style="fill:#9f9f9f; stroke:none;" d="M14 91L15 92L14 91z"/>
<path style="fill:#2f2f2f; stroke:none;" d="M15 91L16 92L15 91z"/>
<path style="fill:#9f9f9f; stroke:none;" d="M19.6667 91.3333L20.3333 91.6667L19.6667 91.3333M116 91L117 92L116 91z"/>
<path style="fill:#5f5f5f; stroke:none;" d="M145 91L146 92L145 91z"/>
<path style="fill:#9f9f9f; stroke:none;" d="M4 92L5 93L4 92z"/>
<path style="fill:#2f2f2f; stroke:none;" d="M7 92L8 93L7 92z"/>
<path style="fill:#5f5f5f; stroke:none;" d="M14.6667 92.3333L15.3333 92.6667L14.6667 92.3333M19 92L20 93L19 92z"/>
<path style="fill:#fefefe; stroke:none;" d="M20 92L21 96L22 96L20 92z"/>
<path style="fill:#2f2f2f; stroke:none;" d="M21 92L22 93L21 92z"/>
<path style="fill:#5f5f5f; stroke:none;" d="M25 92L26 93L25 92z"/>
<path style="fill:#2f2f2f; stroke:none;" d="M116 92L117 93L116 92z"/>
<path style="fill:#9f9f9f; stroke:none;" d="M145 92L146 93L145 92z"/>
<path style="fill:#2f2f2f; stroke:none;" d="M6 93L7 94L6 93M10 93L11 94L10 93M14 93L15 94L14 93z"/>
<path style="fill:#9f9f9f; stroke:none;" d="M15.3333 93.6667L15.6667 94.3333L15.3333 93.6667z"/>
<path style="fill:#5f5f5f; stroke:none;" d="M21 93L22 94L21 93z"/>
<path style="fill:#2f2f2f; stroke:none;" d="M25 93L26 94L25 93z"/>
<path style="fill:#9f9f9f; stroke:none;" d="M115 93L116 94L115 93z"/>
<path style="fill:#2f2f2f; stroke:none;" d="M5 94L6 95L5 94M12 94L13 95L12 94M16 94L17 95L16 94z"/>
<path style="fill:#9f9f9f; stroke:none;" d="M20 94L21 95L20 94z"/>
<path style="fill:#5f5f5f; stroke:none;" d="M26 94L27 95L26 94z"/>
<path style="fill:#2f2f2f; stroke:none;" d="M115 94L116 95L115 94z"/>
<path style="fill:#5f5f5f; stroke:none;" d="M144 94L145 95L144 94M5 95L6 96L5 95z"/>
<path style="fill:#2f2f2f; stroke:none;" d="M8 95L9 96L8 95z"/>
<path style="fill:#5f5f5f; stroke:none;" d="M12 95L13 96L12 95M15.6667 95.3333L16.3333 95.6667L15.6667 95.3333z"/>
<path style="fill:#2f2f2f; stroke:none;" d="M20 95L21 96L20 95z"/>
<path style="fill:#5f5f5f; stroke:none;" d="M22 95L23 96L22 95z"/>
<path style="fill:#9f9f9f; stroke:none;" d="M114 95L115 96L114 95M144 95L145 96L144 95M5 96L6 97L5 96z"/>
<path style="fill:#2f2f2f; stroke:none;" d="M11 96L12 97L11 96z"/>
<path style="fill:#9f9f9f; stroke:none;" d="M16 96L17 97L16 96M21.6667 96.3333L22.3333 96.6667L21.6667 96.3333z"/>
<path style="fill:#5f5f5f; stroke:none;" d="M27 96L28 97L27 96M114 96L115 97L114 96z"/>
<path style="fill:#2f2f2f; stroke:none;" d="M6 97L7 98L6 97M13 97L14 98L13 97z"/>
<path style="fill:#5f5f5f; stroke:none;" d="M16 97L21 104L16 97z"/>
<path style="fill:#2f2f2f; stroke:none;" d="M17 97L18 98L17 97M21 97L22 98L21 97z"/>
<path style="fill:#fefefe; stroke:none;" d="M22 97L23 98L22 97z"/>
<path style="fill:#5f5f5f; stroke:none;" d="M23 97L24 98L23 97z"/>
<path style="fill:#9f9f9f; stroke:none;" d="M28 97L29 98L28 97M113 97L114 98L113 97z"/>
<path style="fill:#2f2f2f; stroke:none;" d="M143 97L144 98L143 97z"/>
<path style="fill:#9f9f9f; stroke:none;" d="M6 98L7 99L6 98z"/>
<path style="fill:#2f2f2f; stroke:none;" d="M9 98L10 99L9 98z"/>
<path style="fill:#5f5f5f; stroke:none;" d="M12 98L13 99L12 98z"/>
<path style="fill:#2f2f2f; stroke:none;" d="M16 98L17 99L16 98z"/>
<path style="fill:#9f9f9f; stroke:none;" d="M22.6667 98.3333L23.3333 98.6667L22.6667 98.3333z"/>
<path style="fill:#5f5f5f; stroke:none;" d="M28 98L29 99L28 98M113 98L114 99L113 98z"/>
<path style="fill:#9f9f9f; stroke:none;" d="M143 98L144 99L143 98z"/>
<path style="fill:#2f2f2f; stroke:none;" d="M8 99L9 100L8 99M18 99L19 100L18 99M22 99L23 100L22 99z"/>
<path style="fill:#fefefe; stroke:none;" d="M23 99L25 103L26 103L23 99z"/>
<path style="fill:#5f5f5f; stroke:none;" d="M24 99L25 100L24 99z"/>
<path style="fill:#9f9f9f; stroke:none;" d="M29 99L30 100L29 99M112 99L113 100L112 99z"/>
<path style="fill:#5f5f5f; stroke:none;" d="M7 100L8 101L7 100M14 100L15 101L14 100z"/>
<path style="fill:#2f2f2f; stroke:none;" d="M17 100L18 101L17 100z"/>
<path style="fill:#9f9f9f; stroke:none;" d="M23 100L24 101L23 100z"/>
<path style="fill:#2f2f2f; stroke:none;" d="M29 100L30 101L29 100M112 100L113 101L112 100z"/>
<path style="fill:#5f5f5f; stroke:none;" d="M142 100L143 101L142 100z"/>
<path style="fill:#9f9f9f; stroke:none;" d="M7 101L8 102L7 101z"/>
<path style="fill:#2f2f2f; stroke:none;" d="M10 101L11 102L10 101M13 101L14 102L13 101M19 101L20 102L19 101z"/>
<path style="fill:#9f9f9f; stroke:none;" d="M25 101L26 102L25 101z"/>
<path style="fill:#5f5f5f; stroke:none;" d="M30 101L31 102L30 101z"/>
<path style="fill:#9f9f9f; stroke:none;" d="M111 101L112 102L111 101M142 101L143 102L142 101z"/>
<path style="fill:#2f2f2f; stroke:none;" d="M8 102L9 103L8 102z"/>
<path style="fill:#5f5f5f; stroke:none;" d="M15 102L16 103L15 102z"/>
<path style="fill:#2f2f2f; stroke:none;" d="M18 102L19 103L18 102z"/>
<path style="fill:#5f5f5f; stroke:none;" d="M24 102L25 103L24 102z"/>
<path style="fill:#2f2f2f; stroke:none;" d="M26 102L27 103L26 102z"/>
<path style="fill:#9f9f9f; stroke:none;" d="M31 102L32 103L31 102M110 102L111 103L110 102z"/>
<path style="fill:#2f2f2f; stroke:none;" d="M141 102L142 103L141 102z"/>
<path style="fill:#9f9f9f; stroke:none;" d="M8 103L9 104L8 103z"/>
<path style="fill:#2f2f2f; stroke:none;" d="M11 103L12 104L11 103M14 103L15 104L14 103z"/>
<path style="fill:#9f9f9f; stroke:none;" d="M25.6667 103.333L26.3333 103.667L25.6667 103.333z"/>
<path style="fill:#2f2f2f; stroke:none;" d="M110 103L111 104L110 103z"/>
<path style="fill:#9f9f9f; stroke:none;" d="M141 103L142 104L141 103z"/>
<path style="fill:#2f2f2f; stroke:none;" d="M10 104L11 105L10 104z"/>
<path style="fill:#5f5f5f; stroke:none;" d="M16 104L17 105L16 104z"/>
<path style="fill:#9f9f9f; stroke:none;" d="M20 104L21 105L20 104z"/>
<path style="fill:#fefefe; stroke:none;" d="M26 104L29 107L26 104z"/>
<path style="fill:#5f5f5f; stroke:none;" d="M27 104L28 105L27 104z"/>
<path style="fill:#2f2f2f; stroke:none;" d="M32 104L33 105L32 104M109 104L110 105L109 104M140 104L141 105L140 104z"/>
<path style="fill:#5f5f5f; stroke:none;" d="M9 105L10 106L9 105z"/>
<path style="fill:#2f2f2f; stroke:none;" d="M12 105L13 106L12 105M15 105L16 106L15 105z"/>
<path style="fill:#5f5f5f; stroke:none;" d="M20 105L22 107L22 105L20 105M26 105L27 106L26 105z"/>
<path style="fill:#2f2f2f; stroke:none;" d="M28 105L29 106L28 105M33 105L34 106L33 105z"/>
<path style="fill:#5f5f5f; stroke:none;" d="M108 105L109 106L108 105M140 105L141 106L140 105z"/>
<path style="fill:#2f2f2f; stroke:none;" d="M11 106L12 107L11 106M22 106L21 108L22 106z"/>
<path style="fill:#9f9f9f; stroke:none;" d="M27 106L28 107L27 106z"/>
<path style="fill:#2f2f2f; stroke:none;" d="M34 106L35 107L34 106z"/>
<path style="fill:#9f9f9f; stroke:none;" d="M107 106L108 107L107 106z"/>
<path style="fill:#2f2f2f; stroke:none;" d="M139 106L140 107L139 106z"/>
<path style="fill:#5f5f5f; stroke:none;" d="M10 107L11 108L10 107z"/>
<path style="fill:#2f2f2f; stroke:none;" d="M13 107L14 108L13 107M18 107L19 108L18 107z"/>
<path style="fill:#9f9f9f; stroke:none;" d="M22 107L23 108L22 107M28.6667 107.333L29.3333 107.667L28.6667 107.333z"/>
<path style="fill:#5f5f5f; stroke:none;" d="M35 107L36 108L35 107z"/>
<path style="fill:#9f9f9f; stroke:none;" d="M106 107L107 108L106 107M139 107L140 108L139 107z"/>
<path style="fill:#2f2f2f; stroke:none;" d="M12 108L13 109L12 108z"/>
<path style="fill:#5f5f5f; stroke:none;" d="M17 108L18 109L17 108M22 108L24 110L24 108L22 108z"/>
<path style="fill:#fefefe; stroke:none;" d="M29 108L36 115L29 108z"/>
<path style="fill:#5f5f5f; stroke:none;" d="M30 108L31 109L30 108z"/>
<path style="fill:#2f2f2f; stroke:none;" d="M36 108L37 109L36 108z"/>
<path style="fill:#9f9f9f; stroke:none;" d="M105 108L106 109L105 108z"/>
<path style="fill:#2f2f2f; stroke:none;" d="M138 108L139 109L138 108z"/>
<path style="fill:#5f5f5f; stroke:none;" d="M11 109L12 110L11 109z"/>
<path style="fill:#2f2f2f; stroke:none;" d="M14 109L15 110L14 109z"/>
<path style="fill:#5f5f5f; stroke:none;" d="M19 109L20 110L19 109z"/>
<path style="fill:#2f2f2f; stroke:none;" d="M24 109L25 110L24 109M29 109L30 110L29 109z"/>
<path style="fill:#5f5f5f; stroke:none;" d="M31 109L32 110L31 109z"/>
<path style="fill:#2f2f2f; stroke:none;" d="M37 109L38 110L37 109z"/>
<path style="fill:#9f9f9f; stroke:none;" d="M104 109L105 110L104 109M138 109L139 110L138 109z"/>
<path style="fill:#2f2f2f; stroke:none;" d="M18 110L19 111L18 110M20 110L21 111L20 110z"/>
<path style="fill:#9f9f9f; stroke:none;" d="M24 110L25 111L24 110z"/>
<path style="fill:#2f2f2f; stroke:none;" d="M30 110L31 111L30 110M32 110L33 111L32 110M38 110L39 111L38 110z"/>
<path style="fill:#9f9f9f; stroke:none;" d="M103 110L104 111L103 110z"/>
<path style="fill:#2f2f2f; stroke:none;" d="M137 110L138 111L137 110z"/>
<path style="fill:#9f9f9f; stroke:none;" d="M12 111L13 112L12 111z"/>
<path style="fill:#5f5f5f; stroke:none;" d="M19 111L20 112L19 111z"/>
<path style="fill:#2f2f2f; stroke:none;" d="M24 111L25 112L24 111z"/>
<path style="fill:#5f5f5f; stroke:none;" d="M25 111L32 119L25 111z"/>
<path style="fill:#2f2f2f; stroke:none;" d="M31 111L32 112L31 111M33 111L34 112L33 111M39 111L40 112L39 111z"/>
<path style="fill:#9f9f9f; stroke:none;" d="M40 111L41 112L40 111z"/>
<path style="fill:#5f5f5f; stroke:none;" d="M102 111L103 112L102 111z"/>
<path style="fill:#9f9f9f; stroke:none;" d="M137 111L138 112L137 111z"/>
<path style="fill:#2f2f2f; stroke:none;" d="M13 112L14 113L13 112M16 112L17 113L16 112z"/>
<path style="fill:#5f5f5f; stroke:none;" d="M21 112L22 113L21 112M32 112L33 113L32 112z"/>
<path style="fill:#2f2f2f; stroke:none;" d="M34 112L35 113L34 112z"/>
<path style="fill:#9f9f9f; stroke:none;" d="M41 112L42 113L41 112z"/>
<path style="fill:#2f2f2f; stroke:none;" d="M101 112L102 113L101 112z"/>
<path style="fill:#5f5f5f; stroke:none;" d="M136 112L137 113L136 112z"/>
<path style="fill:#9f9f9f; stroke:none;" d="M13 113L14 114L13 113z"/>
<path style="fill:#2f2f2f; stroke:none;" d="M15 113L16 114L15 113M20 113L21 114L20 113M22 113L23 114L22 113M33 113L34 114L33 113z"/>
<path style="fill:#5f5f5f; stroke:none;" d="M35 113L36 114L35 113M42 113L43 114L42 113z"/>
<path style="fill:#9f9f9f; stroke:none;" d="M99 113L100 114L99 113z"/>
<path style="fill:#2f2f2f; stroke:none;" d="M100 113L101 114L100 113M135 113L136 114L135 113z"/>
<path style="fill:#5f5f5f; stroke:none;" d="M14 114L15 115L14 114z"/>
<path style="fill:#2f2f2f; stroke:none;" d="M17 114L18 115L17 114z"/>
<path style="fill:#5f5f5f; stroke:none;" d="M21 114L22 115L21 114z"/>
<path style="fill:#2f2f2f; stroke:none;" d="M34 114L35 115L34 114z"/>
<path style="fill:#5f5f5f; stroke:none;" d="M36 114L38 116L36 114z"/>
<path style="fill:#9f9f9f; stroke:none;" d="M44 114L45 115L44 114z"/>
<path style="fill:#5f5f5f; stroke:none;" d="M98 114L99 115L98 114z"/>
<path style="fill:#9f9f9f; stroke:none;" d="M135 114L136 115L135 114z"/>
<path style="fill:#5f5f5f; stroke:none;" d="M22 115L23 116L22 115z"/>
<path style="fill:#2f2f2f; stroke:none;" d="M29 115L30 116L29 115M35 115L36 116L35 115z"/>
<path style="fill:#9f9f9f; stroke:none;" d="M36 115L37 116L36 115z"/>
<path style="fill:#2f2f2f; stroke:none;" d="M45 115L46 116L45 115z"/>
<path style="fill:#9f9f9f; stroke:none;" d="M46 115L47 116L46 115M96 115L97 116L96 115z"/>
<path style="fill:#2f2f2f; stroke:none;" d="M97 115L98 116L97 115z"/>
<path style="fill:#5f5f5f; stroke:none;" d="M134 115L135 116L134 115z"/>
<path style="fill:#9f9f9f; stroke:none;" d="M15 116L16 117L15 116z"/>
<path style="fill:#2f2f2f; stroke:none;" d="M17 116L18 117L17 116M30 116L31 117L30 116z"/>
<path style="fill:#9f9f9f; stroke:none;" d="M37 116L37 117L44 121L44 120L37 116z"/>
<path style="fill:#5f5f5f; stroke:none;" d="M47 116L48 117L47 116M95 116L96 117L95 116z"/>
<path style="fill:#2f2f2f; stroke:none;" d="M133 116L134 117L133 116z"/>
<path style="fill:#5f5f5f; stroke:none;" d="M16 117L17 118L16 117z"/>
<path style="fill:#2f2f2f; stroke:none;" d="M18 117L19 118L18 117z"/>
<path style="fill:#5f5f5f; stroke:none;" d="M25 117L26 118L25 117z"/>
<path style="fill:#2f2f2f; stroke:none;" d="M31 117L32 118L31 117z"/>
<path style="fill:#5f5f5f; stroke:none;" d="M38 117L39 118L38 117z"/>
<path style="fill:#2f2f2f; stroke:none;" d="M40 117L41 118L40 117z"/>
<path style="fill:#5f5f5f; stroke:none;" d="M49 117L50 118L49 117M93 117L94 118L93 117z"/>
<path style="fill:#9f9f9f; stroke:none;" d="M133 117L134 118L133 117z"/>
<path style="fill:#2f2f2f; stroke:none;" d="M17 118L18 119L17 118M20 118L21 119L20 118z"/>
<path style="fill:#5f5f5f; stroke:none;" d="M26 118L27 119L26 118z"/>
<path style="fill:#2f2f2f; stroke:none;" d="M32 118L35 121L32 118M39 118L40 119L39 118z"/>
<path style="fill:#5f5f5f; stroke:none;" d="M41 118L42 119L41 118M51 118L52 119L51 118z"/>
<path style="fill:#9f9f9f; stroke:none;" d="M52 118L53 119L52 118M90 118L91 119L90 118z"/>
<path style="fill:#5f5f5f; stroke:none;" d="M91 118L92 119L91 118z"/>
<path style="fill:#9f9f9f; stroke:none;" d="M132 118L133 119L132 118z"/>
<path style="fill:#2f2f2f; stroke:none;" d="M18 119L19 120L18 119M21 119L22 120L21 119z"/>
<path style="fill:#5f5f5f; stroke:none;" d="M27 119L28 120L27 119z"/>
<path style="fill:#2f2f2f; stroke:none;" d="M43 119L44 120L43 119M53 119L54 120L53 119z"/>
<path style="fill:#5f5f5f; stroke:none;" d="M54 119L55 120L54 119z"/>
<path style="fill:#9f9f9f; stroke:none;" d="M55 119L56 120L55 119M87 119L88 120L87 119z"/>
<path style="fill:#5f5f5f; stroke:none;" d="M88 119L89 120L88 119z"/>
<path style="fill:#2f2f2f; stroke:none;" d="M89 119L90 120L89 119z"/>
<path style="fill:#5f5f5f; stroke:none;" d="M131 119L132 120L131 119z"/>
<path style="fill:#9f9f9f; stroke:none;" d="M18 120L19 121L18 120z"/>
<path style="fill:#2f2f2f; stroke:none;" d="M22 120L23 121L22 120M26 120L27 121L26 120z"/>
<path style="fill:#5f5f5f; stroke:none;" d="M28 120L29 121L28 120z"/>
<path style="fill:#2f2f2f; stroke:none;" d="M42 120L43 121L42 120z"/>
<path style="fill:#5f5f5f; stroke:none;" d="M44.3333 120.667L44.6667 121.333L44.3333 120.667z"/>
<path style="fill:#2f2f2f; stroke:none;" d="M56 120L57 121L56 120z"/>
<path style="fill:#5f5f5f; stroke:none;" d="M57 120L58 121L57 120z"/>
<path style="fill:#9f9f9f; stroke:none;" d="M58 120L59 121L58 120M85 120L86 121L85 120z"/>
<path style="fill:#2f2f2f; stroke:none;" d="M86 120L87 121L86 120M130 120L131 121L130 120z"/>
<path style="fill:#9f9f9f; stroke:none;" d="M19 121L20 122L19 121z"/>
<path style="fill:#2f2f2f; stroke:none;" d="M21 121L22 122L21 121M27 121L28 122L27 121z"/>
<path style="fill:#5f5f5f; stroke:none;" d="M29 121L30 122L29 121z"/>
<path style="fill:#2f2f2f; stroke:none;" d="M35 121L37 123L35 121z"/>
<path style="fill:#9f9f9f; stroke:none;" d="M45 121L46 122L45 121z"/>
<path style="fill:#5f5f5f; stroke:none;" d="M46.3333 121.667L46.6667 122.333L46.3333 121.667z"/>
<path style="fill:#2f2f2f; stroke:none;" d="M60 121L61 122L60 121z"/>
<path style="fill:#5f5f5f; stroke:none;" d="M61 121L62 122L61 121z"/>
<path style="fill:#9f9f9f; stroke:none;" d="M62.6667 121.333L63.3333 121.667L62.6667 121.333M79 121L79 122L82 122L79 121z"/>
<path style="fill:#5f5f5f; stroke:none;" d="M82 121L83 122L82 121z"/>
<path style="fill:#2f2f2f; stroke:none;" d="M83 121L84 122L83 121M129 121L130 122L129 121z"/>
<path style="fill:#9f9f9f; stroke:none;" d="M20 122L21 123L20 122z"/>
<path style="fill:#2f2f2f; stroke:none;" d="M22 122L23 123L22 122z"/>
<path style="fill:#5f5f5f; stroke:none;" d="M30 122L31 123L30 122z"/>
<path style="fill:#9f9f9f; stroke:none;" d="M47 122L48 123L47 122z"/>
<path style="fill:#5f5f5f; stroke:none;" d="M48 122L53 125L53 124L48 122z"/>
<path style="fill:#2f2f2f; stroke:none;" d="M65 122L65 123L68 123L65 122z"/>
<path style="fill:#5f5f5f; stroke:none;" d="M68 122L68 123L76 123L68 122z"/>
<path style="fill:#2f2f2f; stroke:none;" d="M76.6667 122.333L77.3333 122.667L76.6667 122.333M128 122L129 123L128 122z"/>
<path style="fill:#9f9f9f; stroke:none;" d="M21 123L22 124L21 123z"/>
<path style="fill:#2f2f2f; stroke:none;" d="M23 123L24 124L23 123M51 123L52 124L51 123z"/>
<path style="fill:#5f5f5f; stroke:none;" d="M22 124L23 125L22 124z"/>
<path style="fill:#2f2f2f; stroke:none;" d="M24 124L25 125L24 124M50 124L51 125L50 124M53 124L56 126L56 125L53 124z"/>
<path style="fill:#9f9f9f; stroke:none;" d="M127 124L128 125L127 124z"/>
<path style="fill:#5f5f5f; stroke:none;" d="M23 125L24 126L23 125z"/>
<path style="fill:#2f2f2f; stroke:none;" d="M25 125L26 126L25 125z"/>
<path style="fill:#5f5f5f; stroke:none;" d="M32 125L33 126L32 125z"/>
<path style="fill:#2f2f2f; stroke:none;" d="M34 125L35 126L34 125z"/>
<path style="fill:#9f9f9f; stroke:none;" d="M126 125L127 126L126 125z"/>
<path style="fill:#5f5f5f; stroke:none;" d="M24 126L25 127L24 126z"/>
<path style="fill:#2f2f2f; stroke:none;" d="M26 126L27 127L26 126M33 126L34 127L33 126z"/>
<path style="fill:#5f5f5f; stroke:none;" d="M35 126L36 127L35 126z"/>
<path style="fill:#2f2f2f; stroke:none;" d="M56 126L57 127L56 126z"/>
<path style="fill:#9f9f9f; stroke:none;" d="M125 126L126 127L125 126z"/>
<path style="fill:#5f5f5f; stroke:none;" d="M25 127L26 128L25 127z"/>
<path style="fill:#2f2f2f; stroke:none;" d="M27 127L28 128L27 127M29 127L30 128L29 127z"/>
<path style="fill:#9f9f9f; stroke:none;" d="M124 127L125 128L124 127z"/>
<path style="fill:#5f5f5f; stroke:none;" d="M26 128L27 129L26 128z"/>
<path style="fill:#2f2f2f; stroke:none;" d="M30 128L31 129L30 128z"/>
<path style="fill:#5f5f5f; stroke:none;" d="M36 128L37 129L36 128M38 128L39 129L38 128z"/>
<path style="fill:#2f2f2f; stroke:none;" d="M122 128L123 129L122 128z"/>
<path style="fill:#9f9f9f; stroke:none;" d="M27 129L28 130L27 129z"/>
<path style="fill:#2f2f2f; stroke:none;" d="M31 129L33 132L31 129M37 129L38 130L37 129M40 129L41 130L40 129M121 129L122 130L121 129z"/>
<path style="fill:#9f9f9f; stroke:none;" d="M28 130L29 131L28 130z"/>
<path style="fill:#5f5f5f; stroke:none;" d="M32 130L33 131L32 130M39 130L40 131L39 130M120 130L121 131L120 130z"/>
<path style="fill:#9f9f9f; stroke:none;" d="M29 131L30 132L29 131z"/>
<path style="fill:#2f2f2f; stroke:none;" d="M30 131L31 132L30 131z"/>
<path style="fill:#5f5f5f; stroke:none;" d="M33 131L34 132L33 131z"/>
<path style="fill:#2f2f2f; stroke:none;" d="M34 131L36 134L34 131z"/>
<path style="fill:#5f5f5f; stroke:none;" d="M41 131L42 132L41 131M43 131L44 132L43 131z"/>
<path style="fill:#9f9f9f; stroke:none;" d="M119 131L120 132L119 131z"/>
<path style="fill:#2f2f2f; stroke:none;" d="M31 132L32 133L31 132M42 132L43 133L42 132z"/>
<path style="fill:#5f5f5f; stroke:none;" d="M45 132L46 133L45 132z"/>
<path style="fill:#2f2f2f; stroke:none;" d="M117 132L118 133L117 132z"/>
<path style="fill:#9f9f9f; stroke:none;" d="M118 132L119 133L118 132M32 133L33 134L32 133z"/>
<path style="fill:#5f5f5f; stroke:none;" d="M36 133L37 134L36 133z"/>
<path style="fill:#2f2f2f; stroke:none;" d="M37 133L37 135L39 135L37 133M44 133L45 134L44 133M48 133L49 134L48 133z"/>
<path style="fill:#5f5f5f; stroke:none;" d="M116 133L117 134L116 133z"/>
<path style="fill:#9f9f9f; stroke:none;" d="M33 134L34 135L33 134z"/>
<path style="fill:#2f2f2f; stroke:none;" d="M34 134L35 135L34 134z"/>
<path style="fill:#5f5f5f; stroke:none;" d="M47 134L48 135L47 134M50 134L51 135L50 134z"/>
<path style="fill:#2f2f2f; stroke:none;" d="M114 134L115 135L114 134z"/>
<path style="fill:#9f9f9f; stroke:none;" d="M115 134L116 135L115 134M35 135L36 136L35 135z"/>
<path style="fill:#5f5f5f; stroke:none;" d="M39 135L40 136L39 135z"/>
<path style="fill:#2f2f2f; stroke:none;" d="M40.3333 135.667L40.6667 136.333L40.3333 135.667M49 135L50 136L49 135M53 135L54 136L53 135z"/>
<path style="fill:#5f5f5f; stroke:none;" d="M113 135L114 136L113 135M37 136L38 137L37 136M41 136L42 137L41 136z"/>
<path style="fill:#2f2f2f; stroke:none;" d="M42.3333 136.667L42.6667 137.333L42.3333 136.667z"/>
<path style="fill:#5f5f5f; stroke:none;" d="M52 136L53 137L52 136M56 136L57 137L56 136z"/>
<path style="fill:#2f2f2f; stroke:none;" d="M57 136L58 137L57 136M111 136L112 137L111 136z"/>
<path style="fill:#9f9f9f; stroke:none;" d="M112 136L113 137L112 136M38 137L39 138L38 137z"/>
<path style="fill:#5f5f5f; stroke:none;" d="M39 137L40 138L39 137M43 137L44 138L43 137z"/>
<path style="fill:#2f2f2f; stroke:none;" d="M44 137L47 139L47 138L44 137z"/>
<path style="fill:#5f5f5f; stroke:none;" d="M55 137L56 138L55 137M59 137L61 139L61 137L59 137z"/>
<path style="fill:#2f2f2f; stroke:none;" d="M61.6667 137.333L62.3333 137.667L61.6667 137.333M84 137L84 138L89 138L84 137M109 137L110 138L109 137z"/>
<path style="fill:#9f9f9f; stroke:none;" d="M110 137L111 138L110 137M40 138L41 139L40 138z"/>
<path style="fill:#2f2f2f; stroke:none;" d="M41 138L42 139L41 138M58.6667 138.333L59.3333 138.667L58.6667 138.333z"/>
<path style="fill:#9f9f9f; stroke:none;" d="M61 138L61 139L65 139L61 138z"/>
<path style="fill:#5f5f5f; stroke:none;" d="M65 138L65 139L85 139L65 138z"/>
<path style="fill:#2f2f2f; stroke:none;" d="M68 138L68 139L80 139L68 138M107 138L108 139L107 138z"/>
<path style="fill:#9f9f9f; stroke:none;" d="M108 138L109 139L108 138M42 139L43 140L42 139z"/>
<path style="fill:#2f2f2f; stroke:none;" d="M43 139L44 140L43 139M47 139L47 140L59 143L59 142L47 139M64.6667 139.333L65.3333 139.667L64.6667 139.333M80.6667 139.333L81.3333 139.667L80.6667 139.333M105 139L106 140L105 139z"/>
<path style="fill:#9f9f9f; stroke:none;" d="M106 139L107 140L106 139M44 140L45 141L44 140z"/>
<path style="fill:#5f5f5f; stroke:none;" d="M45 140L46 141L45 140z"/>
<path style="fill:#2f2f2f; stroke:none;" d="M103 140L104 141L103 140z"/>
<path style="fill:#9f9f9f; stroke:none;" d="M104 140L105 141L104 140M46 141L47 142L46 141z"/>
<path style="fill:#5f5f5f; stroke:none;" d="M47 141L48 142L47 141z"/>
<path style="fill:#2f2f2f; stroke:none;" d="M100 141L101 142L100 141z"/>
<path style="fill:#5f5f5f; stroke:none;" d="M101 141L102 142L101 141z"/>
<path style="fill:#9f9f9f; stroke:none;" d="M102 141L103 142L102 141M49 142L50 143L49 142z"/>
<path style="fill:#2f2f2f; stroke:none;" d="M50 142L51 143L50 142M91 142L92 143L91 142M98 142L99 143L98 142z"/>
<path style="fill:#9f9f9f; stroke:none;" d="M99 142L100 143L99 142M52 143L53 144L52 143z"/>
<path style="fill:#5f5f5f; stroke:none;" d="M53 143L54 144L53 143z"/>
<path style="fill:#2f2f2f; stroke:none;" d="M59 143L59 144L81 145L59 143M85 143L85 144L88 144L85 143z"/>
<path style="fill:#5f5f5f; stroke:none;" d="M95 143L96 144L95 143z"/>
<path style="fill:#9f9f9f; stroke:none;" d="M96 143L97 144L96 143M55 144L56 145L55 144z"/>
<path style="fill:#5f5f5f; stroke:none;" d="M56 144L57 145L56 144z"/>
<path style="fill:#2f2f2f; stroke:none;" d="M57.6667 144.333L58.3333 144.667L57.6667 144.333M90.6667 144.333L91.3333 144.667L90.6667 144.333z"/>
<path style="fill:#5f5f5f; stroke:none;" d="M92 144L93 145L92 144z"/>
<path style="fill:#9f9f9f; stroke:none;" d="M93 144L94 145L93 144M59.6667 145.333L60.3333 145.667L59.6667 145.333z"/>
<path style="fill:#5f5f5f; stroke:none;" d="M61 145L62 146L61 145z"/>
<path style="fill:#2f2f2f; stroke:none;" d="M62.6667 145.333L63.3333 145.667L62.6667 145.333M85.6667 145.333L86.3333 145.667L85.6667 145.333z"/>
<path style="fill:#5f5f5f; stroke:none;" d="M87 145L88 146L87 145z"/>
<path style="fill:#9f9f9f; stroke:none;" d="M88.6667 145.333L89.3333 145.667L88.6667 145.333M65 146L65 147L68 147L65 146z"/>
<path style="fill:#5f5f5f; stroke:none;" d="M68 146L68 147L72 147L68 146z"/>
<path style="fill:#2f2f2f; stroke:none;" d="M72 146L72 147L76 147L72 146z"/>
<path style="fill:#5f5f5f; stroke:none;" d="M76 146L76 147L81 147L76 146z"/>
<path style="fill:#9f9f9f; stroke:none;" d="M81 146L81 147L84 147L81 146z"/>
</svg>
