<?xml version="1.0" standalone="no"?>
<!DOCTYPE svg PUBLIC "-//W3C//DTD SVG 20010904//EN"
 "http://www.w3.org/TR/2001/REC-SVG-20010904/DTD/svg10.dtd">
<svg version="1.0" xmlns="http://www.w3.org/2000/svg"
 width="884.000000pt" height="880.000000pt" viewBox="0 0 884.000000 880.000000"
 preserveAspectRatio="xMidYMid meet">

<g transform="translate(0.000000,880.000000) scale(0.100000,-0.100000)"
fill="#000000" stroke="none">
<path d="M4695 8480 c-3 -5 -1 -10 4 -10 6 0 11 5 11 10 0 6 -2 10 -4 10 -3 0
-8 -4 -11 -10z"/>
<path d="M4615 8470 c-3 -5 3 -10 14 -10 11 0 23 5 26 10 3 6 -3 10 -14 10
-11 0 -23 -4 -26 -10z"/>
<path d="M4305 7936 c-44 -6 -86 -15 -92 -19 -7 -4 -30 -3 -52 3 -32 8 -46 7
-82 -10 -24 -11 -62 -20 -84 -20 -59 0 -69 -10 -61 -59 5 -33 3 -41 -9 -41 -8
0 -15 6 -15 14 0 30 -40 24 -75 -11 -19 -19 -35 -39 -35 -43 0 -5 -19 -20 -42
-34 l-43 -26 46 0 c64 0 80 -23 67 -95 -2 -13 4 -21 17 -23 31 -6 45 -22 45
-52 0 -46 -10 -60 -59 -84 -25 -12 -55 -27 -66 -33 -11 -7 -28 -14 -37 -17
-14 -4 -18 -16 -18 -54 l0 -49 40 0 c22 0 45 6 51 13 6 8 28 14 48 14 20 0 55
9 78 20 23 10 64 22 90 26 26 3 62 14 78 22 22 12 53 15 117 13 53 -1 101 2
123 10 24 9 43 10 62 3 24 -8 28 -15 28 -49 0 -33 -5 -43 -34 -62 -22 -15 -49
-23 -75 -23 -42 0 -76 -14 -63 -26 3 -4 19 -6 34 -5 447 28 677 28 738 1 21
-9 69 -17 175 -30 186 -22 639 -184 731 -263 66 -56 97 -77 113 -77 8 0 31
-13 49 -30 20 -17 46 -30 60 -30 15 0 42 -13 62 -31 l35 -31 0 25 c0 38 25 57
75 57 41 0 47 -4 147 -104 81 -79 109 -114 119 -147 12 -36 19 -44 45 -50 17
-3 53 -28 82 -55 47 -44 53 -55 59 -100 5 -46 3 -53 -15 -58 -11 -4 -33 -1
-48 6 -61 26 -83 49 -105 108 -18 50 -26 60 -45 60 -34 0 -30 -22 14 -74 58
-71 92 -118 92 -131 0 -7 10 -20 21 -31 22 -19 54 -64 96 -133 13 -20 23 -50
23 -66 0 -36 63 -105 96 -105 56 0 83 -61 44 -100 -19 -19 -19 -20 6 -92 14
-40 30 -88 36 -107 5 -19 16 -44 23 -55 18 -29 95 -262 95 -288 0 -11 13 -59
29 -107 48 -146 65 -248 92 -561 21 -247 10 -710 -20 -845 -6 -27 -16 -84 -21
-125 -10 -88 -21 -134 -42 -175 -36 -72 -44 -154 -23 -235 4 -16 -2 -43 -15
-72 -17 -38 -26 -48 -45 -48 -21 0 -31 -13 -69 -87 -24 -49 -49 -106 -56 -128
-7 -22 -40 -83 -74 -135 -68 -105 -78 -122 -102 -163 -8 -16 -44 -67 -80 -114
-35 -47 -64 -88 -64 -92 0 -3 -28 -35 -62 -71 -34 -36 -71 -77 -82 -92 -12
-14 -41 -52 -66 -85 -49 -62 -248 -261 -279 -278 -42 -22 -112 -98 -118 -127
-7 -38 -48 -78 -150 -151 -84 -59 -107 -87 -74 -87 51 0 372 277 386 332 4 15
20 38 36 50 16 13 41 33 56 46 66 56 159 29 124 -37 -6 -11 -11 -34 -11 -51 0
-50 -16 -70 -55 -70 -45 0 -105 -67 -105 -117 0 -28 3 -33 25 -33 17 0 43 19
87 65 34 36 73 68 85 71 13 4 27 13 31 20 18 33 129 137 165 156 26 13 44 31
53 55 9 20 30 51 47 69 18 19 44 47 59 64 34 39 80 41 96 6 14 -31 -2 -93 -26
-100 -10 -3 -26 -25 -37 -48 -11 -24 -30 -48 -43 -54 -35 -17 -91 -74 -119
-121 -23 -40 -102 -103 -129 -103 -6 0 -20 -13 -31 -29 -23 -37 -90 -91 -113
-91 -19 0 -37 -18 -55 -54 -10 -21 -57 -55 -155 -111 -29 -16 -66 -42 -84 -56
-17 -15 -57 -43 -88 -63 -31 -19 -59 -45 -63 -56 -4 -11 -28 -31 -54 -44 -26
-14 -54 -32 -62 -42 -8 -9 -29 -23 -48 -31 -18 -8 -31 -16 -29 -19 11 -10 131
26 161 49 18 13 75 46 127 72 52 26 111 63 131 83 49 50 119 100 168 119 23 9
41 20 41 25 0 4 20 18 46 30 41 21 47 21 72 7 41 -23 42 -69 2 -103 -17 -14
-40 -26 -50 -26 -10 0 -23 -12 -29 -27 -7 -16 -35 -44 -64 -63 -29 -19 -70
-51 -92 -71 -22 -20 -68 -50 -102 -68 -33 -18 -69 -40 -80 -50 -33 -30 -118
-85 -198 -127 -27 -15 -70 -41 -95 -59 -51 -37 -123 -75 -142 -75 -19 0 -94
-67 -85 -76 7 -7 48 9 175 67 74 34 105 36 133 8 25 -25 38 -21 109 31 30 22
71 47 90 55 19 9 46 22 60 31 14 8 50 27 80 41 30 14 70 39 88 55 40 35 65 35
98 3 l25 -25 62 42 c34 23 89 67 123 98 59 53 126 104 166 125 10 5 18 13 18
17 0 15 80 48 114 48 53 0 83 18 165 98 41 39 82 72 90 72 15 0 137 120 177
175 13 17 39 58 59 93 20 34 40 62 45 62 4 0 18 16 31 36 12 20 31 46 43 59
12 12 29 34 39 49 20 29 48 34 71 10 28 -27 31 -63 7 -94 -11 -16 -21 -35 -21
-43 0 -22 -123 -203 -174 -254 -17 -17 -51 -57 -76 -88 -25 -31 -63 -74 -85
-96 -22 -21 -54 -53 -70 -69 -17 -17 -35 -30 -40 -31 -16 -2 -106 -106 -109
-126 -2 -10 -11 -20 -22 -21 -30 -6 -84 -63 -84 -90 0 -25 -57 -122 -72 -122
-5 0 -27 -17 -51 -38 -23 -22 -62 -51 -87 -65 -25 -14 -65 -47 -90 -72 -24
-25 -49 -45 -55 -45 -5 -1 -23 -12 -40 -25 l-30 -25 51 6 c44 6 55 3 73 -15
11 -11 21 -30 21 -42 0 -33 31 -18 44 21 7 22 22 40 41 50 17 8 41 23 55 33
13 9 34 17 46 17 11 0 36 11 55 25 19 13 58 40 87 60 57 41 63 57 31 92 -18
18 -20 25 -9 37 10 13 16 14 39 2 37 -20 138 3 164 36 59 75 75 92 98 102 46
20 109 104 109 146 0 13 49 68 139 158 76 75 146 151 155 167 23 42 102 150
163 223 28 33 55 71 58 84 10 30 73 136 101 168 30 34 44 64 44 92 0 13 7 34
16 46 8 12 12 27 9 33 -17 26 8 82 58 133 48 49 55 63 90 171 20 64 34 121 31
126 -3 5 3 38 14 72 11 34 23 80 27 102 4 21 13 51 20 65 13 25 17 43 56 250
12 63 35 154 50 202 49 151 61 201 70 278 5 41 13 107 20 145 6 39 13 177 15
307 5 216 3 240 -13 265 -14 21 -19 58 -25 172 -9 193 -35 415 -58 496 -6 22
-15 67 -20 100 -14 90 -26 153 -45 225 -9 36 -21 83 -27 105 -5 22 -14 54 -19
70 -6 17 -24 73 -41 125 -60 189 -97 288 -136 360 -16 30 -40 80 -53 110 -12
30 -31 66 -41 79 -10 13 -18 33 -18 45 0 12 -12 38 -26 57 -14 19 -45 75 -70
124 -24 50 -71 123 -104 164 -33 41 -60 78 -60 82 0 11 -69 110 -100 144 -15
17 -36 47 -46 67 -11 20 -62 83 -114 139 -163 174 -207 223 -217 243 -14 25
-114 60 -125 43 -4 -6 -8 -15 -8 -19 0 -4 -11 -10 -24 -14 -17 -4 -39 3 -70
21 -86 50 -149 15 -84 -47 15 -15 28 -37 28 -50 0 -22 98 -138 117 -138 5 0
15 -11 23 -24 8 -13 30 -41 48 -62 34 -41 81 -111 120 -178 12 -22 28 -47 36
-55 7 -9 17 -27 21 -41 4 -14 15 -34 24 -45 26 -30 50 -69 113 -184 44 -80 58
-115 58 -145 0 -45 -7 -59 -32 -69 -26 -9 -62 26 -103 100 -21 37 -47 80 -59
94 -11 15 -29 41 -38 58 -9 17 -32 38 -51 47 -19 9 -41 28 -50 43 -23 38 -443
450 -462 452 -5 1 -19 2 -30 3 -11 1 -21 9 -23 21 -4 24 -29 45 -54 45 -24 0
-23 -15 4 -40 17 -15 18 -20 6 -20 -33 0 -37 -24 -12 -65 46 -77 23 -125 -59
-125 -40 0 -46 3 -49 22 -2 15 -25 38 -68 66 -36 24 -74 52 -85 61 -11 10 -45
32 -75 48 -72 38 -132 77 -148 96 -7 8 -41 25 -75 38 -34 12 -78 35 -97 51
-19 15 -45 28 -58 28 -14 0 -36 12 -51 29 -29 32 -60 43 -85 29 -13 -7 -17 -6
-15 4 7 54 -13 71 -101 89 -25 5 -76 15 -115 22 -38 8 -84 21 -102 30 -41 22
-55 21 -85 -3 -22 -17 -27 -17 -45 -5 -12 8 -23 25 -27 38 -5 21 -14 26 -58
32 -71 9 -130 7 -142 -5 -13 -13 -39 -13 -31 0 3 5 -7 12 -22 15 -62 13 -105
29 -116 44 -14 19 -85 53 -96 46 -5 -2 -23 0 -42 6 -41 13 -147 28 -249 35
-41 3 -80 10 -87 16 -18 15 -16 73 3 92 17 18 19 18 194 21 69 2 132 4 140 6
9 1 27 -1 41 -4 15 -4 33 -1 43 6 17 12 16 15 -7 37 -40 39 -100 51 -185 38
-69 -10 -74 -9 -93 11 -23 24 -28 25 -80 10 -29 -9 -42 -9 -52 0 -10 8 -22 9
-41 1 -17 -6 -35 -6 -52 0 -14 6 -26 9 -27 9 -1 -1 -38 -7 -82 -13z m-435
-176 c0 -5 -4 -10 -10 -10 -5 0 -10 5 -10 10 0 6 5 10 10 10 6 0 10 -4 10 -10z
m1938 -437 c-4 -22 -22 -20 -26 1 -2 10 3 16 13 16 10 0 15 -7 13 -17z m90
-37 c3 -12 -1 -17 -10 -14 -7 3 -15 13 -16 22 -3 12 1 17 10 14 7 -3 15 -13
16 -22z m1015 -448 c29 -32 37 -48 37 -79 0 -80 -80 -90 -144 -18 -28 30 -36
48 -36 77 0 41 7 56 30 64 33 12 76 -5 113 -44z m690 -1830 c6 -8 7 -27 3 -42
-6 -23 -9 -26 -22 -15 -27 22 -37 49 -23 65 14 17 28 14 42 -8z m297 -48 c0
-32 -11 -38 -29 -16 -14 16 -4 46 15 46 9 0 14 -11 14 -30z m285 -60 c6 -20 0
-40 -13 -40 -4 0 -9 14 -10 30 -3 34 13 41 23 10z m-402 -11 c6 -23 -1 -49
-13 -49 -8 0 -20 34 -20 58 0 20 27 13 33 -9z m-167 -24 c3 -8 3 -19 -1 -25
-10 -16 -35 7 -28 26 7 18 22 18 29 -1z m-106 -60 c0 -8 -7 -15 -15 -15 -16 0
-20 12 -8 23 11 12 23 8 23 -8z m400 -15 c0 -5 -4 -10 -10 -10 -5 0 -10 5 -10
10 0 6 5 10 10 10 6 0 10 -4 10 -10z m-122 -44 c5 -22 -13 -36 -46 -36 -25 0
-38 21 -28 46 9 23 70 15 74 -10z m-118 -105 c0 -5 -7 -11 -15 -15 -9 -3 -15
0 -15 9 0 8 7 15 15 15 8 0 15 -4 15 -9z m675 -21 c3 -5 -1 -10 -9 -10 -9 0
-16 5 -16 10 0 6 4 10 9 10 6 0 13 -4 16 -10z m-439 -37 c15 -20 18 -43 6 -43
-4 0 -13 14 -19 30 -13 34 -7 39 13 13z m-256 -88 c0 -8 -7 -15 -15 -15 -16 0
-20 12 -8 23 11 12 23 8 23 -8z m160 -10 c0 -15 -6 -25 -14 -25 -11 0 -12 5
-3 25 15 31 17 31 17 0z m525 -25 c7 -12 -12 -40 -26 -40 -10 0 -12 34 -2 43
9 10 21 9 28 -3z m-536 -56 c37 -47 23 -104 -25 -104 -22 0 -64 46 -64 70 0
12 48 60 61 60 4 0 17 -12 28 -26z m321 12 c0 -16 -18 -31 -27 -22 -8 8 5 36
17 36 5 0 10 -6 10 -14z m240 -127 c0 -6 -4 -7 -10 -4 -5 3 -10 11 -10 16 0 6
5 7 10 4 6 -3 10 -11 10 -16z m-590 -136 c0 -13 -3 -13 -15 -3 -8 7 -12 16 -9
21 8 13 24 1 24 -18z m-121 -12 c7 -5 15 -30 18 -57 5 -48 5 -48 -12 -26 -9
12 -25 22 -35 22 -21 0 -37 40 -25 59 7 13 35 14 54 2z m711 -11 c0 -5 -4 -10
-10 -10 -5 0 -10 5 -10 10 0 6 5 10 10 10 6 0 10 -4 10 -10z m-566 -52 c5 -9
8 -20 4 -23 -9 -9 -48 18 -48 33 0 18 30 11 44 -10z m11 -67 c3 -5 1 -12 -5
-16 -5 -3 -10 1 -10 9 0 18 6 21 15 7z m-47 -53 c17 -17 15 -44 -4 -62 -22
-22 -33 -20 -44 8 -18 49 15 87 48 54z m-15 -273 c41 -39 31 -85 -18 -85 -42
0 -59 48 -33 90 16 25 18 25 51 -5z m-293 -144 c0 -20 -20 -61 -30 -61 -11 0
-14 53 -3 63 10 10 33 8 33 -2z m219 -23 c10 -26 6 -38 -14 -38 -16 0 -29 35
-20 50 10 17 25 11 34 -12z m-139 -373 c0 -8 -4 -15 -10 -15 -5 0 -10 7 -10
15 0 8 5 15 10 15 6 0 10 -7 10 -15z m-806 -907 c8 -13 8 -23 0 -35 -16 -26
-51 -28 -64 -4 -25 47 36 83 64 39z m200 -497 c8 -12 -3 -41 -15 -41 -5 0 -9
11 -9 25 0 25 14 34 24 16z m388 -493 c-15 -15 -26 -4 -18 18 5 13 9 15 18 6
9 -9 9 -15 0 -24z"/>
<path d="M5070 7840 c0 -5 5 -10 10 -10 6 0 10 5 10 10 0 6 -4 10 -10 10 -5 0
-10 -4 -10 -10z"/>
<path d="M5183 7824 c-10 -28 6 -47 35 -41 15 3 42 -1 59 -8 39 -16 51 -5 22
21 -30 27 -109 46 -116 28z"/>
<path d="M5108 7813 c6 -2 18 -2 25 0 6 3 1 5 -13 5 -14 0 -19 -2 -12 -5z"/>
<path d="M5335 7779 c-9 -14 -6 -17 56 -38 49 -18 54 -18 66 -3 20 27 15 34
-24 31 -21 -1 -48 3 -60 9 -27 15 -30 15 -38 1z"/>
<path d="M5586 7682 c-7 -6 38 -42 53 -42 5 0 25 -9 43 -19 18 -11 56 -29 85
-40 43 -17 54 -18 65 -7 7 7 20 15 28 19 8 3 0 6 -18 6 -24 1 -35 7 -43 25
-13 27 -47 40 -65 25 -9 -7 -19 -4 -36 13 -16 16 -36 23 -65 24 -23 1 -44 -1
-47 -4z"/>
<path d="M3630 7670 c-9 -6 -10 -10 -3 -10 6 0 15 5 18 10 8 12 4 12 -15 0z"/>
<path d="M5965 7570 c-3 -5 8 -16 24 -25 22 -11 29 -12 26 -2 -8 19 -43 38
-50 27z"/>
<path d="M6120 7485 c7 -8 16 -15 21 -15 5 0 6 7 3 15 -4 8 -13 15 -21 15 -13
0 -13 -3 -3 -15z"/>
<path d="M6183 7450 c2 -8 9 -15 16 -15 7 0 27 -14 44 -31 18 -17 44 -39 60
-49 22 -14 27 -15 27 -3 0 8 -11 27 -25 42 -22 24 -28 26 -42 14 -9 -7 -14 -8
-10 -2 8 14 -10 31 -38 36 -11 1 -24 8 -28 13 -5 6 -7 4 -4 -5z"/>
<path d="M6822 7415 c6 -15 20 -25 31 -25 20 0 19 1 -3 25 -13 14 -27 25 -32
25 -4 0 -2 -11 4 -25z"/>
<path d="M6358 7351 c-16 -6 -15 -9 8 -34 25 -27 27 -27 45 -11 10 9 19 22 19
28 0 6 -5 4 -10 -4 -5 -8 -10 -10 -10 -5 0 16 -33 33 -52 26z"/>
<path d="M6897 7349 c7 -7 15 -10 18 -7 3 3 -2 9 -12 12 -14 6 -15 5 -6 -5z"/>
<path d="M6426 7287 c-18 -14 -15 -37 5 -37 5 0 39 -22 75 -50 36 -27 75 -50
87 -50 12 0 32 -3 45 -6 35 -10 27 17 -15 56 -35 31 -140 79 -126 57 3 -5 -3
-7 -13 -5 -11 2 -19 12 -19 22 0 25 -16 30 -39 13z"/>
<path d="M4175 7230 c-18 -7 -18 -8 7 -15 28 -7 48 -1 48 16 0 11 -27 11 -55
-1z"/>
<path d="M4125 7220 c-3 -5 -2 -10 4 -10 5 0 13 5 16 10 3 6 2 10 -4 10 -5 0
-13 -4 -16 -10z"/>
<path d="M6616 7122 c-3 -5 3 -17 13 -27 17 -15 19 -15 17 -1 -3 22 -22 40
-30 28z"/>
<path d="M2425 6652 c-16 -11 -34 -58 -27 -69 21 -32 82 -42 106 -17 21 20 20
34 -2 34 -10 0 -22 12 -29 30 -11 29 -28 37 -48 22z"/>
<path d="M2330 6561 c0 -5 -16 -28 -35 -51 -19 -23 -35 -48 -35 -56 0 -17 22
-18 38 -2 9 9 15 9 24 0 9 -9 16 -8 29 4 15 13 16 20 6 35 -9 14 -9 26 0 49
10 27 9 30 -8 30 -10 0 -19 -4 -19 -9z"/>
<path d="M2226 6422 c4 -20 0 -34 -11 -46 -15 -14 -16 -22 -6 -42 6 -14 7 -23
3 -20 -17 11 -42 -18 -36 -41 7 -25 24 -31 24 -9 0 7 7 19 15 26 8 7 14 18 13
24 -3 14 50 92 59 88 4 -2 9 2 11 10 3 10 1 10 -5 1 -10 -14 -27 -5 -36 20 -3
9 -13 17 -21 17 -12 0 -14 -7 -10 -28z"/>
<path d="M2073 6204 c-9 -23 13 -40 32 -24 8 7 15 19 15 26 0 19 -39 18 -47
-2z"/>
<path d="M2040 6135 c0 -8 2 -15 4 -15 2 0 6 7 10 15 3 8 1 15 -4 15 -6 0 -10
-7 -10 -15z"/>
<path d="M1953 6030 c-53 -49 -65 -70 -39 -70 9 0 16 -16 20 -44 10 -63 56
-77 56 -17 0 19 8 34 24 44 22 15 23 19 14 59 -20 82 -18 81 -75 28z"/>
<path d="M715 5915 c-16 -13 -36 -24 -43 -25 -9 0 -11 -7 -7 -21 5 -14 4 -19
-4 -15 -7 5 -9 1 -5 -8 4 -9 1 -16 -6 -16 -7 0 -10 -7 -6 -16 3 -8 -3 -33 -14
-54 -11 -22 -20 -58 -20 -80 0 -24 -7 -48 -15 -56 -22 -22 -18 -47 10 -78 14
-15 25 -37 25 -50 0 -12 5 -27 11 -33 8 -8 8 -17 0 -32 -17 -30 -40 -26 -52 9
-12 33 -21 37 -37 17 -7 -8 -6 -30 3 -70 12 -52 12 -59 -2 -64 -9 -4 -21 1
-28 10 -17 23 -28 21 -22 -3 3 -11 2 -22 -3 -25 -4 -3 -7 -31 -6 -62 2 -32 -2
-64 -7 -71 -7 -8 -5 -18 5 -30 9 -9 18 -29 22 -44 3 -14 9 -33 12 -41 4 -12
-6 -17 -50 -22 -31 -4 -56 -10 -56 -13 0 -3 8 -23 17 -44 12 -28 23 -38 40
-38 12 0 28 -7 35 -16 7 -8 21 -23 31 -32 24 -23 21 -40 -8 -54 -31 -14 -32
-34 -4 -41 18 -5 20 -11 15 -33 -5 -18 -2 -32 11 -46 26 -29 25 -128 -2 -158
-11 -12 -19 -30 -17 -39 1 -9 -8 -20 -20 -26 -13 -6 -24 -20 -26 -32 -2 -15
-10 -23 -23 -23 -21 0 -25 -10 -8 -27 8 -8 8 -17 0 -31 -8 -15 -8 -28 1 -47
10 -22 17 -26 40 -21 16 3 38 0 49 -7 13 -8 22 -9 27 -2 8 12 102 18 118 8 6
-5 18 -22 27 -39 46 -90 -57 -155 -132 -84 -35 34 -40 52 -13 48 11 -2 18 4
20 19 3 20 0 22 -43 19 -53 -3 -68 -14 -63 -47 2 -16 11 -25 26 -27 l23 -4
-26 -24 c-30 -28 -43 -30 -51 -9 -9 22 -24 18 -24 -5 0 -11 6 -20 14 -20 24 0
30 -39 10 -61 -14 -16 -15 -24 -6 -44 11 -23 9 -26 -32 -44 -24 -10 -55 -17
-70 -14 -25 5 -26 4 -26 -41 0 -29 4 -46 13 -47 77 -7 101 -19 79 -41 -10 -10
-17 -10 -32 0 -15 9 -22 9 -35 -4 -20 -20 -20 -104 0 -130 8 -10 15 -15 15
-11 0 5 6 2 13 -5 7 -7 14 -31 15 -53 1 -22 2 -53 2 -70 2 -43 31 -154 41
-161 5 -3 9 -20 9 -39 0 -19 5 -37 10 -40 6 -3 10 -17 10 -30 0 -13 7 -50 16
-82 15 -54 27 -105 41 -178 3 -16 13 -38 22 -48 23 -27 19 -97 -6 -114 -20
-13 -20 -14 3 -60 29 -56 30 -83 5 -114 -19 -24 -19 -24 21 -99 22 -41 44 -80
49 -86 5 -6 16 -33 24 -60 9 -27 35 -74 60 -104 24 -30 67 -90 96 -132 29 -42
60 -79 70 -81 19 -5 23 -12 33 -59 4 -18 13 -28 24 -28 10 0 18 -8 19 -19 2
-29 46 -91 64 -91 27 0 29 12 10 44 -10 17 -21 48 -24 68 -5 32 -3 38 12 38 9
0 32 11 51 25 69 51 86 -32 21 -105 -31 -35 -37 -48 -30 -62 16 -30 83 -20
126 19 20 18 42 33 50 33 22 0 53 -19 53 -32 0 -9 -3 -9 -12 0 -34 34 -61 -18
-27 -54 l20 -21 -26 -32 c-29 -34 -21 -38 32 -19 28 10 36 10 43 -2 5 -8 6
-18 3 -22 -2 -5 1 -16 9 -25 7 -9 18 -32 23 -52 10 -33 14 -36 55 -42 32 -4
40 -7 28 -13 -34 -16 -32 -66 4 -66 15 0 19 6 16 28 -2 22 0 26 17 24 31 -5
40 -19 25 -37 -16 -20 -5 -32 35 -37 21 -2 29 -7 25 -18 -19 -64 28 -150 84
-150 41 0 53 -9 62 -45 4 -17 10 -34 15 -40 8 -11 9 -16 9 -40 0 -9 12 -20 26
-25 17 -7 24 -16 22 -29 -3 -18 37 -71 53 -71 7 0 -13 65 -24 76 -12 12 -8 24
8 24 8 0 15 -9 15 -20 0 -22 18 -68 36 -90 6 -8 17 -32 24 -53 11 -34 13 -36
24 -21 15 20 32 2 19 -18 -16 -27 13 -88 42 -88 6 0 22 -12 36 -26 13 -14 40
-34 59 -44 19 -10 55 -37 80 -59 57 -52 176 -129 212 -136 14 -4 33 -16 41
-28 8 -12 54 -49 103 -82 49 -32 104 -72 121 -87 18 -15 54 -34 80 -41 27 -8
68 -25 93 -38 41 -22 60 -24 198 -27 162 -4 175 -1 192 44 11 29 48 35 223 33
161 -1 213 11 276 60 20 15 62 45 94 66 49 32 60 45 75 89 12 36 33 66 70 101
28 27 52 56 52 64 0 7 9 28 19 45 55 90 63 261 14 321 -38 46 -113 166 -113
180 0 16 -132 179 -178 219 -19 17 -54 45 -77 61 -23 17 -62 45 -85 62 -42 32
-46 33 -140 33 -87 0 -101 3 -133 24 -48 33 -57 34 -89 12 -26 -17 -29 -17
-113 9 -57 18 -98 25 -121 22 -27 -5 -48 2 -96 27 l-61 32 -23 -23 c-13 -13
-33 -23 -46 -23 -30 0 -207 89 -248 125 -8 7 -34 22 -57 34 -22 11 -43 25 -45
31 -1 5 -45 13 -97 17 l-93 6 -18 43 c-14 32 -25 44 -48 49 -20 4 -62 39 -124
100 -90 92 -115 128 -200 292 -25 49 -37 62 -60 67 -42 8 -95 72 -115 137 -16
55 -25 65 -100 107 -24 14 -31 46 -12 58 12 7 8 29 -17 94 -15 40 -22 71 -40
191 -7 43 14 69 55 69 37 0 56 -24 85 -104 13 -39 32 -74 46 -83 20 -14 25
-14 56 1 19 9 46 16 60 16 28 0 69 -38 96 -88 22 -41 38 -41 38 1 0 42 23 75
55 79 l25 3 -20 30 c-82 123 -106 148 -154 160 -51 13 -66 27 -66 62 0 12 -10
38 -21 58 -18 29 -21 46 -16 91 5 52 5 54 -18 54 -30 0 -65 44 -65 82 0 22 7
33 30 46 25 14 30 21 25 42 -20 83 -27 123 -34 190 -4 41 -15 92 -24 114 -10
21 -17 50 -17 65 0 15 -5 32 -12 39 -9 9 -9 15 0 24 7 7 12 32 12 57 0 54 5
63 45 82 29 14 30 16 28 79 -2 36 -6 108 -10 160 l-8 95 -33 -3 c-27 -2 -35 2
-39 18 -3 12 -19 28 -35 36 -29 15 -30 17 -25 72 9 97 18 137 34 149 14 11 14
17 1 55 l-15 43 38 45 c23 26 39 56 39 70 0 14 7 48 16 75 14 43 25 107 39
217 1 15 -3 32 -9 38 -9 7 -11 24 -6 55 5 35 4 45 -7 45 -8 0 -12 -4 -8 -10 3
-5 -4 -19 -17 -32 -36 -36 -71 -115 -65 -146 4 -22 1 -30 -16 -37 -16 -8 -21
-17 -19 -38 2 -24 -1 -27 -25 -27 -30 0 -70 -38 -80 -78 -4 -18 1 -30 21 -48
19 -19 26 -35 26 -64 0 -21 5 -42 10 -45 19 -12 10 -25 -13 -20 -21 6 -26 0
-44 -47 -12 -33 -18 -67 -15 -90 4 -32 1 -39 -21 -49 -25 -11 -37 -35 -37 -75
0 -11 -16 -35 -35 -54 -39 -38 -44 -59 -17 -83 28 -25 52 -22 52 8 0 22 4 25
34 25 27 0 39 -7 61 -35 39 -51 18 -83 -35 -55 -14 7 -23 6 -34 -6 -18 -17
-21 -60 -6 -69 16 -10 12 -42 -7 -49 -10 -4 -25 2 -40 15 -23 23 -32 59 -13
59 6 0 10 7 10 15 0 19 -14 19 -31 -1 -8 -10 -21 -13 -36 -9 -15 3 -30 0 -39
-9 -16 -16 -47 -10 -41 8 2 6 17 13 33 14 39 5 48 23 21 44 -20 16 -21 19 -8
50 34 84 18 110 -20 33 -12 -25 -23 -45 -24 -45 -18 0 -65 37 -73 58 -25 65
-23 96 8 145 16 26 30 56 30 67 0 10 5 20 12 22 8 3 6 17 -6 50 -21 53 -16 79
19 98 17 9 25 22 25 40 0 15 10 36 25 50 23 22 24 25 8 42 -14 16 -15 24 -3
73 7 30 19 60 27 66 19 17 16 53 -8 75 -16 14 -19 25 -14 49 3 16 8 40 11 52
2 12 8 33 14 47 5 13 6 26 4 29 -3 3 4 22 15 43 22 41 16 60 -17 50 -24 -8
-71 -76 -71 -102 1 -11 -13 -57 -30 -104 -17 -47 -30 -102 -31 -123 0 -29 -7
-45 -29 -65 -23 -21 -30 -38 -34 -77 -6 -68 -23 -126 -39 -137 -27 -18 -72 -4
-88 27 -8 17 -16 32 -18 35 -5 6 -58 -53 -64 -71 -6 -19 -86 -18 -99 1 -5 8
-7 38 -4 65 3 28 9 88 14 135 11 100 34 201 51 225 4 6 17 42 30 80 12 39 26
76 32 82 7 9 2 21 -21 42 -17 16 -31 36 -31 45 0 10 -9 16 -24 16 -16 0 -26 7
-30 23 -9 34 -7 103 4 131 13 34 -5 34 -45 1z m-20 -195 c3 -6 -5 -10 -19 -10
-14 0 -28 5 -31 10 -3 6 5 10 19 10 14 0 28 -4 31 -10z m899 -386 c9 -24 7
-44 -4 -44 -5 0 -10 8 -10 18 0 10 -5 23 -12 30 -9 9 -8 12 4 12 9 0 19 -7 22
-16z m-1014 -124 c0 -35 -3 -40 -23 -40 -35 0 -37 8 -15 46 26 45 38 43 38 -6z
m965 -50 c8 -13 -20 -24 -41 -16 -20 8 -9 26 16 26 10 0 22 -5 25 -10z m-972
-107 c-11 -31 -15 -35 -24 -22 -4 8 -3 19 3 26 15 19 28 16 21 -4z m-54 -72
c9 -6 10 -11 2 -15 -13 -8 -31 1 -31 15 0 11 11 11 29 0z m436 -51 c39 -43
-15 -100 -56 -59 -24 24 -25 55 -1 68 25 15 37 13 57 -9z m485 -140 c0 -24
-26 -38 -42 -22 -8 8 -8 15 2 27 18 21 40 19 40 -5z m-305 -220 c8 -13 -15
-13 -35 0 -12 8 -11 10 7 10 12 0 25 -4 28 -10z m-75 -55 c0 -8 -4 -15 -9 -15
-13 0 -22 16 -14 24 11 11 23 6 23 -9z m84 -26 c5 -25 10 -30 23 -24 36 14 48
17 37 8 -17 -13 -22 -36 -12 -55 14 -28 36 -21 43 14 l7 32 19 -23 c14 -17 16
-28 9 -41 -6 -10 -7 -25 -4 -33 6 -17 -12 -57 -25 -57 -5 0 -12 12 -15 26 -6
21 -11 25 -39 22 -31 -3 -32 -2 -35 40 -3 34 -7 42 -22 42 -11 0 -26 -12 -34
-27 l-14 -28 -7 28 c-11 43 22 105 56 107 4 0 9 -14 13 -31z m-264 -48 c0 -16
-19 -23 -40 -16 -30 10 -24 25 10 25 17 0 30 -4 30 -9z m520 -6 c0 -8 -2 -15
-4 -15 -2 0 -6 7 -10 15 -3 8 -1 15 4 15 6 0 10 -7 10 -15z m-713 -31 c2 -6
-6 -20 -18 -32 l-20 -23 -40 32 c-22 17 -37 35 -32 40 23 22 101 11 110 -17z
m178 -33 c0 -22 -32 -38 -46 -24 -9 9 -9 16 1 28 15 19 45 16 45 -4z m479 -60
c9 -14 -4 -41 -20 -41 -8 0 -14 8 -14 18 0 29 22 43 34 23z m-504 -41 c0 -5
-7 -10 -15 -10 -8 0 -15 5 -15 10 0 6 7 10 15 10 8 0 15 -4 15 -10z m274 -22
c9 -12 16 -30 16 -40 0 -24 17 -23 30 2 6 11 18 20 27 20 9 0 24 7 34 16 15
14 20 13 50 -5 30 -19 34 -26 34 -65 1 -38 -3 -47 -27 -60 -26 -16 -27 -16
-30 11 -4 37 -46 44 -66 12 -12 -19 -11 -24 9 -45 17 -18 20 -27 11 -36 -17
-17 -62 6 -62 32 0 56 -45 79 -74 38 -9 -12 -16 -20 -17 -18 -8 79 -7 98 9
128 19 38 35 40 56 10z m-553 -170 c-30 -23 -51 -23 -51 1 0 21 23 30 54 22
18 -4 18 -5 -3 -23z m243 22 c19 -7 24 -16 24 -40 -1 -16 7 -39 17 -50 10 -11
20 -42 23 -70 4 -46 3 -50 -17 -50 -25 0 -27 -12 -6 -30 18 -15 18 -33 1 -83
-13 -35 -12 -39 6 -52 20 -13 20 -14 -12 -43 -18 -17 -30 -34 -27 -39 9 -14
70 -2 84 16 6 9 15 12 19 8 5 -4 3 -11 -3 -15 -6 -4 -14 -22 -18 -39 -8 -38
-7 -38 -56 -16 -53 23 -77 85 -44 113 20 17 19 30 -6 56 -25 26 -37 104 -21
137 18 39 22 57 15 87 -8 41 -29 38 -52 -7 -10 -21 -28 -46 -39 -56 -20 -18
-21 -18 -31 2 -16 29 20 87 59 95 33 6 39 26 15 46 -13 11 -13 14 2 26 22 16
34 17 67 4z m694 -48 c2 -7 -3 -12 -12 -12 -9 0 -16 7 -16 16 0 17 22 14 28
-4z m-230 -31 c9 -5 11 -17 6 -36 -5 -18 -2 -30 7 -36 12 -7 11 -10 -2 -21
-20 -16 -34 -85 -21 -101 10 -14 -12 -77 -27 -77 -11 0 -26 39 -30 73 0 8 -19
28 -41 46 l-39 31 -16 -29 c-20 -40 -19 -68 3 -82 21 -13 18 -61 -4 -80 -8 -6
-14 -25 -14 -41 0 -18 -10 -39 -25 -54 -29 -29 -47 -24 -89 27 -24 29 -26 37
-26 133 0 86 3 105 18 118 29 26 110 39 145 24 12 -6 17 -4 17 9 0 23 32 75
46 75 6 0 25 7 40 15 34 17 35 17 52 6z m-778 -78 c0 -5 -4 -15 -10 -23 -11
-18 -25 -7 -17 15 6 15 27 21 27 8z m140 -64 c0 -5 -7 -9 -15 -9 -9 0 -15 9
-15 21 0 18 2 19 15 9 8 -7 15 -16 15 -21z m-210 -84 c10 -12 10 -18 0 -30
-16 -19 -34 -19 -50 0 -11 13 -10 18 6 30 24 18 29 18 44 0z m904 -158 c7 -50
-2 -75 -23 -63 -6 4 -11 14 -11 21 0 8 -7 35 -16 60 -12 37 -13 49 -3 61 11
14 15 13 30 -7 9 -13 20 -45 23 -72z m170 37 c29 -28 16 -74 -20 -74 -34 0
-50 35 -29 66 18 28 28 30 49 8z m-284 -165 c0 -10 -7 -19 -15 -19 -15 0 -21
31 -9 43 11 10 24 -3 24 -24z m-66 -75 c29 -11 16 -24 -24 -24 -38 0 -54 13
-27 23 18 8 33 8 51 1z m280 -443 c7 -10 -22 -37 -30 -28 -9 8 3 37 15 37 5 0
12 -4 15 -9z m-100 -136 c4 -11 -2 -15 -21 -15 -21 0 -24 2 -13 15 7 8 16 15
20 15 4 0 10 -7 14 -15z m-5 -96 c18 -25 20 -33 10 -45 -11 -14 -15 -13 -30 8
-16 20 -21 21 -38 11 -28 -18 -31 -17 -31 12 0 17 7 29 23 35 35 14 42 12 66
-21z m-334 -109 c3 -5 -1 -10 -9 -10 -9 0 -16 5 -16 10 0 6 4 10 9 10 6 0 13
-4 16 -10z m265 -85 c0 -8 -4 -15 -10 -15 -5 0 -10 7 -10 15 0 8 5 15 10 15 6
0 10 -7 10 -15z m87 -21 c-9 -9 -28 6 -21 18 4 6 10 6 17 -1 6 -6 8 -13 4 -17z
m229 -5 c10 -17 -13 -36 -27 -22 -12 12 -4 33 11 33 5 0 12 -5 16 -11z m29
-123 c20 -15 15 -46 -8 -46 -20 0 -40 27 -33 45 7 19 17 19 41 1z m35 -191 c7
-8 19 -15 27 -15 20 0 11 -24 -11 -28 -20 -4 -68 36 -60 49 8 14 30 11 44 -6z
m-95 -4 c10 -17 -11 -21 -31 -6 -18 14 -18 14 3 15 12 0 24 -4 28 -9z m68 -75
c9 -23 -18 -39 -42 -26 -33 17 -25 40 15 40 12 0 24 -6 27 -14z m109 -68 c-18
-18 -92 -19 -92 -2 0 10 14 14 52 14 40 0 49 -3 40 -12z m146 -35 c2 -16 -5
-26 -27 -38 -17 -8 -31 -20 -31 -25 0 -6 -4 -10 -9 -10 -9 0 -51 78 -51 94 0
4 26 6 58 4 50 -3 57 -6 60 -25z m-228 -55 c-1 -24 -36 -60 -55 -57 -29 6 -27
22 8 46 38 25 47 27 47 11z m110 -64 c0 -8 -3 -14 -6 -14 -12 0 -33 35 -33 55
0 19 1 19 19 -4 11 -13 20 -29 20 -37z m350 -24 c22 -22 25 -36 10 -45 -10 -6
-31 3 -65 30 -17 14 -18 17 -5 25 23 15 38 12 60 -10z m-650 -16 c0 -8 -4 -12
-10 -9 -5 3 -10 10 -10 16 0 5 5 9 10 9 6 0 10 -7 10 -16z m250 -71 c0 -7 -4
-13 -9 -13 -16 0 -33 30 -26 47 6 17 7 17 21 -1 8 -11 14 -26 14 -33z m-285
-43 c3 -5 -1 -10 -9 -10 -9 0 -16 5 -16 10 0 6 4 10 9 10 6 0 13 -4 16 -10z
m240 -50 c-3 -5 -11 -10 -16 -10 -6 0 -7 5 -4 10 3 6 11 10 16 10 6 0 7 -4 4
-10z m405 -54 c0 -16 -18 -31 -27 -22 -8 8 5 36 17 36 5 0 10 -6 10 -14z
m-289 -253 c-9 -16 -10 -15 -11 8 0 14 3 29 8 33 12 12 14 -22 3 -41z"/>
<path d="M1875 5861 c-3 -5 -2 -12 3 -15 5 -3 9 1 9 9 0 17 -3 19 -12 6z"/>
<path d="M1752 5763 c2 -20 9 -29 26 -31 18 -3 22 -8 16 -20 -3 -9 -9 -27 -12
-40 -2 -13 -22 -35 -44 -49 -28 -19 -35 -29 -26 -34 7 -5 9 -9 3 -10 -5 0 -1
-4 10 -9 19 -7 18 -8 -7 -15 -26 -7 -48 -35 -27 -35 24 0 50 23 69 60 11 21
27 43 36 48 10 6 17 25 19 54 1 25 8 54 14 66 15 29 14 34 -8 27 -11 -3 -22
-1 -26 5 -3 5 -15 10 -26 10 -16 0 -20 -6 -17 -27z"/>
<path d="M1710 5725 c-7 -8 -9 -22 -6 -31 5 -13 9 -14 21 -4 16 13 21 50 6 50
-5 0 -14 -7 -21 -15z"/>
<path d="M1006 5529 c-39 -91 -57 -141 -52 -147 3 -3 0 -15 -8 -26 -7 -12 -17
-41 -21 -66 l-7 -44 33 34 c28 28 34 41 35 79 0 25 6 64 13 86 29 91 33 107
27 112 -3 3 -12 -10 -20 -28z"/>
<path d="M1355 5370 c-3 -5 1 -10 10 -10 9 0 13 5 10 10 -3 6 -8 10 -10 10 -2
0 -7 -4 -10 -10z"/>
<path d="M1287 5298 c-4 -15 1 -30 13 -43 11 -12 20 -35 20 -53 0 -36 13 -48
30 -27 13 16 6 65 -10 65 -6 0 -5 11 2 26 11 22 10 28 -7 40 -27 20 -42 17
-48 -8z"/>
<path d="M1224 5029 c-9 -16 46 -69 72 -69 38 0 39 21 3 51 -36 30 -63 36 -75
18z"/>
<path d="M376 4932 c-3 -6 -1 -14 5 -17 15 -10 25 3 12 16 -7 7 -13 7 -17 1z"/>
<path d="M420 4884 c-11 -13 -10 -18 7 -35 35 -35 103 0 72 37 -15 19 -63 18
-79 -2z"/>
<path d="M1235 4850 c4 -6 11 -8 16 -5 14 9 11 15 -7 15 -8 0 -12 -5 -9 -10z"/>
<path d="M402 4233 c4 -31 23 -42 30 -16 7 25 -1 43 -18 43 -11 0 -14 -8 -12
-27z"/>
<path d="M355 3119 c16 -52 25 -69 35 -69 13 0 13 4 -4 44 -17 41 -42 61 -31
25z"/>
<path d="M2010 3071 c0 -12 5 -21 10 -21 6 0 10 6 10 14 0 8 -4 18 -10 21 -5
3 -10 -3 -10 -14z"/>
<path d="M1910 2979 c0 -9 7 -22 15 -29 19 -16 19 0 0 26 -12 16 -14 16 -15 3z"/>
<path d="M2008 2834 c6 -11 20 -28 33 -39 l23 -20 -20 34 c-20 37 -55 60 -36
25z"/>
<path d="M2150 2691 c0 -12 58 -61 72 -61 12 0 -6 26 -37 52 -22 19 -35 23
-35 9z"/>
<path d="M6093 1610 c-14 -6 -23 -18 -23 -30 0 -17 4 -19 28 -14 29 7 62 31
62 46 0 10 -38 9 -67 -2z"/>
</g>
</svg>
