<svg width="96.98288574218749px" height="80px" xmlns="http://www.w3.org/2000/svg" viewBox="201.50855712890626 35 96.98288574218749 80" style="background: rgba(0, 0, 0, 0);" preserveAspectRatio="xMidYMid"><defs><filter id="editing-extrusion" x="-100%" y="-100%" width="300%" height="300%"><feFlood result="color1" flood-color="#444444"></feFlood><feConvolveMatrix order="8,8" divisor="1" kernelMatrix="1 0 0 0 0 0 0 0 0 1 0 0 0 0 0 0 0 0 1 0 0 0 0 0 0 0 0 1 0 0 0 0 0 0 0 0 1 0 0 0 0 0 0 0 0 1 0 0 0 0 0 0 0 0 1 0 0 0 0 0 0 0 0 1" in="SourceAlpha" result="extrude"></feConvolveMatrix><feComposite in="color1" in2="extrude" result="comp-extrude" operator="in"></feComposite><feOffset dx="4" dy="4" in="comp-extrude" result="offset-extrude"></feOffset><feMerge><feMergeNode in="offset-extrude"></feMergeNode><feMergeNode in="SourceGraphic"></feMergeNode></feMerge></filter></defs><g filter="url(#editing-extrusion)"><g transform="translate(223.45451653003693, 89.33570861816406)"><path d="M8.70-13.36L7.59-10.55L7.59-10.55Q7.38-9.79 7.09-9.02L7.09-9.02L7.09-9.02Q6.80-8.26 6.68-7.32L6.68-7.32L6.68-7.32Q6.65-7.09 6.69-6.80L6.69-6.80L6.69-6.80Q6.74-6.50 6.74-6.18L6.74-6.18L6.74-6.18Q6.74-5.86 6.69-5.41L6.69-5.41L6.69-5.41Q6.65-4.95 6.67-4.53L6.67-4.53L6.67-4.53Q6.68-4.10 6.78-3.76L6.78-3.76L6.78-3.76Q6.88-3.43 7.18-3.34L7.18-3.34L7.18-3.34Q7.53-3.22 8.00-3.28L8.00-3.28L8.00-3.28Q8.47-3.34 8.96-3.44L8.96-3.44L8.96-3.44Q9.46-3.54 9.98-3.66L9.98-3.66L9.98-3.66Q10.49-3.78 10.96-3.75L10.96-3.75L10.96-3.75Q11.37-3.72 11.81-3.62L11.81-3.62L11.81-3.62Q12.25-3.52 12.66-3.57L12.66-3.57L12.66-3.57Q12.89-3.60 13.14-3.68L13.14-3.68L13.14-3.68Q13.39-3.75 13.62-3.78L13.62-3.78L13.62-3.78Q13.95-3.81 14.31-3.78L14.31-3.78L14.31-3.78Q14.68-3.75 15.06-3.81L15.06-3.81L15.06-3.81Q15.41-3.87 15.79-3.96L15.79-3.96L15.79-3.96Q16.17-4.04 16.49-4.07L16.49-4.07L16.49-4.07Q16.96-4.07 17.42-3.98L17.42-3.98L17.42-3.98Q17.87-3.90 18.30-3.76L18.30-3.76L18.30-3.76Q18.72-3.63 19.16-3.54L19.16-3.54L19.16-3.54Q19.60-3.46 20.04-3.46L20.04-3.46L20.04-3.46Q20.30-3.49 20.55-3.56L20.55-3.56L20.55-3.56Q20.80-3.63 21.01-3.34L21.01-3.34L21.01-3.34Q20.95-3.02 20.79-2.86L20.79-2.86L20.79-2.86Q20.63-2.70 20.48-2.49L20.48-2.49L20.48-2.49Q19.80-2.26 19.22-2.27L19.22-2.27L19.22-2.27Q18.63-2.29 17.99-2.23L17.99-2.23L17.99-2.23Q17.11-2.17 16.08-1.88L16.08-1.88L16.08-1.88Q15.06-1.58 14.21-1.35L14.21-1.35L14.21-1.35Q13.71-1.20 13.18-1.01L13.18-1.01L13.18-1.01Q12.66-0.82 12.07-0.67L12.07-0.67L12.07-0.67Q11.37-0.44 10.66-0.26L10.66-0.26L10.66-0.26Q9.96-0.09 9.29 0.18L9.29 0.18L9.29 0.18Q8.58 0.47 7.90 0.82L7.90 0.82L7.90 0.82Q7.21 1.17 6.45 1.35L6.45 1.35L6.45 1.35Q5.98 1.49 5.48 1.63L5.48 1.63L5.48 1.63Q4.98 1.76 4.54 1.76L4.54 1.76L4.54 1.76Q4.19 1.76 3.82 1.68L3.82 1.68L3.82 1.68Q3.46 1.61 3.12 1.46L3.12 1.46L3.12 1.46Q2.78 1.32 2.52 1.11L2.52 1.11L2.52 1.11Q2.26 0.91 2.11 0.67L2.11 0.67L2.11 0.67Q1.82 0.88 1.55 0.91L1.55 0.91L1.55 0.91Q1.29 0.94 1.03 0.89L1.03 0.89L1.03 0.89Q0.76 0.85 0.50 0.76L0.50 0.76L0.50 0.76Q0.23 0.67-0.06 0.64L-0.06 0.64L-0.06 0.64Q-0.21 0.38-0.40 0.18L-0.40 0.18L-0.40 0.18Q-0.59-0.03-0.76-0.26L-0.76-0.26L-0.76-0.26Q-0.82-0.85-0.53-1.30L-0.53-1.30L-0.53-1.30Q-0.23-1.76-0.06-2.29L-0.06-2.29L-0.06-2.29Q0.23-2.99 0.50-3.76L0.50-3.76L0.50-3.76Q0.76-4.54 0.91-5.30L0.91-5.30L0.91-5.30Q1.03-5.95 1.03-6.77L1.03-6.77L1.03-6.77Q1.03-7.59 1.26-8.23L1.26-8.23L2.58-11.54L2.58-11.54Q2.46-12.01 2.49-12.39L2.49-12.39L2.49-12.39Q2.52-12.77 2.64-13.15L2.64-13.15L2.64-13.15Q2.75-13.54 2.90-13.93L2.90-13.93L2.90-13.93Q3.05-14.33 3.19-14.82L3.19-14.82L3.19-14.82Q3.34-15.44 3.50-16.07L3.50-16.07L3.50-16.07Q3.66-16.70 3.72-17.49L3.72-17.49L3.72-17.49Q3.78-18.16 3.78-18.81L3.78-18.81L3.78-18.81Q3.78-19.45 3.43-19.89L3.43-19.89L3.43-19.89Q3.34-20.01 3.13-20.14L3.13-20.14L3.13-20.14Q2.93-20.27 2.72-20.41L2.72-20.41L2.72-20.41Q2.52-20.54 2.37-20.70L2.37-20.70L2.37-20.70Q2.23-20.86 2.23-21.01L2.23-21.01L2.23-21.01Q2.23-21.21 2.42-21.34L2.42-21.34L2.42-21.34Q2.61-21.47 2.87-21.55L2.87-21.55L2.87-21.55Q3.13-21.62 3.43-21.64L3.43-21.64L3.43-21.64Q3.72-21.65 3.98-21.65L3.98-21.65L3.98-21.65Q4.48-21.62 5.02-21.53L5.02-21.53L5.02-21.53Q5.57-21.45 6.06-21.39L6.06-21.39L6.06-21.39Q6.21-21.36 6.36-21.39L6.36-21.39L6.36-21.39Q6.50-21.42 6.65-21.39L6.65-21.39L6.65-21.39Q6.88-21.36 7.08-21.27L7.08-21.27L7.08-21.27Q7.27-21.18 7.44-21.18L7.44-21.18L7.44-21.18Q7.59-21.15 7.98-21.20L7.98-21.20L7.98-21.20Q8.38-21.24 8.53-21.21L8.53-21.21L8.53-21.21Q8.70-21.21 8.86-21.14L8.86-21.14L8.86-21.14Q9.02-21.06 9.23-21.04L9.23-21.04L9.23-21.04Q9.70-20.98 10.20-21.04L10.20-21.04L10.20-21.04Q10.69-21.09 11.18-21.15L11.18-21.15L11.18-21.15Q11.66-21.21 12.17-21.25L12.17-21.25L12.17-21.25Q12.69-21.30 13.21-21.21L13.21-21.21L13.21-21.21Q13.18-20.83 12.88-20.64L12.88-20.64L12.88-20.64Q12.57-20.45 12.36-20.30L12.36-20.30L12.36-20.30Q12.25-20.19 12.14-20.08L12.14-20.08L12.14-20.08Q12.04-19.98 11.92-19.89L11.92-19.89L11.92-19.89Q11.78-19.78 11.66-19.70L11.66-19.70L11.66-19.70Q11.54-19.63 11.43-19.51L11.43-19.51L11.43-19.51Q11.07-19.13 10.93-18.76L10.93-18.76L10.93-18.76Q10.78-18.40 10.55-17.87L10.55-17.87L10.55-17.87Q10.49-17.72 10.39-17.59L10.39-17.59L10.39-17.59Q10.28-17.46 10.20-17.31L10.20-17.31L10.20-17.31Q10.14-17.14 10.09-16.93L10.09-16.93L10.09-16.93Q10.05-16.73 9.96-16.58L9.96-16.58L9.96-16.58Q9.84-16.41 9.62-16.27L9.62-16.27L9.62-16.27Q9.40-16.14 9.26-15.91L9.26-15.91L9.26-15.91Q9.38-15.56 9.32-15.22L9.32-15.22L9.32-15.22Q9.26-14.88 9.16-14.58L9.16-14.58L9.16-14.58Q9.05-14.27 8.91-13.96L8.91-13.96L8.91-13.96Q8.76-13.65 8.70-13.36L8.70-13.36ZM20.60-3.02L20.60-3.02L20.60-3.02Q21.06-2.93 21.49-2.40L21.49-2.40L21.49-2.40Q21.91-1.88 21.77-1.20L21.77-1.20L21.77-1.20Q21.59-0.38 20.93 0.13L20.93 0.13L20.93 0.13Q20.27 0.64 19.45 0.82L19.45 0.82L19.45 0.82Q19.01 0.88 18.63 0.62L18.63 0.62L18.63 0.62Q18.25 0.35 18.05-0.07L18.05-0.07L18.05-0.07Q17.84-0.50 17.84-1.00L17.84-1.00L17.84-1.00Q17.84-1.49 18.13-1.93L18.13-1.93L18.13-1.93Q18.28-2.14 18.53-2.26L18.53-2.26L18.53-2.26Q18.78-2.37 19.01-2.55L19.01-2.55L19.01-2.55Q19.19-2.70 19.42-2.89L19.42-2.89L19.42-2.89Q19.66-3.08 19.95-3.11L19.95-3.11L19.95-3.11Q20.10-3.11 20.27-3.08L20.27-3.08L20.27-3.08Q20.45-3.05 20.60-3.02ZM40.14-7.79L40.14-7.79L40.14-7.79Q40.78-7.29 41.47-6.80L41.47-6.80L41.47-6.80Q42.16-6.30 42.57-5.60L42.57-5.60L42.57-5.60Q42.48-5.33 42.54-5.17L42.54-5.17L42.54-5.17Q42.60-5.01 42.73-4.88L42.73-4.88L42.73-4.88Q42.86-4.75 42.99-4.61L42.99-4.61L42.99-4.61Q43.13-4.48 43.18-4.28L43.18-4.28L43.18-4.28Q43.27-3.90 43.13-3.41L43.13-3.41L43.13-3.41Q42.98-2.93 42.92-2.46L42.92-2.46L42.92-2.46Q42.86-2.23 42.85-1.98L42.85-1.98L42.85-1.98Q42.83-1.73 42.77-1.49L42.77-1.49L42.77-1.49Q42.66-0.88 42.60-0.32L42.60-0.32L42.60-0.32Q42.54 0.23 42.74 0.85L42.74 0.85L42.74 0.85Q42.89 1.32 43.26 1.89L43.26 1.89L43.26 1.89Q43.62 2.46 44.00 2.64L44.00 2.64L44.00 2.64Q44.15 2.72 44.24 2.71L44.24 2.71L44.24 2.71Q44.33 2.70 44.47 2.75L44.47 2.75L44.47 2.75Q44.65 2.84 44.75 3.02L44.75 3.02L44.75 3.02Q44.85 3.19 45.12 3.28L45.12 3.28L45.12 3.28Q45.53 3.02 46.03 3.15L46.03 3.15L46.03 3.15Q46.52 3.28 47.02 3.25L47.02 3.25L47.02 3.25Q47.17 3.25 47.29 3.18L47.29 3.18L47.29 3.18Q47.40 3.11 47.52 3.11L47.52 3.11L47.52 3.11Q48.19 3.05 48.91 2.99L48.91 2.99L48.91 2.99Q49.63 2.93 50.30 2.72L50.30 2.72L50.30 2.72Q50.63 2.64 50.98 2.43L50.98 2.43L50.98 2.43Q51.33 2.23 51.68 2.02L51.68 2.02L51.68 2.02Q52.15 1.73 52.63 1.41L52.63 1.41L52.63 1.41Q53.12 1.08 53.73 1.29L53.73 1.29L53.73 1.29Q53.76 1.85 53.55 2.18L53.55 2.18L53.55 2.18Q53.35 2.52 53.03 2.77L53.03 2.77L53.03 2.77Q52.71 3.02 52.35 3.25L52.35 3.25L52.35 3.25Q52.00 3.49 51.77 3.78L51.77 3.78L51.77 3.78Q51.24 3.93 50.92 4.17L50.92 4.17L50.92 4.17Q50.60 4.42 50.19 4.69L50.19 4.69L50.19 4.69Q49.95 4.80 49.73 4.86L49.73 4.86L49.73 4.86Q49.51 4.92 49.31 5.07L49.31 5.07L49.31 5.07Q49.07 5.19 48.90 5.39L48.90 5.39L48.90 5.39Q48.72 5.60 48.52 5.74L48.52 5.74L48.52 5.74Q48.28 5.89 47.97 5.93L47.97 5.93L47.97 5.93Q47.67 5.98 47.40 6.04L47.40 6.04L47.40 6.04Q46.61 6.27 45.73 6.43L45.73 6.43L45.73 6.43Q44.85 6.59 43.96 6.64L43.96 6.64L43.96 6.64Q43.07 6.68 42.19 6.55L42.19 6.55L42.19 6.55Q41.31 6.42 40.52 6.06L40.52 6.06L40.52 6.06Q40.08 5.89 39.80 5.61L39.80 5.61L39.80 5.61Q39.52 5.33 39.20 5.01L39.20 5.01L39.20 5.01Q38.82 4.69 38.39 4.26L38.39 4.26L38.39 4.26Q37.97 3.84 37.73 3.43L37.73 3.43L37.73 3.43Q37.65 3.19 37.57 2.87L37.57 2.87L37.57 2.87Q37.50 2.55 37.41 2.23L37.41 2.23L37.41 2.23Q37.32 1.90 37.19 1.51L37.19 1.51L37.19 1.51Q37.06 1.11 37.06 0.67L37.06 0.67L37.06 0.67Q37.03-0.06 37.19-0.86L37.19-0.86L37.19-0.86Q37.35-1.67 37.49-2.45L37.49-2.45L37.49-2.45Q37.62-3.22 37.62-3.94L37.62-3.94L37.62-3.94Q37.62-4.66 37.32-5.21L37.32-5.21L37.32-5.21Q37.24-5.39 37.08-5.55L37.08-5.55L37.08-5.55Q36.91-5.71 36.77-5.92L36.77-5.92L36.77-5.92Q36.45-6.33 36.06-6.67L36.06-6.67L36.06-6.67Q35.68-7.00 35.01-7.09L35.01-7.09L35.01-7.09Q34.54-7.15 33.96-7.10L33.96-7.10L33.96-7.10Q33.37-7.06 33.11-6.86L33.11-6.86L33.11-6.86Q32.70-6.62 32.65-6.11L32.65-6.11L32.65-6.11Q32.61-5.60 32.49-5.04L32.49-5.04L32.49-5.04Q32.34-4.37 32.09-3.81L32.09-3.81L32.09-3.81Q31.85-3.25 31.93-2.55L31.93-2.55L31.93-2.55Q31.99-2.26 32.11-1.85L32.11-1.85L32.11-1.85Q32.23-1.44 32.34-1.20L32.34-1.20L32.34-1.20Q32.43-1.00 32.64-0.70L32.64-0.70L32.64-0.70Q32.84-0.41 32.70-0.18L32.70-0.18L32.70-0.18Q32.52 0.06 32.11 0L32.11 0L32.11 0Q31.70-0.06 31.29-0.09L31.29-0.09L31.29-0.09Q30.79-0.12 30.45-0.13L30.45-0.13L30.45-0.13Q30.12-0.15 29.82-0.13L29.82-0.13L29.82-0.13Q29.53-0.12 29.21-0.07L29.21-0.07L29.21-0.07Q28.89-0.03 28.42 0.03L28.42 0.03L28.42 0.03Q28.18 0.06 28.05 0.09L28.05 0.09L28.05 0.09Q27.92 0.12 27.82 0.16L27.82 0.16L27.82 0.16Q27.71 0.21 27.61 0.25L27.61 0.25L27.61 0.25Q27.51 0.29 27.30 0.35L27.30 0.35L27.30 0.35Q27.13 0.41 26.98 0.51L26.98 0.51L26.98 0.51Q26.84 0.62 26.69 0.67L26.69 0.67L26.69 0.67Q26.19 0.82 25.61 0.86L25.61 0.86L25.61 0.86Q25.02 0.91 24.49 0.91L24.49 0.91L24.49 0.91Q23.99 0.94 23.48 0.89L23.48 0.89L23.48 0.89Q22.97 0.85 22.56 0.70L22.56 0.70L22.56 0.70Q22.62 0.35 22.88 0.23L22.88 0.23L22.88 0.23Q23.14 0.12 23.32-0.09L23.32-0.09L23.32-0.09Q24.08-0.23 24.86-0.75L24.86-0.75L24.86-0.75Q25.63-1.26 25.87-2.02L25.87-2.02L25.87-2.02Q25.96-2.29 25.99-2.59L25.99-2.59L25.99-2.59Q26.02-2.90 26.07-3.19L26.07-3.19L26.07-3.19Q26.22-3.96 26.37-4.75L26.37-4.75L26.37-4.75Q26.51-5.54 26.75-6.33L26.75-6.33L26.75-6.33Q26.81-6.47 26.89-6.59L26.89-6.59L26.89-6.59Q26.98-6.71 27.04-6.86L27.04-6.86L27.04-6.86Q27.22-7.35 27.26-7.90L27.26-7.90L27.26-7.90Q27.30-8.44 27.45-8.94L27.45-8.94L27.45-8.94Q27.60-9.32 27.74-9.65L27.74-9.65L27.74-9.65Q27.89-9.99 27.98-10.34L27.98-10.34L27.98-10.34Q28.07-10.72 28.14-11.07L28.14-11.07L28.14-11.07Q28.21-11.43 28.42-11.72L28.42-11.72L28.42-11.72Q28.48-12.22 28.54-12.66L28.54-12.66L28.54-12.66Q28.59-13.10 28.56-13.68L28.56-13.68L28.56-13.68Q28.89-14.06 29.17-14.49L29.17-14.49L29.17-14.49Q29.44-14.91 29.53-15.50L29.53-15.50L29.53-15.50Q29.59-15.82 29.52-16.11L29.52-16.11L29.52-16.11Q29.44-16.41 29.44-16.76L29.44-16.76L29.44-16.76Q29.47-17.52 29.58-18.12L29.58-18.12L29.58-18.12Q29.68-18.72 29.74-19.48L29.74-19.48L29.74-19.48Q29.50-20.01 29.02-20.20L29.02-20.20L29.02-20.20Q28.54-20.39 27.98-20.74L27.98-20.74L27.98-20.74Q27.89-20.77 27.74-20.86L27.74-20.86L27.74-20.86Q27.60-20.95 27.44-21.05L27.44-21.05L27.44-21.05Q27.28-21.15 27.17-21.27L27.17-21.27L27.17-21.27Q27.07-21.39 27.07-21.47L27.07-21.47L27.07-21.47Q27.10-21.68 27.32-21.81L27.32-21.81L27.32-21.81Q27.54-21.94 27.82-21.99L27.82-21.99L27.82-21.99Q28.10-22.03 28.39-22.02L28.39-22.02L28.39-22.02Q28.68-22.00 28.89-21.97L28.89-21.97L28.89-21.97Q29.62-21.83 30.29-21.68L30.29-21.68L30.29-21.68Q30.97-21.53 31.68-21.43L31.68-21.43L31.68-21.43Q32.40-21.33 33.21-21.30L33.21-21.30L33.21-21.30Q34.01-21.27 35.04-21.36L35.04-21.36L35.04-21.36Q35.42-21.39 35.70-21.46L35.70-21.46L35.70-21.46Q35.98-21.53 36.33-21.56L36.33-21.56L36.33-21.56Q36.83-21.59 37.31-21.67L37.31-21.67L37.31-21.67Q37.79-21.74 38.29-21.68L38.29-21.68L38.29-21.68Q39.20-21.59 39.90-21.69L39.90-21.69L39.90-21.69Q40.61-21.80 41.40-21.71L41.40-21.71L41.40-21.71Q41.78-21.65 42.11-21.49L42.11-21.49L42.11-21.49Q42.45-21.33 42.79-21.15L42.79-21.15L42.79-21.15Q43.13-20.98 43.46-20.84L43.46-20.84L43.46-20.84Q43.80-20.71 44.15-20.68L44.15-20.68L44.15-20.68Q44.68-20.36 45.16-19.86L45.16-19.86L45.16-19.86Q45.64-19.37 46.05-18.75L46.05-18.75L46.05-18.75Q46.38-18.25 46.67-17.61L46.67-17.61L46.67-17.61Q46.96-16.96 47.11-16.52L47.11-16.52L47.11-16.52Q47.31-16.00 47.29-15.48L47.29-15.48L47.29-15.48Q47.26-14.97 47.14-14.50L47.14-14.50L47.14-14.50Q46.90-13.65 46.55-12.98L46.55-12.98L46.55-12.98Q46.20-12.30 45.78-11.70L45.78-11.70L45.78-11.70Q45.35-11.10 44.90-10.50L44.90-10.50L44.90-10.50Q44.44-9.90 44.06-9.26L44.06-9.26L44.06-9.26Q43.83-9.17 43.61-9.16L43.61-9.16L43.61-9.16Q43.39-9.14 43.18-9.05L43.18-9.05L43.18-9.05Q42.86-8.91 42.63-8.63L42.63-8.63L42.63-8.63Q42.39-8.35 42.01-8.23L42.01-8.23L42.01-8.23Q41.87-8.17 41.70-8.20L41.70-8.20L41.70-8.20Q41.54-8.23 41.40-8.20L41.40-8.20L41.40-8.20Q41.07-8.12 40.80-7.98L40.80-7.98L40.80-7.98Q40.52-7.85 40.14-7.79ZM38.41-10.28L38.41-10.28L38.41-10.28Q38.88-10.87 39.43-11.38L39.43-11.38L39.43-11.38Q39.99-11.89 40.31-12.57L40.31-12.57L40.31-12.57Q40.46-12.89 40.56-13.34L40.56-13.34L40.56-13.34Q40.66-13.80 40.75-14.21L40.75-14.21L40.75-14.21Q40.90-15.09 40.78-15.76L40.78-15.76L40.78-15.76Q40.66-16.44 40.37-16.96L40.37-16.96L40.37-16.96Q40.08-17.49 39.64-17.87L39.64-17.87L39.64-17.87Q39.20-18.25 38.67-18.54L38.67-18.54L38.67-18.54Q38.26-18.78 37.84-19.06L37.84-19.06L37.84-19.06Q37.41-19.34 36.80-19.16L36.80-19.16L36.80-19.16Q36.36-18.90 36.08-18.31L36.08-18.31L36.08-18.31Q35.80-17.72 35.57-17.23L35.57-17.23L35.57-17.23Q35.48-17.02 35.38-16.82L35.38-16.82L35.38-16.82Q35.27-16.61 35.21-16.46L35.21-16.46L35.21-16.46Q35.19-16.26 35.21-16.04L35.21-16.04L35.21-16.04Q35.24-15.82 35.19-15.59L35.19-15.59L35.19-15.59Q35.13-15.38 34.89-15.31L34.89-15.31L34.89-15.31Q34.66-15.23 34.63-15.03L34.63-15.03L34.63-15.03Q34.63-14.82 34.79-14.66L34.79-14.66L34.79-14.66Q34.95-14.50 34.95-14.27L34.95-14.27L34.95-14.27Q34.92-13.92 34.70-13.48L34.70-13.48L34.70-13.48Q34.48-13.04 34.42-12.57L34.42-12.57L34.42-12.57Q34.37-12.13 34.23-11.72L34.23-11.72L34.23-11.72Q34.10-11.31 33.97-10.90L33.97-10.90L33.97-10.90Q33.84-10.49 33.74-10.06L33.74-10.06L33.74-10.06Q33.63-9.64 33.66-9.20L33.66-9.20L33.66-9.20Q34.25-9.08 34.92-9.11L34.92-9.11L34.92-9.11Q35.60-9.14 36.24-9.29L36.24-9.29L36.24-9.29Q36.88-9.43 37.46-9.68L37.46-9.68L37.46-9.68Q38.03-9.93 38.41-10.28ZM48.08-3.02L48.08-3.02L48.08-3.02Q48.54-2.93 48.97-2.40L48.97-2.40L48.97-2.40Q49.39-1.88 49.25-1.20L49.25-1.20L49.25-1.20Q49.07-0.38 48.41 0.13L48.41 0.13L48.41 0.13Q47.75 0.64 46.93 0.82L46.93 0.82L46.93 0.82Q46.49 0.88 46.11 0.62L46.11 0.62L46.11 0.62Q45.73 0.35 45.53-0.07L45.53-0.07L45.53-0.07Q45.32-0.50 45.32-1.00L45.32-1.00L45.32-1.00Q45.32-1.49 45.62-1.93L45.62-1.93L45.62-1.93Q45.76-2.14 46.01-2.26L46.01-2.26L46.01-2.26Q46.26-2.37 46.49-2.55L46.49-2.55L46.49-2.55Q46.67-2.70 46.90-2.89L46.90-2.89L46.90-2.89Q47.14-3.08 47.43-3.11L47.43-3.11L47.43-3.11Q47.58-3.11 47.75-3.08L47.75-3.08L47.75-3.08Q47.93-3.05 48.08-3.02Z" fill="#e1e1e1"></path></g></g><style>text {
  font-size: 64px;
  font-family: Arial Black;
  dominant-baseline: central;
  text-anchor: middle;
}</style></svg>