<?xml version="1.0" standalone="yes"?>
<svg xmlns="http://www.w3.org/2000/svg" width="100" height="100">
<path style="fill:#171717; stroke:none;" d="M0 0L0 100L100 100L100 0L0 0z"/>
<path style="fill:#fafafa; stroke:none;" d="M4 19L4 20C7.8895 21.1849 12.5726 21.1145 14.821 25.1088C19.4909 33.4049 16 51.5823 16 61C16 64.6941 16.742 69.5279 14.821 72.8665C12.7562 76.455 8.71011 76.8276 5 77L5 78L58 78L58 56L56 56C54.3749 67.0043 47.9353 76.395 36 76.9599C32.6744 77.1173 28.1989 77.4237 25.858 74.5664C23.3793 71.5408 24.0014 66.6325 24 63C23.9963 53.3851 20.0474 32.2129 25.858 24.2284C28.2013 21.0084 32.5141 21.0619 36 20L4 19z"/>
<path style="fill:#7e7e7f; stroke:none;" d="M42 19L43 20L42 19z"/>
<path style="fill:#fafafa; stroke:none;" d="M43 19L43 21C52.0985 21 64.77 17.8077 72.9846 22.858C81.5882 28.1476 80.2957 39.1256 71.9961 43.9105C67.2089 46.6704 61.3056 46 56 46L56 47C59.0066 47.2393 62.1179 47.575 64.9992 48.5332C78.6264 53.065 70.0636 69.2204 78.5579 77.4275C89.7088 88.2015 94.9364 68.6802 95 61L94 61C93.8719 63.9758 91.58 79.9297 85.7415 73.6235C83.375 71.0674 83.8854 66.2062 83.1003 63C81.1654 55.0977 76.1212 49.4657 68 48C72.2179 46.1853 76.9331 45.5694 80.9961 43.4066C89.9687 38.6305 90.0434 27.2546 80.9961 22.4421C70.1988 16.6988 54.7721 19 43 19z"/>
<path style="fill:#a7a7a7; stroke:none;" d="M69 19L69 20L72 20L69 19z"/>
<path style="fill:#7e7e7f; stroke:none;" d="M72 19L73 20L72 19z"/>
<path style="fill:#5e5e5f; stroke:none;" d="M73 19L74 20L73 19z"/>
<path style="fill:#a7a7a7; stroke:none;" d="M4 20L5 21L4 20M35 20L36 21L35 20z"/>
<path style="fill:#5e5e5f; stroke:none;" d="M42 20L43 21L42 20z"/>
<path style="fill:#a7a7a7; stroke:none;" d="M56 20L56 21L64 21L56 20M75 20L76 21L75 20z"/>
<path style="fill:#5e5e5f; stroke:none;" d="M76 20L77 21L76 20M11 21L12 22L11 21M28 21L29 22L28 21M70 21L71 22L70 21z"/>
<path style="fill:#a7a7a7; stroke:none;" d="M79 21L80 22L79 21M13 22L14 23L13 22M26 22L27 23L26 22z"/>
<path style="fill:#5e5e5f; stroke:none;" d="M72 22L73 23L72 22z"/>
<path style="fill:#a7a7a7; stroke:none;" d="M73 22L74 23L73 22M81 22L82 23L81 22z"/>
<path style="fill:#7e7e7f; stroke:none;" d="M83 23L84 24L83 23z"/>
<path style="fill:#5e5e5f; stroke:none;" d="M84 24L85 25L84 24z"/>
<path style="fill:#a7a7a7; stroke:none;" d="M15.3333 25.6667L15.6667 26.3333L15.3333 25.6667M85 25L86 26L85 25M24.3333 26.6667L24.6667 27.3333L24.3333 26.6667z"/>
<path style="fill:#5e5e5f; stroke:none;" d="M86 26L87 27L86 26M15 27L15 70L16 70C16 57.7812 19.7105 38.2256 15 27M87 27L88 28L87 27z"/>
<path style="fill:#7e7e7f; stroke:none;" d="M24 28L25 29L24 28M78 28L79 29L78 28z"/>
<path style="fill:#a7a7a7; stroke:none;" d="M87 28L88 29L87 28z"/>
<path style="fill:#5e5e5f; stroke:none;" d="M24 29L24 70L25 70C25 58.3043 28.5108 39.7499 24 29z"/>
<path style="fill:#a7a7a7; stroke:none;" d="M79.3333 32.6667L79.6667 33.3333L79.3333 32.6667z"/>
<path style="fill:#5e5e5f; stroke:none;" d="M78 36L79 37L78 36z"/>
<path style="fill:#a7a7a7; stroke:none;" d="M78 37L79 38L78 37z"/>
<path style="fill:#7e7e7f; stroke:none;" d="M87 37L88 38L87 37M77 39L78 40L77 39z"/>
<path style="fill:#a7a7a7; stroke:none;" d="M85 40L86 41L85 40z"/>
<path style="fill:#5e5e5f; stroke:none;" d="M74 42L75 43L74 42z"/>
<path style="fill:#a7a7a7; stroke:none;" d="M73 43L74 44L73 43M80 43L81 44L80 43z"/>
<path style="fill:#5e5e5f; stroke:none;" d="M70 44L71 45L70 44z"/>
<path style="fill:#a7a7a7; stroke:none;" d="M71 44L72 45L71 44z"/>
<path style="fill:#5e5e5f; stroke:none;" d="M79 44L80 45L79 44M65.6667 45.3333L66.3333 45.6667L65.6667 45.3333z"/>
<path style="fill:#a7a7a7; stroke:none;" d="M67.6667 45.3333L68.3333 45.6667L67.6667 45.3333z"/>
<path style="fill:#5e5e5f; stroke:none;" d="M75 45L76 46L75 45z"/>
<path style="fill:#a7a7a7; stroke:none;" d="M71 46L72 47L71 46z"/>
<path style="fill:#7e7e7f; stroke:none;" d="M56 47L56 48L60 48L56 47z"/>
<path style="fill:#a7a7a7; stroke:none;" d="M60 47L61 48L60 47M68 47L69 48L68 47z"/>
<path style="fill:#5e5e5f; stroke:none;" d="M69 47L70 48L69 47z"/>
<path style="fill:#7e7e7f; stroke:none;" d="M65 48L66 49L65 48z"/>
<path style="fill:#a7a7a7; stroke:none;" d="M71 48L72 49L71 48z"/>
<path style="fill:#5e5e5f; stroke:none;" d="M67 49L68 50L67 49z"/>
<path style="fill:#a7a7a7; stroke:none;" d="M68 49L69 50L68 49M73 49L74 50L73 49M75 50L76 51L75 50z"/>
<path style="fill:#7e7e7f; stroke:none;" d="M70 51L71 52L70 51z"/>
<path style="fill:#5e5e5f; stroke:none;" d="M76 51L77 52L76 51z"/>
<path style="fill:#7e7e7f; stroke:none;" d="M71 52L72 53L71 52M78 53L79 54L78 53z"/>
<path style="fill:#a7a7a7; stroke:none;" d="M72 54L73 55L72 54M79 54L80 55L79 54z"/>
<path style="fill:#5e5e5f; stroke:none;" d="M72 55L73 56L72 55z"/>
<path style="fill:#a7a7a7; stroke:none;" d="M58 56L58 78L4 77C7.79636 81.3445 20.4727 79 26 79L49 79C51.6168 78.9988 56.1087 79.7495 57.9722 77.3966C60.1745 74.616 59.0011 68.3274 59 65C58.999 61.8694 59.2131 58.8909 58 56M73 57L74 58L73 57z"/>
<path style="fill:#5e5e5f; stroke:none;" d="M81 57L82 58L81 57M73 58L74 59L73 58z"/>
<path style="fill:#7e7e7f; stroke:none;" d="M55 59L56 60L55 59M82 60L83 61L82 60z"/>
<path style="fill:#a7a7a7; stroke:none;" d="M93 60L93 67L94 67L95 60L93 60z"/>
<path style="fill:#7e7e7f; stroke:none;" d="M54 62L55 63L54 62M83 63L84 64L83 63z"/>
<path style="fill:#a7a7a7; stroke:none;" d="M83 64L84 65L83 64z"/>
<path style="fill:#5e5e5f; stroke:none;" d="M53 65L54 66L53 65z"/>
<path style="fill:#7e7e7f; stroke:none;" d="M52 67L53 68L52 67z"/>
<path style="fill:#a7a7a7; stroke:none;" d="M74.3333 68.6667L74.6667 69.3333L74.3333 68.6667z"/>
<path style="fill:#5e5e5f; stroke:none;" d="M94.3333 68.6667L94.6667 69.3333L94.3333 68.6667z"/>
<path style="fill:#7e7e7f; stroke:none;" d="M51 69L52 70L51 69z"/>
<path style="fill:#5e5e5f; stroke:none;" d="M92 69L93 70L92 69z"/>
<path style="fill:#7e7e7f; stroke:none;" d="M15 70L16 71L15 70M24 70L25 71L24 70M50 70L51 71L50 70M74 70L75 71L74 70M92 70L93 71L92 70z"/>
<path style="fill:#a7a7a7; stroke:none;" d="M15.3333 71.6667L15.6667 72.3333L15.3333 71.6667M24.3333 71.6667L24.6667 72.3333L24.3333 71.6667M92 71L93 72L92 71z"/>
<path style="fill:#7e7e7f; stroke:none;" d="M48 72L49 73L48 72z"/>
<path style="fill:#a7a7a7; stroke:none;" d="M75 72L76 73L75 72z"/>
<path style="fill:#5e5e5f; stroke:none;" d="M84 72L85 73L84 72z"/>
<path style="fill:#a7a7a7; stroke:none;" d="M47 73L48 74L47 73z"/>
<path style="fill:#5e5e5f; stroke:none;" d="M75 73L76 74L75 73M91 73L92 74L91 73z"/>
<path style="fill:#a7a7a7; stroke:none;" d="M93 73L94 74L93 73M14 74L15 75L14 74z"/>
<path style="fill:#7e7e7f; stroke:none;" d="M45 74L46 75L45 74M85 74L86 75L85 74z"/>
<path style="fill:#a7a7a7; stroke:none;" d="M13 75L14 76L13 75M25 75L26 76L25 75z"/>
<path style="fill:#7e7e7f; stroke:none;" d="M43 75L44 76L43 75z"/>
<path style="fill:#a7a7a7; stroke:none;" d="M76 75L77 76L76 75z"/>
<path style="fill:#7e7e7f; stroke:none;" d="M92 75L93 76L92 75z"/>
<path style="fill:#5e5e5f; stroke:none;" d="M7.66667 76.3333L8.33333 76.6667L7.66667 76.3333z"/>
<path style="fill:#7e7e7f; stroke:none;" d="M9 76L10 77L9 76z"/>
<path style="fill:#a7a7a7; stroke:none;" d="M10 76L11 77L10 76M27 76L28 77L27 76z"/>
<path style="fill:#7e7e7f; stroke:none;" d="M28 76L29 77L28 76z"/>
<path style="fill:#5e5e5f; stroke:none;" d="M29 76L30 77L29 76M38 76L39 77L38 76z"/>
<path style="fill:#7e7e7f; stroke:none;" d="M39 76L40 77L39 76z"/>
<path style="fill:#a7a7a7; stroke:none;" d="M40 76L41 77L40 76M77 76L78 77L77 76z"/>
<path style="fill:#5e5e5f; stroke:none;" d="M91 77L92 78L91 77z"/>
<path style="fill:#7e7e7f; stroke:none;" d="M58 78L59 79L58 78z"/>
<path style="fill:#a7a7a7; stroke:none;" d="M79 78L80 79L79 78z"/>
<path style="fill:#7e7e7f; stroke:none;" d="M80 79L81 80L80 79z"/>
<path style="fill:#a7a7a7; stroke:none;" d="M88 79L89 80L88 79z"/>
</svg>
