<?xml version="1.0" standalone="no"?>
<!DOCTYPE svg PUBLIC "-//W3C//DTD SVG 20010904//EN"
 "http://www.w3.org/TR/2001/REC-SVG-20010904/DTD/svg10.dtd">
<svg version="1.0" xmlns="http://www.w3.org/2000/svg"
 width="436.000000pt" height="438.000000pt" viewBox="0 0 436.000000 438.000000"
 preserveAspectRatio="xMidYMid meet">

<g transform="translate(0.000000,438.000000) scale(0.100000,-0.100000)"
fill="#000000" stroke="none">
<path d="M166 4358 c-3 -13 -6 -50 -6 -83 0 -56 3 -63 36 -98 20 -20 42 -37
48 -37 28 0 53 -45 59 -104 4 -39 18 -83 42 -130 30 -60 35 -79 33 -128 -3
-48 1 -60 21 -82 14 -14 30 -26 37 -26 16 0 24 -23 24 -70 0 -74 36 -110 109
-110 52 0 146 -122 115 -149 -5 -4 -30 -15 -56 -25 -52 -19 -71 -14 -118 30
-14 12 -44 27 -68 32 -61 14 -92 37 -92 69 0 76 -221 175 -327 147 -22 -6 -23
-11 -23 -99 0 -89 1 -92 25 -103 36 -16 37 -16 97 19 58 34 106 36 155 4 25
-17 25 -18 7 -35 -26 -24 -98 -50 -139 -50 -29 0 -39 -6 -61 -39 -14 -22 -39
-44 -55 -50 -28 -10 -29 -13 -29 -70 0 -44 4 -61 13 -61 8 0 34 -15 58 -34 24
-19 55 -36 69 -38 37 -5 40 -58 6 -107 -14 -20 -26 -42 -26 -49 0 -6 20 -31
44 -55 l45 -43 61 10 c72 12 85 6 118 -52 30 -54 72 -70 116 -43 37 22 64 15
89 -22 15 -23 19 -24 51 -15 31 10 40 8 86 -22 49 -31 54 -33 98 -22 50 11
137 1 156 -18 15 -15 -12 -60 -50 -82 -30 -17 -41 -18 -193 -5 -127 10 -164
10 -172 0 -6 -6 -23 -15 -39 -18 -16 -4 -40 -15 -53 -25 -21 -17 -27 -17 -63
-5 -35 12 -42 12 -69 -5 -16 -10 -35 -33 -41 -51 -13 -39 -37 -54 -63 -39 -11
5 -29 10 -40 10 -26 0 -28 -35 -5 -68 25 -36 93 -27 115 16 19 37 22 38 75 36
56 -2 66 -11 66 -58 0 -28 6 -41 25 -54 13 -9 37 -27 52 -39 15 -12 40 -23 55
-25 27 -3 30 -8 46 -75 9 -40 15 -75 12 -78 -3 -3 3 -5 14 -5 11 0 30 -7 43
-16 18 -13 28 -14 47 -6 17 8 25 8 30 0 4 -7 3 -8 -4 -4 -7 4 -12 5 -12 2 0
-12 106 -58 174 -76 110 -28 149 -47 142 -67 -9 -22 10 -33 57 -33 54 0 50
-30 -12 -92 -27 -27 -44 -51 -38 -53 7 -2 43 -7 80 -10 57 -6 74 -12 110 -41
23 -18 60 -43 82 -55 22 -12 60 -35 85 -52 l45 -30 -26 29 c-25 27 -27 35 -23
98 6 131 21 153 94 141 29 -5 41 -13 53 -38 44 -90 67 -142 67 -153 0 -6 8
-22 19 -35 10 -13 20 -28 21 -34 6 -23 74 -120 97 -138 13 -11 22 -22 19 -25
-3 -3 3 -11 14 -19 11 -8 20 -23 20 -33 0 -19 48 -60 70 -60 7 0 10 -7 7 -15
-4 -8 -2 -17 3 -20 6 -4 10 -1 10 4 0 19 22 12 27 -8 3 -11 16 -22 29 -25 14
-4 33 -15 44 -26 11 -11 20 -17 20 -13 0 3 8 -1 18 -9 9 -8 32 -18 49 -21 65
-13 178 -75 141 -78 -7 -1 1 -4 19 -9 20 -4 53 -2 85 6 29 8 67 14 84 14 19 0
34 6 38 15 3 8 13 15 23 15 10 0 24 9 31 20 16 26 37 27 23 1 -6 -10 -8 -21
-5 -24 3 -3 -1 -34 -10 -69 -8 -34 -22 -99 -31 -143 -40 -202 -69 -305 -86
-310 -15 -5 -12 -14 22 -71 22 -35 42 -78 46 -95 l6 -31 23 29 c13 15 33 55
45 88 12 33 39 96 60 140 20 44 40 96 44 115 4 19 11 40 16 46 5 6 13 32 18
58 10 54 -3 112 -34 148 -14 16 -20 36 -19 63 2 67 12 90 48 103 50 18 53 16
76 -46 11 -31 29 -68 39 -82 10 -14 26 -46 36 -72 14 -38 15 -53 6 -75 -6 -16
-18 -55 -27 -88 -18 -73 -63 -156 -113 -209 l-36 -39 40 31 c61 48 168 178
203 248 30 59 49 146 56 254 7 102 21 162 48 201 14 19 17 21 17 7 1 -10 5
-18 11 -18 5 0 7 -7 4 -15 -4 -8 -2 -15 3 -15 15 0 16 -30 10 -217 -1 -46 1
-83 4 -83 3 0 5 -18 4 -39 -1 -22 1 -43 4 -48 9 -12 70 -55 131 -92 30 -19 75
-50 100 -70 25 -20 65 -48 90 -61 55 -29 145 -89 185 -125 16 -14 45 -36 65
-47 19 -12 69 -49 110 -82 41 -33 77 -61 80 -64 3 -2 5 -18 5 -35 0 -23 -6
-35 -22 -44 -30 -16 -157 -112 -213 -162 l-45 -40 393 -1 392 0 0 2190 0 2190
-2094 0 -2094 0 -6 -22z m732 -266 c2 -7 -3 -12 -12 -12 -9 0 -16 7 -16 16 0
17 22 14 28 -4z m-278 -102 c24 -24 25 -47 3 -72 -18 -21 -53 -24 -71 -6 -17
17 -15 64 4 82 21 21 40 20 64 -4z m1701 -220 c8 -5 40 -11 70 -13 31 -3 75
-10 100 -17 24 -6 58 -15 74 -19 39 -10 115 -67 141 -106 10 -16 29 -31 42
-33 21 -3 32 -22 12 -22 -5 0 -7 -7 -3 -16 13 -35 -31 -8 -61 38 -17 26 -38
49 -46 53 -12 5 -13 4 -2 -6 29 -30 9 -30 -22 0 -19 18 -39 30 -44 27 -6 -3
-14 -1 -18 5 -5 8 -3 9 7 4 8 -5 11 -5 7 0 -5 5 -21 10 -38 12 -16 1 -55 17
-86 35 -59 33 -67 34 -253 43 -57 3 -107 7 -109 10 -8 7 -64 4 -92 -5 -20 -7
-15 -9 25 -8 28 0 57 -2 65 -5 8 -3 44 -11 80 -18 36 -6 76 -18 90 -26 15 -9
17 -11 5 -7 -21 7 -57 15 -143 33 -84 17 -308 -11 -447 -56 -65 -21 -142 -59
-152 -76 -4 -7 -30 -29 -58 -48 -27 -18 -95 -78 -149 -132 -96 -94 -134 -122
-81 -59 14 16 25 34 25 40 0 6 23 31 51 56 28 25 45 46 38 46 -8 0 -42 -30
-77 -67 -71 -75 -93 -80 -32 -7 22 27 40 52 40 56 0 9 132 98 188 126 26 13
58 34 72 47 32 31 82 51 145 60 28 4 70 13 95 20 55 16 91 24 150 31 25 3 61
10 80 14 40 10 287 2 311 -10z m-233 -61 c33 -2 32 -2 -13 -9 -27 -4 -52 -6
-54 -4 -2 2 2 4 10 4 12 0 11 2 -1 11 -12 9 -12 10 3 5 10 -3 35 -7 55 -7z
m162 -34 c17 -9 30 -18 30 -21 0 -2 -10 1 -22 7 -12 6 -33 15 -47 20 -17 5
-20 8 -8 8 10 1 31 -6 47 -14z m-343 -10 c-48 -7 -93 -17 -100 -23 -6 -5 -52
-17 -100 -25 -49 -9 -108 -25 -133 -36 -73 -33 -49 -13 31 26 41 19 94 37 118
38 46 4 87 11 132 24 17 5 55 9 85 9 50 0 47 -1 -33 -13z m571 -33 c16 1 36
-3 44 -9 7 -6 47 -28 88 -49 83 -42 197 -144 251 -224 19 -27 40 -50 47 -50
19 0 15 10 -43 95 -45 66 -52 81 -39 88 11 6 22 1 40 -18 13 -14 22 -30 19
-35 -3 -4 2 -11 11 -14 8 -3 13 -10 10 -15 -4 -5 -1 -11 6 -13 8 -3 13 -26 13
-65 0 -34 3 -59 7 -57 7 5 10 -4 7 -22 0 -4 3 -10 8 -13 15 -11 43 -68 36 -75
-3 -3 -1 -6 6 -6 7 0 9 -4 6 -10 -3 -5 -1 -10 5 -10 7 0 10 -7 6 -15 -3 -8 -2
-15 2 -15 4 0 14 -20 21 -45 7 -25 22 -56 33 -70 11 -14 16 -29 13 -35 -3 -5
-3 -10 2 -10 9 0 39 -61 35 -72 -1 -5 3 -8 9 -8 5 0 7 -4 4 -10 -3 -5 -1 -10
4 -10 6 0 10 -3 10 -7 -4 -22 2 -40 14 -41 65 -5 87 -8 92 -14 4 -4 13 -4 21
-1 8 3 17 -2 20 -11 3 -9 9 -14 13 -12 3 2 17 -8 31 -22 14 -13 18 -21 10 -17
-8 4 -5 -2 8 -12 13 -10 24 -26 26 -33 1 -8 8 -26 16 -40 8 -14 13 -30 12 -37
-1 -6 2 -14 8 -18 15 -9 12 -71 -5 -85 -8 -7 -12 -16 -9 -21 3 -5 0 -9 -6 -9
-7 0 -10 -6 -7 -14 3 -8 3 -16 -1 -18 -4 -2 -17 -21 -29 -43 -31 -57 -83 -96
-135 -102 l-43 -5 3 -47 c2 -25 -6 -90 -17 -144 -20 -97 -20 -139 4 -187 20
-41 17 -125 -6 -151 -10 -12 -19 -34 -19 -50 0 -15 -5 -29 -12 -31 -8 -3 -12
-22 -11 -49 1 -32 -1 -39 -7 -24 l-9 20 -2 -20 c-3 -30 -5 -38 -14 -58 -4 -10
-5 -43 -2 -73 5 -52 4 -57 -31 -96 -71 -79 -80 -87 -118 -93 -22 -4 -46 -9
-54 -12 -26 -9 -81 -10 -86 -1 -7 11 -48 10 -61 -3 -22 -22 -70 -19 -96 7 -22
21 -32 24 -88 22 -60 -3 -64 -1 -67 20 -2 12 -10 22 -18 22 -8 0 -17 6 -20 14
-3 8 -19 20 -35 26 -16 7 -29 18 -29 25 0 12 -80 33 -164 42 -52 5 -74 23 -97
76 -6 15 -19 27 -29 27 -9 0 -20 3 -24 7 -4 4 -35 8 -68 9 -50 1 -64 5 -79 22
-9 12 -19 22 -22 22 -7 0 -151 149 -161 167 -5 9 -8 92 -7 186 1 121 -2 173
-10 178 -19 11 -40 78 -51 159 -5 44 -15 80 -24 86 -19 15 -17 116 3 156 8 15
12 32 8 37 -8 13 52 57 95 69 43 12 20 14 -38 3 -36 -7 -40 -6 -31 6 10 11 8
17 -9 29 -19 13 -21 21 -16 77 4 34 10 66 15 72 5 5 9 19 9 32 0 15 25 49 68
95 83 88 102 125 51 97 -11 -5 -41 -17 -67 -24 l-47 -14 30 22 c17 12 47 38
69 57 l38 36 -36 -1 c-35 -2 -36 -1 -21 19 39 53 54 81 45 84 -6 2 -8 8 -4 13
7 12 -3 11 -27 -1 -23 -13 -26 2 -4 20 26 22 16 32 -12 12 -49 -33 -59 -37
-39 -14 21 24 16 28 -17 11 -16 -8 -12 -1 12 25 19 20 32 36 28 36 -4 0 1 12
10 27 20 30 14 28 -47 -15 l-35 -25 34 36 c19 21 30 37 24 37 -6 0 -16 -7 -23
-16 -8 -8 -23 -20 -34 -26 -17 -9 -19 -8 -8 3 21 22 13 33 -10 13 -12 -10 -18
-13 -14 -6 9 16 6 15 -31 -3 -17 -8 -50 -19 -74 -24 -24 -5 -52 -12 -61 -16
-11 -4 -18 -3 -18 4 0 6 4 11 9 11 5 0 23 11 39 25 16 13 32 22 35 19 3 -3 8
0 13 7 4 8 3 10 -4 5 -7 -4 -12 -1 -12 8 0 20 1 20 -72 -9 -34 -14 -64 -23
-66 -20 -5 4 101 55 114 55 3 0 20 7 37 15 43 19 181 54 184 46 4 -10 128 3
125 13 -2 5 25 18 58 28 34 11 60 21 58 23 -2 2 -35 -2 -73 -10 -118 -22 -131
-24 -143 -16 -12 7 15 39 48 55 8 4 4 -2 -10 -13 -33 -27 -22 -26 67 4 41 14
77 24 81 21 5 -3 54 -7 110 -10 94 -6 101 -5 95 11 -6 16 -4 16 15 -1 12 -11
25 -17 28 -13 3 3 17 1 31 -4 31 -11 48 -2 32 17 -8 10 -8 14 0 14 6 0 11 -4
11 -8 0 -5 11 -14 25 -20 24 -11 25 -10 15 8 -6 11 -20 25 -31 31 -11 6 -19
12 -17 14 4 5 82 -21 110 -36 10 -5 18 -6 18 -1 0 5 -12 14 -26 21 -15 6 -24
14 -21 18 4 3 12 1 20 -5 7 -6 27 -10 44 -10 31 1 31 1 15 27 -16 26 -16 26 4
8 12 -10 34 -17 52 -15z m-628 -6 c-36 -13 -74 -26 -85 -31 -11 -4 -4 3 15 16
36 23 79 37 115 37 11 0 -9 -10 -45 -22z m-284 -21 c-11 -8 -25 -15 -30 -15
-6 1 0 7 14 15 32 19 40 18 16 0z m68 -43 c2 -4 -7 -9 -22 -10 -15 -1 -40 -7
-55 -13 -15 -7 -30 -9 -33 -6 -5 5 70 35 93 36 6 1 14 -3 17 -7z m76 -41 c0
-12 -51 -29 -70 -23 -9 3 1 10 25 18 22 6 41 12 43 13 1 1 2 -3 2 -8z m-808
-80 c-3 -34 1 -48 19 -67 18 -19 20 -27 11 -36 -14 -14 -40 -2 -53 23 -47 94
-47 132 -2 127 26 -3 28 -6 25 -47z m583 24 c-20 -14 -42 -24 -48 -22 -12 4
52 47 72 47 8 0 -3 -11 -24 -25z m121 3 c-10 -5 -24 -7 -32 -4 -9 3 -12 1 -9
-4 3 -6 2 -10 -4 -10 -5 0 -13 5 -16 10 -8 13 33 29 58 22 18 -4 18 -6 3 -14z
m-211 -38 c-3 -5 -16 -15 -28 -21 -19 -9 -19 -8 3 10 28 23 34 26 25 11z m-1
-55 c-14 -19 -31 -35 -36 -35 -5 0 -57 -48 -116 -107 -58 -60 -102 -102 -98
-94 7 10 5 12 -3 7 -7 -5 -10 -14 -8 -21 3 -6 -7 -25 -21 -41 -15 -15 -37 -44
-49 -63 -27 -44 -30 -34 -4 17 10 20 24 61 31 90 10 42 14 50 24 38 12 -15 56
-5 56 13 0 16 60 101 71 101 6 0 7 5 4 10 -3 6 1 10 9 10 9 0 16 5 16 12 0 6
3 8 7 5 3 -4 13 2 20 13 11 16 107 79 121 80 2 0 -9 -16 -24 -35z m-927 -61
c8 -21 -10 -36 -42 -36 -29 0 -46 17 -38 39 7 19 72 17 80 -3z m980 10 c-3 -3
-12 -4 -19 -1 -8 3 -5 6 6 6 11 1 17 -2 13 -5z m-214 -125 c-10 -17 -24 -36
-32 -42 -8 -7 -2 7 14 31 32 49 45 57 18 11z m-818 -145 c23 -23 15 -48 -17
-52 -19 -2 -30 3 -38 18 -23 43 19 69 55 34z m1190 -84 c-22 -10 -51 -18 -65
-18 -17 0 -10 5 25 18 66 23 91 23 40 0z m-712 -106 c9 -9 -4 -35 -14 -28 -5
3 -9 12 -9 20 0 14 12 19 23 8z m482 -144 c-28 -12 -47 -12 -40 0 3 6 18 10
33 9 24 0 25 -1 7 -9z m-36 -217 c44 -21 58 -24 72 -14 24 15 30 14 23 -3 -4
-10 1 -12 18 -9 25 5 24 8 28 -78 2 -45 3 -47 34 -45 28 1 32 -3 43 -39 17
-57 31 -133 48 -265 9 -63 22 -125 30 -137 17 -26 19 -43 5 -43 -5 0 -10 7
-10 16 0 8 -4 13 -9 9 -12 -7 -22 8 -42 65 l-16 45 -12 -38 c-16 -49 -34 -57
-111 -50 -101 9 -167 55 -224 158 -88 157 -115 217 -121 270 -12 93 7 142 73
187 29 20 94 9 171 -29z m-662 -70 c3 -7 -17 -35 -43 -63 -35 -37 -54 -50 -75
-50 -16 0 -29 5 -29 10 0 14 50 92 69 108 19 15 73 12 78 -5z m1807 -1958 c4
-38 3 -53 -2 -40 -12 25 -22 133 -12 114 5 -8 11 -41 14 -74z m1400 -305 c-5
-5 -50 -30 -99 -55 -50 -24 -101 -52 -115 -61 -19 -12 -18 -10 5 10 17 15 44
34 60 43 17 8 41 25 55 38 37 33 83 55 95 44 5 -6 5 -13 -1 -19z"/>
<path d="M1789 3143 c-13 -16 -12 -17 4 -4 9 7 17 15 17 17 0 8 -8 3 -21 -13z"/>
<path d="M2505 2886 c-27 -8 -52 -13 -55 -11 -8 5 -35 -12 -35 -22 -1 -4 -6
-18 -13 -31 -12 -21 -9 -20 29 7 23 17 51 31 63 31 17 -1 15 -3 -9 -14 -16 -7
-39 -24 -50 -37 l-20 -24 20 17 c30 25 97 47 131 42 102 -15 135 -28 169 -65
44 -49 75 -159 44 -159 -5 0 -8 4 -5 9 3 4 0 22 -6 38 -11 29 -13 30 -45 20
-27 -8 -36 -8 -43 2 -10 17 -104 52 -150 57 -19 2 -28 1 -20 -2 98 -40 129
-58 132 -77 2 -16 12 -23 40 -28 21 -3 46 -16 57 -27 10 -12 23 -22 30 -22 7
0 9 -14 6 -42 l-6 -43 17 29 c26 46 30 145 9 187 -10 19 -19 51 -20 72 -2 43
-34 83 -74 91 -72 14 -150 14 -196 2z m138 -28 c15 -6 26 -13 23 -15 -2 -3
-14 1 -26 7 -11 6 -44 11 -73 12 -37 0 -46 3 -32 9 22 9 65 4 108 -13z m127
-90 c0 -4 -9 1 -20 12 -11 11 -20 23 -20 27 0 3 9 -2 20 -12 11 -10 20 -22 20
-27z"/>
<path d="M2335 2860 c-3 -6 1 -7 9 -4 18 7 21 14 7 14 -6 0 -13 -4 -16 -10z"/>
<path d="M3008 2804 c-7 -14 -25 -32 -40 -40 -30 -16 -36 -29 -15 -37 6 -3 -3
-6 -20 -6 -31 -1 -33 -3 -33 -38 0 -38 36 -111 55 -113 6 -1 13 -10 17 -21 5
-13 4 -18 -3 -13 -6 3 1 -17 16 -46 14 -29 29 -50 31 -47 3 3 1 15 -5 26 -7
11 -15 57 -19 101 -8 79 -7 81 22 124 17 24 43 52 59 61 32 19 34 28 7 55 -28
28 -58 25 -72 -6z m10 -90 c-7 -15 -14 -21 -16 -15 -2 7 2 18 8 26 18 22 21
18 8 -11z"/>
<path d="M2215 2747 c-22 -5 -60 -15 -85 -23 l-45 -13 70 5 c39 2 90 8 115 14
57 12 60 12 60 2 0 -4 -15 -13 -32 -20 -57 -20 -98 -50 -92 -66 6 -15 61 -28
118 -28 32 0 34 -2 45 -53 7 -29 18 -61 26 -71 11 -16 11 -9 -1 36 -8 30 -17
82 -21 116 -6 67 -3 72 51 85 25 5 18 7 -31 8 -34 1 -65 6 -68 11 -7 12 -56
11 -110 -3z m145 -47 c0 -16 -80 -50 -115 -50 -28 0 -26 2 20 24 81 38 95 42
95 26z"/>
<path d="M2428 2700 c-15 -4 -29 -5 -32 -2 -3 3 -5 -12 -5 -34 1 -23 4 -30 6
-16 5 24 33 31 33 7 0 -21 17 -19 30 4 11 21 50 25 62 6 4 -5 13 -10 19 -10 7
0 14 -6 17 -12 2 -8 -6 -13 -22 -13 -14 0 -29 0 -33 -1 -5 0 -10 10 -13 23 -4
16 -8 19 -14 10 -12 -20 4 -52 31 -63 32 -12 90 -12 98 1 10 16 25 12 19 -5
-4 -10 0 -15 15 -15 25 0 25 -2 6 44 -10 24 -22 36 -35 36 -11 0 -20 4 -20 10
0 30 -100 49 -162 30z"/>
<path d="M3336 2601 c-6 -10 -79 -38 -133 -51 -24 -6 -33 -4 -38 7 -4 11 -12
6 -30 -21 l-25 -37 34 -102 c19 -56 39 -103 45 -105 6 -2 26 1 44 7 68 23 125
113 134 211 5 50 3 61 -11 66 -15 6 -15 7 1 20 16 12 17 13 1 14 -9 0 -19 -4
-22 -9z m-82 -93 c6 -32 -19 -118 -34 -118 -11 0 -22 64 -14 86 10 33 27 64
34 64 4 0 10 -14 14 -32z m80 -73 c5 -22 4 -26 -4 -15 -5 8 -10 24 -10 34 0
26 6 18 14 -19z"/>
<path d="M2796 2514 c-4 -9 -4 -19 -1 -22 2 -3 7 3 11 12 4 9 4 19 1 22 -2 3
-7 -3 -11 -12z"/>
<path d="M2689 2244 c-39 -100 -12 -162 76 -171 50 -4 50 -4 25 12 -14 10 -33
30 -42 46 -10 17 -25 29 -38 29 -23 0 -27 30 -10 76 6 15 8 29 6 32 -3 3 -11
-8 -17 -24z"/>
<path d="M3061 2160 c-50 -52 -54 -54 -65 -35 -6 11 -26 35 -44 52 -46 45 -88
45 -137 -2 -20 -19 -34 -39 -30 -45 3 -5 32 -10 64 -10 48 0 63 -4 85 -25 28
-26 32 -25 103 8 30 14 41 2 24 -26 -14 -22 -13 -22 6 -4 35 31 68 102 57 124
-8 17 -14 13 -63 -37z"/>
<path d="M2810 1848 c-25 -11 -70 -28 -101 -37 -31 -9 -56 -20 -56 -26 0 -5
21 -18 46 -27 55 -21 52 -21 45 -4 -8 20 34 25 186 20 110 -4 137 -7 147 -21
11 -14 14 -12 28 20 20 48 19 61 -2 52 -34 -14 -63 -17 -76 -8 -6 5 -40 9 -75
8 -57 -1 -63 1 -68 22 -7 28 -17 28 -74 1z"/>
<path d="M2750 1727 c0 -9 73 -51 95 -55 11 -1 23 -6 28 -11 5 -5 -11 -5 -35
0 -66 12 -73 12 -58 -6 26 -31 168 -58 225 -43 43 12 85 44 85 64 0 14 -35 8
-65 -13 -29 -20 -55 -16 -55 7 0 18 -7 20 -57 20 -51 1 -83 8 -145 35 -10 4
-18 5 -18 2z"/>
<path d="M3005 1670 c-3 -6 1 -7 9 -4 18 7 21 14 7 14 -6 0 -13 -4 -16 -10z"/>
<path d="M1305 3330 c-3 -6 1 -7 9 -4 18 7 21 14 7 14 -6 0 -13 -4 -16 -10z"/>
<path d="M1166 2464 c-40 -40 -33 -145 18 -270 37 -91 100 -171 126 -162 8 2
-3 14 -24 26 -52 31 -87 111 -93 218 -5 64 -2 87 12 113 11 22 20 30 24 22 6
-8 15 -9 33 -2 31 12 41 5 28 -20 -8 -14 -4 -20 22 -33 17 -9 37 -16 45 -16
23 0 14 -17 -26 -49 -27 -22 -42 -44 -51 -75 -11 -41 -10 -48 10 -80 23 -38
38 -50 20 -17 -14 28 -13 55 7 96 20 42 31 44 35 9 l3 -26 27 21 27 21 -10
-32 c-16 -58 -11 -83 24 -114 20 -18 40 -28 55 -26 29 4 28 18 -8 58 -35 41
-48 96 -30 138 19 47 23 76 12 76 -6 0 -18 3 -27 7 -15 5 -16 3 -7 -14 6 -11
7 -25 2 -33 -6 -9 -17 4 -38 47 -17 32 -49 76 -71 96 -34 31 -48 37 -85 37
-27 0 -51 -6 -60 -16z"/>
<path d="M445 2640 c-3 -5 -1 -10 4 -10 6 0 11 5 11 10 0 6 -2 10 -4 10 -3 0
-8 -4 -11 -10z"/>
<path d="M0 2125 c0 -53 1 -56 29 -61 16 -4 40 -17 52 -30 12 -13 31 -24 40
-24 36 0 51 70 26 124 -10 23 -17 27 -42 23 -16 -3 -38 -8 -47 -12 -10 -4 -24
1 -37 14 l-21 21 0 -55z"/>
<path d="M957 1862 c-25 -27 -21 -42 12 -42 31 0 64 25 58 44 -6 19 -52 18
-70 -2z"/>
<path d="M100 1760 c0 -5 5 -10 10 -10 6 0 10 5 10 10 0 6 -4 10 -10 10 -5 0
-10 -4 -10 -10z"/>
<path d="M35 1640 c-7 -12 2 -30 16 -30 5 0 9 9 9 20 0 21 -15 27 -25 10z"/>
<path d="M220 1571 c0 -5 5 -13 10 -16 6 -3 10 -2 10 4 0 5 -4 13 -10 16 -5 3
-10 2 -10 -4z"/>
<path d="M1490 1486 c0 -2 8 -10 18 -17 15 -13 16 -12 3 4 -13 16 -21 21 -21
13z"/>
<path d="M421 1364 c-21 -22 -21 -23 -1 -29 11 -3 20 -11 20 -17 0 -11 -41 -7
-74 7 -15 7 -17 5 -12 -13 6 -17 3 -19 -14 -15 -19 5 -41 25 -23 22 22 -4 25
2 7 16 -25 19 -34 19 -34 -1 0 -10 -6 -14 -15 -10 -8 3 -16 2 -16 -2 -7 -38
-9 -53 -13 -94 -2 -27 -1 -48 4 -48 4 0 14 -20 21 -45 13 -43 33 -64 27 -28
-2 14 5 18 37 18 45 0 57 10 49 41 -7 25 13 43 22 20 9 -24 54 -21 54 4 0 11
5 21 10 21 35 5 70 20 70 31 0 5 7 8 15 5 17 -7 30 9 14 18 -5 4 -8 13 -5 21
3 8 -3 31 -14 52 -11 20 -20 30 -20 21 0 -12 -7 -15 -25 -11 -14 2 -25 10 -25
17 0 23 -36 23 -59 -1z m133 -49 c4 -13 2 -14 -14 -5 -23 13 -26 20 -6 20 8 0
16 -7 20 -15z"/>
<path d="M500 1380 c0 -5 5 -10 11 -10 5 0 7 5 4 10 -3 6 -8 10 -11 10 -2 0
-4 -4 -4 -10z"/>
<path d="M23 1363 c-23 -4 -23 -7 -23 -153 0 -144 1 -148 23 -155 l22 -8 -22
-4 c-20 -4 -23 -11 -23 -47 0 -34 3 -42 18 -42 9 1 17 -3 17 -9 0 -5 -8 -10
-17 -9 -16 1 -18 -12 -18 -124 0 -104 2 -123 14 -113 20 17 149 59 164 53 8
-2 30 9 50 26 31 24 39 27 50 16 7 -8 8 -14 2 -14 -5 0 -10 -4 -10 -9 0 -5 8
-7 18 -4 10 2 24 -3 31 -11 11 -13 10 -17 -10 -25 -14 -6 -18 -10 -9 -10 9 -1
20 3 25 8 6 6 30 14 54 20 39 8 44 7 48 -10 7 -25 35 -22 85 8 21 13 51 23 67
23 33 0 81 -19 81 -32 0 -4 7 -8 16 -8 17 0 80 -47 140 -105 18 -16 35 -45 39
-62 3 -18 11 -35 16 -38 4 -3 25 -32 46 -63 20 -31 43 -61 50 -65 8 -5 11 -13
7 -18 -3 -5 -1 -15 4 -22 17 -23 23 -79 9 -96 -30 -36 -54 -173 -27 -156 6 4
10 -5 10 -19 0 -14 -4 -26 -8 -26 -5 0 -7 -14 -4 -30 l4 -31 567 1 566 2 -32
26 c-18 15 -45 37 -62 49 -21 17 -32 37 -41 75 -7 29 -29 80 -50 113 -37 58
-73 135 -67 141 1 2 20 -31 41 -72 34 -67 45 -80 98 -112 34 -20 73 -47 88
-60 16 -12 52 -30 82 -39 29 -9 66 -25 82 -36 34 -24 78 -30 88 -14 6 9 8 9 8
-1 0 -19 40 -5 67 24 12 13 29 24 38 24 9 0 14 4 10 9 -3 5 -1 12 5 16 34 21
-66 35 -114 16 -22 -8 -110 10 -159 32 -18 8 -39 17 -47 20 -10 4 -9 6 6 6 11
1 24 5 30 10 5 5 42 -1 89 -15 54 -17 90 -22 110 -17 27 6 25 8 -24 14 -57 8
-106 38 -60 36 28 0 169 30 177 38 3 3 -20 4 -50 3 -42 -2 -62 2 -76 15 -10 9
-22 14 -25 10 -4 -3 -7 -1 -7 6 0 7 -6 11 -12 9 -22 -8 -194 49 -236 77 -39
25 -92 93 -92 116 0 14 -154 175 -208 217 -23 18 -46 31 -50 28 -5 -3 -20 7
-34 22 -14 15 -38 33 -54 41 -16 7 -37 17 -46 22 -10 5 -24 9 -33 9 -8 0 -28
13 -45 30 -16 16 -30 24 -30 17 0 -9 -2 -9 -8 -1 -11 18 -75 54 -95 54 -10 0
-16 4 -12 9 8 15 -8 21 -70 25 -31 3 -62 9 -69 15 -7 6 -35 11 -62 11 -78 1
-88 1 -104 7 -27 10 -84 11 -110 1 -14 -5 -44 -11 -68 -13 -62 -5 -151 -24
-195 -41 -21 -8 -42 -12 -47 -9 -4 3 -36 -2 -70 -11 -34 -8 -68 -13 -77 -10
-22 9 -155 -14 -178 -30 -11 -8 -28 -14 -37 -14 -12 0 -26 -17 -40 -45 -12
-25 -25 -45 -29 -45 -12 0 -21 38 -13 51 4 8 3 9 -4 5 -7 -4 -12 -3 -12 3 0 6
-6 8 -14 5 -21 -8 -28 11 -16 42 8 21 8 34 -1 51 -11 20 -9 26 11 48 27 29 50
33 50 8 0 -14 3 -13 17 6 14 21 15 33 5 100 -7 42 -15 96 -18 121 -8 63 -27
88 -71 95 -21 3 -46 10 -55 16 -10 5 -19 8 -20 8 -2 -1 -13 -4 -25 -6z m170
-256 c3 -8 2 -19 -2 -25 -10 -16 -35 3 -28 22 8 19 23 21 30 3z m930 -177 c14
-11 42 -46 63 -77 20 -32 54 -78 75 -103 32 -39 56 -90 83 -175 4 -11 -5 3
-19 30 -13 28 -25 57 -25 65 -1 19 -24 50 -37 50 -6 0 -16 -7 -23 -15 -7 -8
-17 -15 -23 -15 -5 0 -2 9 8 20 10 11 14 20 9 20 -6 0 -16 17 -23 37 -8 20
-23 46 -35 58 -11 12 -28 35 -36 50 -21 40 -37 42 -34 5 1 -17 -2 -48 -8 -68
l-10 -36 -19 22 c-25 32 -36 91 -18 104 11 8 11 11 1 15 -10 4 -9 8 5 19 25
18 36 17 66 -6z m198 -15 c50 -20 100 -41 112 -48 28 -15 170 -103 220 -136
40 -26 100 -90 119 -126 9 -17 7 -16 -16 4 l-26 24 0 -26 c0 -14 10 -35 21
-46 13 -12 19 -26 15 -36 -4 -11 -2 -14 6 -9 7 5 9 2 5 -9 -4 -11 -2 -14 9
-10 22 8 17 -10 -7 -25 -15 -10 -19 -10 -14 -1 6 8 -1 10 -24 7 -19 -3 -36 1
-43 9 -8 11 -13 11 -19 2 -5 -9 -18 -7 -50 8 -81 38 -158 55 -144 33 3 -5 0
-10 -7 -10 -9 0 -9 -3 2 -11 12 -8 10 -10 -10 -8 -45 2 -44 -1 16 -39 33 -21
67 -50 76 -64 9 -14 45 -45 80 -68 53 -35 58 -41 32 -35 -17 3 -79 8 -138 9
l-106 4 -30 -36 c-33 -41 -42 -30 -10 11 25 32 75 47 158 47 82 0 80 17 -4 26
-51 5 -63 9 -50 16 17 10 28 8 71 -7 39 -14 -81 85 -121 101 -45 17 -44 16
-100 153 -21 52 -48 106 -60 120 -42 51 -145 203 -134 199 6 -2 36 -37 68 -78
l58 -75 64 -7 c35 -4 66 -6 68 -4 2 2 -30 16 -70 32 -88 34 -89 34 -133 95
l-35 49 30 0 c17 0 71 -16 121 -35z m-311 -16 c0 -6 -4 -7 -10 -4 -5 3 -10 11
-10 16 0 6 5 7 10 4 6 -3 10 -11 10 -16z m260 -213 c0 -3 -4 -8 -10 -11 -5 -3
-10 -1 -10 4 0 6 5 11 10 11 6 0 10 -2 10 -4z m538 -171 c-3 -3 -9 2 -12 12
-6 14 -5 15 5 6 7 -7 10 -15 7 -18z m24 -68 c5 -10 7 -21 5 -24 -3 -2 -8 5
-12 16 -3 11 -12 18 -20 15 -7 -3 -16 -1 -19 5 -4 5 3 9 15 8 11 -1 25 -10 31
-20z m-322 -38 c0 -4 -7 -6 -15 -3 -8 4 -15 10 -15 15 0 4 7 6 15 3 8 -4 15
-10 15 -15z m197 -144 c43 -18 46 -18 37 -2 -5 6 8 0 27 -16 18 -15 57 -43 84
-61 67 -46 113 -85 99 -86 -7 0 -26 13 -43 29 -50 47 -176 102 -266 117 -96
16 -171 18 -180 4 -3 -5 -15 -10 -26 -10 -38 0 -18 -19 24 -23 36 -3 35 -4
-13 -4 -30 -1 -66 3 -80 7 -24 8 -24 8 6 9 16 1 36 7 42 13 37 37 221 51 289
23z m-119 -42 c-10 -2 -26 -2 -35 0 -10 3 -2 5 17 5 19 0 27 -2 18 -5z m162
-24 c18 -11 -34 -1 -65 13 -13 5 -9 6 15 2 19 -4 42 -10 50 -15z m80 -39 c8
-5 11 -10 5 -10 -5 0 -17 5 -25 10 -8 5 -10 10 -5 10 6 0 17 -5 25 -10z m177
-107 c29 -20 53 -38 53 -40 0 -6 -67 34 -99 59 -43 33 -9 19 46 -19z"/>
<path d="M1326 713 c23 -54 35 -75 40 -70 6 6 -32 94 -45 101 -6 4 -3 -10 5
-31z"/>
<path d="M368 1343 c7 -3 16 -2 19 1 4 3 -2 6 -13 5 -11 0 -14 -3 -6 -6z"/>
<path d="M847 1330 c-6 -22 14 -41 21 -21 3 9 10 7 26 -7 11 -11 32 -22 46
-25 14 -3 36 -8 50 -11 25 -6 25 -6 2 4 -13 5 -20 14 -17 20 13 21 -32 48 -91
56 -25 3 -33 -1 -37 -16z m93 -20 c0 -5 -4 -10 -10 -10 -5 0 -10 5 -10 10 0 6
5 10 10 10 6 0 10 -4 10 -10z"/>
<path d="M1076 1245 c10 -8 26 -14 34 -14 9 0 4 6 -10 14 -33 19 -49 19 -24 0z"/>
<path d="M1065 1220 c3 -5 8 -10 11 -10 2 0 4 5 4 10 0 6 -5 10 -11 10 -5 0
-7 -4 -4 -10z"/>
<path d="M160 930 c0 -5 5 -10 10 -10 6 0 10 5 10 10 0 6 -4 10 -10 10 -5 0
-10 -4 -10 -10z"/>
<path d="M3054 768 c-5 -7 -20 -38 -35 -69 -63 -131 -232 -317 -333 -366 -20
-9 -36 -23 -36 -31 0 -7 14 -56 32 -109 22 -63 39 -98 53 -105 27 -15 35 -28
35 -60 l0 -27 285 -1 c277 0 325 5 261 30 -32 12 -35 18 -37 84 -2 59 -4 62
-81 143 -27 29 -48 70 -52 102 -4 34 -12 55 -42 116 -21 43 -25 68 -28 173 -3
68 -7 126 -9 129 -3 2 -9 -2 -13 -9z"/>
<path d="M3626 297 c3 -10 9 -15 12 -12 3 3 0 11 -7 18 -10 9 -11 8 -5 -6z"/>
<path d="M350 255 c-11 -40 -30 -62 -30 -35 0 6 -7 10 -15 10 -7 0 -18 6 -22
14 -4 7 -19 19 -32 26 -23 12 -24 11 -18 -19 5 -23 3 -31 -7 -31 -8 0 -17 -7
-20 -15 -4 -12 -14 -14 -41 -9 -26 5 -43 1 -70 -16 l-35 -22 -19 23 c-30 38
-41 16 -41 -87 l0 -94 255 0 255 0 -6 26 c-4 15 -15 35 -25 45 -12 12 -19 33
-19 54 0 20 -6 38 -13 40 -6 3 -26 34 -42 70 -17 36 -33 65 -36 65 -4 0 -12
-20 -19 -45z"/>
<path d="M93 219 c14 -8 22 -8 30 0 8 8 3 11 -18 11 -26 -1 -28 -2 -12 -11z"/>
<path d="M2398 53 c7 -3 16 -2 19 1 4 3 -2 6 -13 5 -11 0 -14 -3 -6 -6z"/>
<path d="M3510 23 c0 -13 5 -23 10 -23 13 0 13 11 0 30 -8 12 -10 11 -10 -7z"/>
</g>
</svg>
