<?xml version="1.0" standalone="no"?>
<!DOCTYPE svg PUBLIC "-//W3C//DTD SVG 20010904//EN"
 "http://www.w3.org/TR/2001/REC-SVG-20010904/DTD/svg10.dtd">
<svg version="1.0" xmlns="http://www.w3.org/2000/svg"
 width="82.000000pt" height="81.000000pt" viewBox="0 0 82.000000 81.000000"
 preserveAspectRatio="xMidYMid meet">

<g transform="translate(0.000000,81.000000) scale(0.100000,-0.100000)"
fill="#000000" stroke="none">
<path d="M30 791 c0 -10 6 -21 14 -24 8 -3 17 -24 21 -46 4 -23 11 -41 16 -41
5 0 9 -6 9 -13 0 -7 9 -18 20 -25 23 -14 18 -34 -7 -30 -9 2 -29 16 -44 31
-31 31 -52 31 -58 2 -2 -14 2 -17 18 -12 12 3 23 2 26 -3 3 -4 -4 -10 -15 -13
-28 -7 -36 -35 -16 -50 10 -7 16 -19 14 -27 -2 -9 6 -16 20 -18 12 -2 22 -7
22 -12 0 -7 58 -23 89 -25 8 0 16 -6 19 -13 3 -9 -9 -12 -40 -12 -65 1 -78 0
-78 -11 0 -5 -7 -9 -16 -9 -8 0 -12 -5 -9 -10 5 -8 11 -7 21 1 12 10 22 4 54
-30 21 -22 46 -41 55 -41 8 0 15 -5 15 -10 0 -6 3 -9 8 -9 20 3 33 -2 30 -13
-3 -7 6 -18 20 -25 31 -17 32 -17 32 7 0 32 15 23 48 -29 37 -60 73 -85 123
-86 44 0 43 1 28 -61 -9 -33 -9 -48 -1 -56 16 -16 35 36 34 90 0 23 3 42 8 42
13 0 33 -58 24 -72 -6 -10 -4 -10 9 1 11 8 17 28 17 52 0 22 5 39 10 39 6 0
10 -18 10 -40 0 -38 3 -41 75 -90 72 -49 91 -70 61 -70 -7 0 -19 -7 -26 -15
-11 -13 -3 -15 59 -15 l71 0 0 405 0 405 -395 0 c-381 0 -395 -1 -395 -19z
m90 -61 c0 -5 -4 -10 -10 -10 -5 0 -10 5 -10 10 0 6 5 10 10 10 6 0 10 -4 10
-10z m273 -37 c-7 -2 -21 -2 -30 0 -10 3 -4 5 12 5 17 0 24 -2 18 -5z m-88
-19 c-16 -8 -38 -23 -48 -31 -9 -9 -19 -14 -22 -11 -7 7 66 57 85 57 8 1 2 -6
-15 -15z m192 4 c4 -7 8 -17 8 -23 0 -5 10 -11 23 -13 12 -2 22 -10 22 -18 0
-30 42 -102 65 -112 18 -9 25 -19 24 -39 -1 -16 -3 -21 -6 -12 -2 11 -11 15
-22 12 -16 -4 -18 -14 -16 -69 2 -73 -15 -151 -36 -165 -26 -16 -60 -9 -134
26 -83 40 -99 56 -102 99 -1 17 -5 60 -8 95 -3 43 -1 69 7 79 29 34 18 82 -20
82 -32 0 -18 17 18 22 14 1 27 6 30 10 3 4 38 9 78 10 40 2 72 4 72 6 0 1 -10
7 -22 12 -17 6 -18 9 -6 9 9 1 20 -5 25 -11z m-330 -50 c-3 -8 -6 -5 -6 6 -1
11 2 17 5 13 3 -3 4 -12 1 -19z m90 -164 c24 -7 32 -21 43 -74 6 -34 5 -36
-19 -34 -14 1 -29 2 -32 3 -4 0 -16 20 -28 43 -15 31 -18 45 -9 55 12 15 14
15 45 7z m-132 -24 c-3 -5 -11 -10 -16 -10 -6 0 -7 5 -4 10 3 6 11 10 16 10 6
0 7 -4 4 -10z"/>
<path d="M490 526 c0 -2 7 -6 15 -10 8 -3 15 -1 15 4 0 6 -7 10 -15 10 -8 0
-15 -2 -15 -4z"/>
<path d="M553 505 c-9 -24 1 -27 15 -5 8 13 8 20 2 20 -6 0 -13 -7 -17 -15z"/>
<path d="M416 497 c4 -11 18 -15 47 -13 23 1 48 -2 55 -7 8 -7 12 -4 12 7 0
12 -10 16 -37 16 -21 0 -48 3 -61 6 -17 5 -21 3 -16 -9z"/>
<path d="M517 403 c-31 -8 -10 -19 29 -15 25 3 32 7 23 13 -15 9 -23 10 -52 2z"/>
<path d="M510 332 c0 -4 16 -6 35 -4 19 2 35 6 35 8 0 2 -16 4 -35 4 -19 0
-35 -4 -35 -8z"/>
<path d="M530 306 c0 -10 28 -13 41 -5 10 6 7 9 -13 9 -16 0 -28 -2 -28 -4z"/>
<path d="M220 450 c0 -5 6 -9 13 -7 6 1 12 -5 11 -13 0 -8 7 -24 17 -34 18
-18 18 -18 9 14 -9 31 -25 49 -42 50 -5 0 -8 -4 -8 -10z"/>
<path d="M0 391 c0 -5 7 -11 15 -15 9 -3 15 0 15 9 0 8 -7 15 -15 15 -8 0 -15
-4 -15 -9z"/>
<path d="M0 192 l0 -58 64 3 c61 3 65 2 90 -28 27 -32 29 -38 26 -82 l-2 -27
109 1 c59 0 102 3 96 6 -7 2 -13 11 -13 19 0 11 6 11 35 -3 27 -13 38 -14 47
-5 9 9 5 12 -18 13 -16 1 -22 3 -11 6 25 6 21 20 -8 27 -14 4 -39 22 -57 42
-18 20 -55 47 -83 61 -44 23 -57 25 -119 19 -39 -4 -83 -13 -99 -21 l-29 -15
6 34 c8 39 -1 66 -20 66 -10 0 -14 -15 -14 -58z m284 -45 c21 -12 43 -32 47
-44 7 -20 6 -21 -16 -13 -14 5 -32 7 -40 4 -8 -4 -15 -2 -15 3 0 13 -39 58
-50 58 -5 0 -12 3 -16 8 -17 17 54 5 90 -16z m36 -97 c8 -5 11 -10 5 -10 -5 0
-17 5 -25 10 -8 5 -10 10 -5 10 6 0 17 -5 25 -10z"/>
<path d="M50 228 c0 -21 7 -22 40 -3 28 16 27 17 -12 19 -21 1 -28 -3 -28 -16z"/>
<path d="M536 92 c-35 -38 -38 -45 -28 -67 10 -22 18 -25 62 -25 51 0 64 12
39 37 -7 7 -17 31 -23 55 l-11 43 -39 -43z"/>
<path d="M28 39 c-6 -4 -16 -5 -20 -3 -4 3 -8 -4 -8 -15 0 -18 6 -21 45 -21
44 0 55 10 37 36 -8 13 -36 14 -54 3z"/>
</g>
</svg>
