<svg width="82.052099609375px" height="84.8px" xmlns="http://www.w3.org/2000/svg" viewBox="208.9739501953125 32.6 82.052099609375 84.8" style="background: rgba(0, 0, 0, 0);" preserveAspectRatio="xMidYMid"><defs><filter id="editing-extrusion" x="-100%" y="-100%" width="300%" height="300%"><feFlood result="color1" flood-color="#444444"></feFlood><feConvolveMatrix order="8,8" divisor="1" kernelMatrix="1 0 0 0 0 0 0 0 0 1 0 0 0 0 0 0 0 0 1 0 0 0 0 0 0 0 0 1 0 0 0 0 0 0 0 0 1 0 0 0 0 0 0 0 0 1 0 0 0 0 0 0 0 0 1 0 0 0 0 0 0 0 0 1" in="SourceAlpha" result="extrude"></feConvolveMatrix><feComposite in="color1" in2="extrude" result="comp-extrude" operator="in"></feComposite><feOffset dx="4" dy="4" in="comp-extrude" result="offset-extrude"></feOffset><feMerge><feMergeNode in="offset-extrude"></feMergeNode><feMergeNode in="SourceGraphic"></feMergeNode></feMerge></filter></defs><g filter="url(#editing-extrusion)"><g transform="translate(227.28234469890594, 87.49500179290771)"><path d="M20.10 0L1.33 0L1.33-1.47L1.78-1.47L1.78-1.47Q2.38-1.47 2.90-1.56L2.90-1.56L2.90-1.56Q3.42-1.64 3.81-1.91L3.81-1.91L3.81-1.91Q4.20-2.17 4.43-2.67L4.43-2.67L4.43-2.67Q4.65-3.16 4.65-3.98L4.65-3.98L4.65-21.00L4.65-21.00Q4.65-21.82 4.43-22.32L4.43-22.32L4.43-22.32Q4.20-22.81 3.81-23.08L3.81-23.08L3.81-23.08Q3.42-23.34 2.90-23.43L2.90-23.43L2.90-23.43Q2.38-23.52 1.78-23.52L1.78-23.52L1.33-23.52L1.33-24.99L11.52-24.99L11.52-23.52L11.06-23.52L11.06-23.52Q10.48-23.52 9.95-23.44L9.95-23.44L9.95-23.44Q9.43-23.36 9.04-23.11L9.04-23.11L9.04-23.11Q8.65-22.85 8.42-22.38L8.42-22.38L8.42-22.38Q8.19-21.91 8.19-21.14L8.19-21.14L8.19-1.74L15.09-1.74L15.09-1.74Q15.88-1.74 16.43-2.03L16.43-2.03L16.43-2.03Q16.99-2.31 17.35-2.76L17.35-2.76L17.35-2.76Q17.71-3.21 17.90-3.78L17.90-3.78L17.90-3.78Q18.10-4.34 18.17-4.90L18.17-4.90L18.51-7.52L20.34-7.52L20.10 0ZM36.40-11.86L41.20-4.27L41.20-4.27Q42.09-2.87 42.93-2.17L42.93-2.17L42.93-2.17Q43.77-1.47 44.88-1.47L44.88-1.47L44.98-1.47L44.98 0L44.48 0L44.48 0Q42.84 0 41.79-0.12L41.79-0.12L41.79-0.12Q40.74-0.24 40.01-0.58L40.01-0.58L40.01-0.58Q39.27-0.92 38.75-1.54L38.75-1.54L38.75-1.54Q38.23-2.15 37.63-3.14L37.63-3.14L32.90-11.02L29.99-11.02L29.99-3.81L29.99-3.81Q29.99-3.04 30.22-2.57L30.22-2.57L30.22-2.57Q30.45-2.10 30.85-1.86L30.85-1.86L30.85-1.86Q31.24-1.62 31.76-1.55L31.76-1.55L31.76-1.55Q32.28-1.47 32.86-1.47L32.86-1.47L33.33-1.47L33.33 0L23.14 0L23.14-1.47L23.58-1.47L23.58-1.47Q24.17-1.47 24.69-1.55L24.69-1.55L24.69-1.55Q25.21-1.62 25.60-1.86L25.60-1.86L25.60-1.86Q25.99-2.10 26.22-2.57L26.22-2.57L26.22-2.57Q26.46-3.04 26.46-3.81L26.46-3.81L26.46-21.14L26.46-21.14Q26.46-21.91 26.22-22.38L26.22-22.38L26.22-22.38Q25.99-22.85 25.60-23.11L25.60-23.11L25.60-23.11Q25.21-23.36 24.69-23.44L24.69-23.44L24.69-23.44Q24.17-23.52 23.58-23.52L23.58-23.52L23.14-23.52L23.14-24.99L32.56-24.99L32.56-24.99Q37.10-24.99 39.32-23.30L39.32-23.30L39.32-23.30Q41.55-21.62 41.55-18.23L41.55-18.23L41.55-18.23Q41.55-16.83 41.09-15.78L41.09-15.78L41.09-15.78Q40.64-14.73 39.90-13.96L39.90-13.96L39.90-13.96Q39.17-13.19 38.25-12.68L38.25-12.68L38.25-12.68Q37.32-12.17 36.40-11.86L36.40-11.86ZM29.99-23.31L29.99-12.66L32.45-12.66L32.45-12.66Q33.99-12.66 35.02-13.01L35.02-13.01L35.02-13.01Q36.04-13.35 36.66-14.03L36.66-14.03L36.66-14.03Q37.27-14.71 37.54-15.74L37.54-15.74L37.54-15.74Q37.80-16.77 37.80-18.13L37.80-18.13L37.80-18.13Q37.80-19.53 37.51-20.52L37.51-20.52L37.51-20.52Q37.22-21.50 36.57-22.12L36.57-22.12L36.57-22.12Q35.92-22.75 34.89-23.03L34.89-23.03L34.89-23.03Q33.85-23.31 32.37-23.31L32.37-23.31L29.99-23.31Z" fill="#ffffff"></path></g></g><style>text {
  font-size: 64px;
  font-family: Arial Black;
  dominant-baseline: central;
  text-anchor: middle;
}</style></svg>