<?xml version="1.0" standalone="no"?>
<!DOCTYPE svg PUBLIC "-//W3C//DTD SVG 20010904//EN"
 "http://www.w3.org/TR/2001/REC-SVG-20010904/DTD/svg10.dtd">
<svg version="1.0" xmlns="http://www.w3.org/2000/svg"
 width="138.000000pt" height="136.000000pt" viewBox="0 0 138.000000 136.000000"
 preserveAspectRatio="xMidYMid meet">

<g transform="translate(0.000000,136.000000) scale(0.100000,-0.100000)"
fill="#000000" stroke="none">
<path d="M555 1324 c-38 -8 -113 -35 -165 -61 -289 -141 -435 -485 -339 -799
25 -84 66 -159 131 -241 60 -75 113 -104 207 -110 171 -11 187 92 39 254 -122
134 -165 265 -134 406 63 282 362 421 631 293 168 -80 278 -273 261 -456 -16
-160 -86 -285 -221 -388 l-30 -23 35 17 c55 27 154 133 189 202 106 209 70
441 -94 605 -35 36 -47 52 -28 39 71 -50 137 -147 173 -252 30 -88 31 -228 1
-320 -53 -169 -171 -294 -346 -366 -65 -27 -80 -29 -202 -29 -72 0 -126 -3
-120 -6 17 -9 103 -23 187 -29 39 -3 35 -5 -30 -11 -73 -6 -72 -6 21 -4 75 2
114 9 182 33 48 16 85 26 82 22 -8 -13 -166 -60 -230 -69 -41 -6 -49 -9 -25
-10 127 -3 304 74 419 184 214 205 266 504 134 775 -54 110 -178 232 -293 289
-138 67 -285 86 -435 55z m248 -61 c-7 -2 -19 -2 -25 0 -7 3 -2 5 12 5 14 0
19 -2 13 -5z m54 -9 c-3 -3 -12 -4 -19 -1 -8 3 -5 6 6 6 11 1 17 -2 13 -5z
m129 -50 c18 -14 18 -14 -6 -3 -31 14 -36 19 -24 19 6 0 19 -7 30 -16z m143
-109 c56 -56 131 -166 131 -189 0 -6 -15 16 -33 49 -30 57 -142 181 -197 219
-23 15 -22 15 7 -1 18 -9 59 -44 92 -78z m150 -245 c0 -10 -3 -8 -9 5 -12 27
-12 43 0 25 5 -8 9 -22 9 -30z m8 -42 c-3 -8 -6 -5 -6 6 -1 11 2 17 5 13 3 -3
4 -12 1 -19z m10 -55 c-3 -10 -5 -4 -5 12 0 17 2 24 5 18 2 -7 2 -21 0 -30z
m40 -15 c-3 -8 -6 -5 -6 6 -1 11 2 17 5 13 3 -3 4 -12 1 -19z m-30 -90 c-2
-18 -4 -6 -4 27 0 33 2 48 4 33 2 -15 2 -42 0 -60z m-30 10 c-3 -8 -6 -5 -6 6
-1 11 2 17 5 13 3 -3 4 -12 1 -19z m60 -50 c-2 -13 -4 -5 -4 17 -1 22 1 32 4
23 2 -10 2 -28 0 -40z m-40 -45 c-3 -10 -5 -4 -5 12 0 17 2 24 5 18 2 -7 2
-21 0 -30z m-30 -5 c-3 -8 -6 -5 -6 6 -1 11 2 17 5 13 3 -3 4 -12 1 -19z m20
-40 c-3 -8 -6 -5 -6 6 -1 11 2 17 5 13 3 -3 4 -12 1 -19z m-31 -94 c-38 -84
-109 -177 -174 -230 -104 -85 -267 -149 -322 -125 -21 9 -18 10 20 5 35 -4 42
-3 30 6 -12 9 -7 10 20 5 27 -5 31 -4 20 5 -12 8 -8 9 15 4 24 -4 27 -3 15 6
-13 10 -12 11 4 6 10 -4 28 -4 39 0 16 5 17 8 6 16 -10 6 -7 7 10 3 15 -5 21
-3 17 3 -3 6 -1 14 5 18 8 4 9 3 5 -4 -9 -15 -1 -15 25 -1 11 5 17 14 14 19
-3 5 0 12 6 16 8 5 9 3 4 -6 -5 -8 -3 -11 6 -8 8 3 13 10 12 16 -1 5 5 16 15
24 15 12 16 11 3 -4 -28 -36 7 -17 57 31 60 58 126 155 150 223 9 27 18 44 20
38 2 -5 -8 -35 -22 -66z m24 -22 c0 -5 -7 -17 -15 -28 -14 -18 -14 -17 -4 9
12 27 19 34 19 19z m-46 -79 c-49 -77 -150 -172 -214 -202 -21 -10 -22 -9 -6
1 88 59 188 156 217 209 5 11 12 19 16 19 3 0 -3 -12 -13 -27z m-74 -17 c0 -2
-8 -10 -17 -17 -16 -13 -17 -12 -4 4 13 16 21 21 21 13z"/>
</g>
</svg>
